G04 #@! TF.GenerationSoftware,KiCad,Pcbnew,(5.1.2)-1*
G04 #@! TF.CreationDate,2019-12-12T00:14:11+09:00*
G04 #@! TF.ProjectId,CAN_IMU,43414e5f-494d-4552-9e6b-696361645f70,rev?*
G04 #@! TF.SameCoordinates,PXcd0a3c0PY7e5ca20*
G04 #@! TF.FileFunction,Soldermask,Top*
G04 #@! TF.FilePolarity,Negative*
%FSLAX46Y46*%
G04 Gerber Fmt 4.6, Leading zero omitted, Abs format (unit mm)*
G04 Created by KiCad (PCBNEW (5.1.2)-1) date 2019-12-12 00:14:11*
%MOMM*%
%LPD*%
G04 APERTURE LIST*
%ADD10C,0.100000*%
G04 APERTURE END LIST*
D10*
G36*
X1751000Y-31141000D02*
G01*
X649000Y-31141000D01*
X649000Y-29139000D01*
X1751000Y-29139000D01*
X1751000Y-31141000D01*
X1751000Y-31141000D01*
G37*
G36*
X-3329000Y-31141000D02*
G01*
X-4431000Y-31141000D01*
X-4431000Y-29139000D01*
X-3329000Y-29139000D01*
X-3329000Y-31141000D01*
X-3329000Y-31141000D01*
G37*
G36*
X4291000Y-27841000D02*
G01*
X3189000Y-27841000D01*
X3189000Y-25839000D01*
X4291000Y-25839000D01*
X4291000Y-27841000D01*
X4291000Y-27841000D01*
G37*
G36*
X-789000Y-27841000D02*
G01*
X-1891000Y-27841000D01*
X-1891000Y-25839000D01*
X-789000Y-25839000D01*
X-789000Y-27841000D01*
X-789000Y-27841000D01*
G37*
G36*
X1751000Y-19950999D02*
G01*
X649000Y-19950999D01*
X649000Y-17948999D01*
X1751000Y-17948999D01*
X1751000Y-19950999D01*
X1751000Y-19950999D01*
G37*
G36*
X-3329000Y-19950999D02*
G01*
X-4431000Y-19950999D01*
X-4431000Y-17948999D01*
X-3329000Y-17948999D01*
X-3329000Y-19950999D01*
X-3329000Y-19950999D01*
G37*
G36*
X-8409000Y-19950999D02*
G01*
X-9511000Y-19950999D01*
X-9511000Y-17948999D01*
X-8409000Y-17948999D01*
X-8409000Y-19950999D01*
X-8409000Y-19950999D01*
G37*
G36*
X6831000Y-19950999D02*
G01*
X5729000Y-19950999D01*
X5729000Y-17948999D01*
X6831000Y-17948999D01*
X6831000Y-19950999D01*
X6831000Y-19950999D01*
G37*
G36*
X4291000Y-16650999D02*
G01*
X3189000Y-16650999D01*
X3189000Y-14648999D01*
X4291000Y-14648999D01*
X4291000Y-16650999D01*
X4291000Y-16650999D01*
G37*
G36*
X-789000Y-16650999D02*
G01*
X-1891000Y-16650999D01*
X-1891000Y-14648999D01*
X-789000Y-14648999D01*
X-789000Y-16650999D01*
X-789000Y-16650999D01*
G37*
G36*
X-5869000Y-16650999D02*
G01*
X-6971000Y-16650999D01*
X-6971000Y-14648999D01*
X-5869000Y-14648999D01*
X-5869000Y-16650999D01*
X-5869000Y-16650999D01*
G37*
G36*
X9371000Y-16650999D02*
G01*
X8269000Y-16650999D01*
X8269000Y-14648999D01*
X9371000Y-14648999D01*
X9371000Y-16650999D01*
X9371000Y-16650999D01*
G37*
G36*
X-10140001Y-11949737D02*
G01*
X-10130392Y-11952652D01*
X-10121528Y-11957390D01*
X-10113763Y-11963763D01*
X-10103552Y-11976206D01*
X-10096622Y-11986575D01*
X-10079295Y-12003902D01*
X-10058920Y-12017515D01*
X-10036280Y-12026891D01*
X-10012247Y-12031671D01*
X-9987743Y-12031670D01*
X-9963710Y-12026888D01*
X-9941071Y-12017510D01*
X-9920698Y-12003895D01*
X-9903371Y-11986568D01*
X-9896442Y-11976198D01*
X-9886237Y-11963763D01*
X-9878472Y-11957390D01*
X-9869608Y-11952652D01*
X-9859999Y-11949737D01*
X-9843860Y-11948148D01*
X-9356139Y-11948148D01*
X-9337801Y-11949954D01*
X-9325550Y-11950556D01*
X-9307131Y-11950556D01*
X-9284851Y-11952750D01*
X-9200767Y-11969476D01*
X-9179340Y-11975976D01*
X-9100142Y-12008780D01*
X-9094697Y-12011691D01*
X-9094691Y-12011693D01*
X-9085831Y-12016429D01*
X-9085827Y-12016432D01*
X-9080386Y-12019340D01*
X-9009101Y-12066971D01*
X-8991796Y-12081172D01*
X-8931172Y-12141796D01*
X-8916971Y-12159101D01*
X-8869340Y-12230386D01*
X-8866432Y-12235827D01*
X-8866429Y-12235831D01*
X-8861693Y-12244691D01*
X-8861691Y-12244697D01*
X-8858780Y-12250142D01*
X-8825976Y-12329340D01*
X-8819476Y-12350767D01*
X-8802750Y-12434851D01*
X-8800556Y-12457131D01*
X-8800556Y-12475550D01*
X-8799954Y-12487801D01*
X-8798148Y-12506139D01*
X-8798148Y-12993862D01*
X-8799954Y-13012199D01*
X-8800556Y-13024450D01*
X-8800556Y-13042869D01*
X-8802750Y-13065149D01*
X-8819476Y-13149233D01*
X-8825976Y-13170660D01*
X-8858780Y-13249858D01*
X-8861691Y-13255303D01*
X-8861693Y-13255309D01*
X-8866429Y-13264169D01*
X-8866432Y-13264173D01*
X-8869340Y-13269614D01*
X-8916971Y-13340899D01*
X-8931172Y-13358204D01*
X-8991796Y-13418828D01*
X-9009101Y-13433029D01*
X-9080386Y-13480660D01*
X-9085827Y-13483568D01*
X-9085831Y-13483571D01*
X-9094691Y-13488307D01*
X-9094697Y-13488309D01*
X-9100142Y-13491220D01*
X-9179340Y-13524024D01*
X-9200767Y-13530524D01*
X-9284851Y-13547250D01*
X-9307131Y-13549444D01*
X-9325550Y-13549444D01*
X-9337801Y-13550046D01*
X-9356138Y-13551852D01*
X-9843860Y-13551852D01*
X-9859999Y-13550263D01*
X-9869608Y-13547348D01*
X-9878472Y-13542610D01*
X-9886237Y-13536237D01*
X-9896448Y-13523794D01*
X-9903378Y-13513425D01*
X-9920705Y-13496098D01*
X-9941080Y-13482485D01*
X-9963720Y-13473109D01*
X-9987753Y-13468329D01*
X-10012257Y-13468330D01*
X-10036290Y-13473112D01*
X-10058929Y-13482490D01*
X-10079302Y-13496105D01*
X-10096629Y-13513432D01*
X-10103558Y-13523802D01*
X-10113763Y-13536237D01*
X-10121528Y-13542610D01*
X-10130392Y-13547348D01*
X-10140001Y-13550263D01*
X-10156140Y-13551852D01*
X-10643862Y-13551852D01*
X-10662199Y-13550046D01*
X-10674450Y-13549444D01*
X-10692869Y-13549444D01*
X-10715149Y-13547250D01*
X-10799233Y-13530524D01*
X-10820660Y-13524024D01*
X-10899858Y-13491220D01*
X-10905303Y-13488309D01*
X-10905309Y-13488307D01*
X-10914169Y-13483571D01*
X-10914173Y-13483568D01*
X-10919614Y-13480660D01*
X-10990899Y-13433029D01*
X-11008204Y-13418828D01*
X-11068828Y-13358204D01*
X-11083029Y-13340899D01*
X-11130660Y-13269614D01*
X-11133568Y-13264173D01*
X-11133571Y-13264169D01*
X-11138307Y-13255309D01*
X-11138309Y-13255303D01*
X-11141220Y-13249858D01*
X-11174024Y-13170660D01*
X-11180524Y-13149233D01*
X-11197250Y-13065149D01*
X-11199444Y-13042869D01*
X-11199444Y-13024450D01*
X-11200046Y-13012199D01*
X-11201852Y-12993862D01*
X-11201852Y-12506139D01*
X-11200046Y-12487801D01*
X-11199444Y-12475550D01*
X-11199444Y-12457131D01*
X-11197250Y-12434851D01*
X-11180524Y-12350767D01*
X-11174024Y-12329340D01*
X-11141220Y-12250142D01*
X-11138309Y-12244697D01*
X-11138307Y-12244691D01*
X-11133571Y-12235831D01*
X-11133568Y-12235827D01*
X-11130660Y-12230386D01*
X-11083029Y-12159101D01*
X-11068828Y-12141796D01*
X-11008204Y-12081172D01*
X-10990899Y-12066971D01*
X-10919614Y-12019340D01*
X-10914173Y-12016432D01*
X-10914169Y-12016429D01*
X-10905309Y-12011693D01*
X-10905303Y-12011691D01*
X-10899858Y-12008780D01*
X-10820660Y-11975976D01*
X-10799233Y-11969476D01*
X-10715149Y-11952750D01*
X-10692869Y-11950556D01*
X-10674450Y-11950556D01*
X-10662199Y-11949954D01*
X-10643861Y-11948148D01*
X-10156140Y-11948148D01*
X-10140001Y-11949737D01*
X-10140001Y-11949737D01*
G37*
G36*
X4291000Y-13361000D02*
G01*
X3189000Y-13361000D01*
X3189000Y-11359000D01*
X4291000Y-11359000D01*
X4291000Y-13361000D01*
X4291000Y-13361000D01*
G37*
G36*
X-5869000Y-13361000D02*
G01*
X-6971000Y-13361000D01*
X-6971000Y-11359000D01*
X-5869000Y-11359000D01*
X-5869000Y-13361000D01*
X-5869000Y-13361000D01*
G37*
G36*
X-789000Y-13361000D02*
G01*
X-1891000Y-13361000D01*
X-1891000Y-11359000D01*
X-789000Y-11359000D01*
X-789000Y-13361000D01*
X-789000Y-13361000D01*
G37*
G36*
X6831000Y-10061000D02*
G01*
X5729000Y-10061000D01*
X5729000Y-8059000D01*
X6831000Y-8059000D01*
X6831000Y-10061000D01*
X6831000Y-10061000D01*
G37*
G36*
X-3329000Y-10061000D02*
G01*
X-4431000Y-10061000D01*
X-4431000Y-8059000D01*
X-3329000Y-8059000D01*
X-3329000Y-10061000D01*
X-3329000Y-10061000D01*
G37*
G36*
X1751000Y-10061000D02*
G01*
X649000Y-10061000D01*
X649000Y-8059000D01*
X1751000Y-8059000D01*
X1751000Y-10061000D01*
X1751000Y-10061000D01*
G37*
G36*
X-9085501Y-7728445D02*
G01*
X-9048005Y-7739820D01*
X-9013446Y-7758292D01*
X-8983153Y-7783153D01*
X-8958292Y-7813446D01*
X-8939820Y-7848005D01*
X-8928445Y-7885501D01*
X-8924000Y-7930638D01*
X-8924000Y-8569362D01*
X-8928445Y-8614499D01*
X-8939820Y-8651995D01*
X-8958292Y-8686554D01*
X-8983153Y-8716847D01*
X-9013446Y-8741708D01*
X-9048005Y-8760180D01*
X-9085501Y-8771555D01*
X-9130638Y-8776000D01*
X-9869362Y-8776000D01*
X-9914499Y-8771555D01*
X-9951995Y-8760180D01*
X-9986554Y-8741708D01*
X-10016847Y-8716847D01*
X-10041708Y-8686554D01*
X-10060180Y-8651995D01*
X-10071555Y-8614499D01*
X-10076000Y-8569362D01*
X-10076000Y-7930638D01*
X-10071555Y-7885501D01*
X-10060180Y-7848005D01*
X-10041708Y-7813446D01*
X-10016847Y-7783153D01*
X-9986554Y-7758292D01*
X-9951995Y-7739820D01*
X-9914499Y-7728445D01*
X-9869362Y-7724000D01*
X-9130638Y-7724000D01*
X-9085501Y-7728445D01*
X-9085501Y-7728445D01*
G37*
G36*
X-13360501Y-7728445D02*
G01*
X-13323005Y-7739820D01*
X-13288446Y-7758292D01*
X-13258153Y-7783153D01*
X-13233292Y-7813446D01*
X-13214820Y-7848005D01*
X-13203445Y-7885501D01*
X-13199000Y-7930638D01*
X-13199000Y-8569362D01*
X-13203445Y-8614499D01*
X-13214820Y-8651995D01*
X-13233292Y-8686554D01*
X-13258153Y-8716847D01*
X-13288446Y-8741708D01*
X-13323005Y-8760180D01*
X-13360501Y-8771555D01*
X-13405638Y-8776000D01*
X-14144362Y-8776000D01*
X-14189499Y-8771555D01*
X-14226995Y-8760180D01*
X-14261554Y-8741708D01*
X-14291847Y-8716847D01*
X-14316708Y-8686554D01*
X-14335180Y-8651995D01*
X-14346555Y-8614499D01*
X-14351000Y-8569362D01*
X-14351000Y-7930638D01*
X-14346555Y-7885501D01*
X-14335180Y-7848005D01*
X-14316708Y-7813446D01*
X-14291847Y-7783153D01*
X-14261554Y-7758292D01*
X-14226995Y-7739820D01*
X-14189499Y-7728445D01*
X-14144362Y-7724000D01*
X-13405638Y-7724000D01*
X-13360501Y-7728445D01*
X-13360501Y-7728445D01*
G37*
G36*
X-11610501Y-7728445D02*
G01*
X-11573005Y-7739820D01*
X-11538446Y-7758292D01*
X-11508153Y-7783153D01*
X-11483292Y-7813446D01*
X-11464820Y-7848005D01*
X-11453445Y-7885501D01*
X-11449000Y-7930638D01*
X-11449000Y-8569362D01*
X-11453445Y-8614499D01*
X-11464820Y-8651995D01*
X-11483292Y-8686554D01*
X-11508153Y-8716847D01*
X-11538446Y-8741708D01*
X-11573005Y-8760180D01*
X-11610501Y-8771555D01*
X-11655638Y-8776000D01*
X-12394362Y-8776000D01*
X-12439499Y-8771555D01*
X-12476995Y-8760180D01*
X-12511554Y-8741708D01*
X-12541847Y-8716847D01*
X-12566708Y-8686554D01*
X-12585180Y-8651995D01*
X-12596555Y-8614499D01*
X-12601000Y-8569362D01*
X-12601000Y-7930638D01*
X-12596555Y-7885501D01*
X-12585180Y-7848005D01*
X-12566708Y-7813446D01*
X-12541847Y-7783153D01*
X-12511554Y-7758292D01*
X-12476995Y-7739820D01*
X-12439499Y-7728445D01*
X-12394362Y-7724000D01*
X-11655638Y-7724000D01*
X-11610501Y-7728445D01*
X-11610501Y-7728445D01*
G37*
G36*
X-7335501Y-7728445D02*
G01*
X-7298005Y-7739820D01*
X-7263446Y-7758292D01*
X-7233153Y-7783153D01*
X-7208292Y-7813446D01*
X-7189820Y-7848005D01*
X-7178445Y-7885501D01*
X-7174000Y-7930638D01*
X-7174000Y-8569362D01*
X-7178445Y-8614499D01*
X-7189820Y-8651995D01*
X-7208292Y-8686554D01*
X-7233153Y-8716847D01*
X-7263446Y-8741708D01*
X-7298005Y-8760180D01*
X-7335501Y-8771555D01*
X-7380638Y-8776000D01*
X-8119362Y-8776000D01*
X-8164499Y-8771555D01*
X-8201995Y-8760180D01*
X-8236554Y-8741708D01*
X-8266847Y-8716847D01*
X-8291708Y-8686554D01*
X-8310180Y-8651995D01*
X-8321555Y-8614499D01*
X-8326000Y-8569362D01*
X-8326000Y-7930638D01*
X-8321555Y-7885501D01*
X-8310180Y-7848005D01*
X-8291708Y-7813446D01*
X-8266847Y-7783153D01*
X-8236554Y-7758292D01*
X-8201995Y-7739820D01*
X-8164499Y-7728445D01*
X-8119362Y-7724000D01*
X-7380638Y-7724000D01*
X-7335501Y-7728445D01*
X-7335501Y-7728445D01*
G37*
G36*
X4914499Y-6228445D02*
G01*
X4951995Y-6239820D01*
X4986554Y-6258292D01*
X5016847Y-6283153D01*
X5041708Y-6313446D01*
X5060180Y-6348005D01*
X5071555Y-6385501D01*
X5076000Y-6430638D01*
X5076000Y-7069362D01*
X5071555Y-7114499D01*
X5060180Y-7151995D01*
X5041708Y-7186554D01*
X5016847Y-7216847D01*
X4986554Y-7241708D01*
X4951995Y-7260180D01*
X4914499Y-7271555D01*
X4869362Y-7276000D01*
X4130638Y-7276000D01*
X4085501Y-7271555D01*
X4048005Y-7260180D01*
X4013446Y-7241708D01*
X3983153Y-7216847D01*
X3958292Y-7186554D01*
X3939820Y-7151995D01*
X3928445Y-7114499D01*
X3924000Y-7069362D01*
X3924000Y-6430638D01*
X3928445Y-6385501D01*
X3939820Y-6348005D01*
X3958292Y-6313446D01*
X3983153Y-6283153D01*
X4013446Y-6258292D01*
X4048005Y-6239820D01*
X4085501Y-6228445D01*
X4130638Y-6224000D01*
X4869362Y-6224000D01*
X4914499Y-6228445D01*
X4914499Y-6228445D01*
G37*
G36*
X6664499Y-6228445D02*
G01*
X6701995Y-6239820D01*
X6736554Y-6258292D01*
X6766847Y-6283153D01*
X6791708Y-6313446D01*
X6810180Y-6348005D01*
X6821555Y-6385501D01*
X6826000Y-6430638D01*
X6826000Y-7069362D01*
X6821555Y-7114499D01*
X6810180Y-7151995D01*
X6791708Y-7186554D01*
X6766847Y-7216847D01*
X6736554Y-7241708D01*
X6701995Y-7260180D01*
X6664499Y-7271555D01*
X6619362Y-7276000D01*
X5880638Y-7276000D01*
X5835501Y-7271555D01*
X5798005Y-7260180D01*
X5763446Y-7241708D01*
X5733153Y-7216847D01*
X5708292Y-7186554D01*
X5689820Y-7151995D01*
X5678445Y-7114499D01*
X5674000Y-7069362D01*
X5674000Y-6430638D01*
X5678445Y-6385501D01*
X5689820Y-6348005D01*
X5708292Y-6313446D01*
X5733153Y-6283153D01*
X5763446Y-6258292D01*
X5798005Y-6239820D01*
X5835501Y-6228445D01*
X5880638Y-6224000D01*
X6619362Y-6224000D01*
X6664499Y-6228445D01*
X6664499Y-6228445D01*
G37*
G36*
X-9085501Y-5228445D02*
G01*
X-9048005Y-5239820D01*
X-9013446Y-5258292D01*
X-8983153Y-5283153D01*
X-8958292Y-5313446D01*
X-8939820Y-5348005D01*
X-8928445Y-5385501D01*
X-8924000Y-5430638D01*
X-8924000Y-6069362D01*
X-8928445Y-6114499D01*
X-8939820Y-6151995D01*
X-8958292Y-6186554D01*
X-8983153Y-6216847D01*
X-9013446Y-6241708D01*
X-9048005Y-6260180D01*
X-9085501Y-6271555D01*
X-9130638Y-6276000D01*
X-9869362Y-6276000D01*
X-9914499Y-6271555D01*
X-9951995Y-6260180D01*
X-9986554Y-6241708D01*
X-10016847Y-6216847D01*
X-10041708Y-6186554D01*
X-10060180Y-6151995D01*
X-10071555Y-6114499D01*
X-10076000Y-6069362D01*
X-10076000Y-5430638D01*
X-10071555Y-5385501D01*
X-10060180Y-5348005D01*
X-10041708Y-5313446D01*
X-10016847Y-5283153D01*
X-9986554Y-5258292D01*
X-9951995Y-5239820D01*
X-9914499Y-5228445D01*
X-9869362Y-5224000D01*
X-9130638Y-5224000D01*
X-9085501Y-5228445D01*
X-9085501Y-5228445D01*
G37*
G36*
X-13360501Y-5228445D02*
G01*
X-13323005Y-5239820D01*
X-13288446Y-5258292D01*
X-13258153Y-5283153D01*
X-13233292Y-5313446D01*
X-13214820Y-5348005D01*
X-13203445Y-5385501D01*
X-13199000Y-5430638D01*
X-13199000Y-6069362D01*
X-13203445Y-6114499D01*
X-13214820Y-6151995D01*
X-13233292Y-6186554D01*
X-13258153Y-6216847D01*
X-13288446Y-6241708D01*
X-13323005Y-6260180D01*
X-13360501Y-6271555D01*
X-13405638Y-6276000D01*
X-14144362Y-6276000D01*
X-14189499Y-6271555D01*
X-14226995Y-6260180D01*
X-14261554Y-6241708D01*
X-14291847Y-6216847D01*
X-14316708Y-6186554D01*
X-14335180Y-6151995D01*
X-14346555Y-6114499D01*
X-14351000Y-6069362D01*
X-14351000Y-5430638D01*
X-14346555Y-5385501D01*
X-14335180Y-5348005D01*
X-14316708Y-5313446D01*
X-14291847Y-5283153D01*
X-14261554Y-5258292D01*
X-14226995Y-5239820D01*
X-14189499Y-5228445D01*
X-14144362Y-5224000D01*
X-13405638Y-5224000D01*
X-13360501Y-5228445D01*
X-13360501Y-5228445D01*
G37*
G36*
X-11610501Y-5228445D02*
G01*
X-11573005Y-5239820D01*
X-11538446Y-5258292D01*
X-11508153Y-5283153D01*
X-11483292Y-5313446D01*
X-11464820Y-5348005D01*
X-11453445Y-5385501D01*
X-11449000Y-5430638D01*
X-11449000Y-6069362D01*
X-11453445Y-6114499D01*
X-11464820Y-6151995D01*
X-11483292Y-6186554D01*
X-11508153Y-6216847D01*
X-11538446Y-6241708D01*
X-11573005Y-6260180D01*
X-11610501Y-6271555D01*
X-11655638Y-6276000D01*
X-12394362Y-6276000D01*
X-12439499Y-6271555D01*
X-12476995Y-6260180D01*
X-12511554Y-6241708D01*
X-12541847Y-6216847D01*
X-12566708Y-6186554D01*
X-12585180Y-6151995D01*
X-12596555Y-6114499D01*
X-12601000Y-6069362D01*
X-12601000Y-5430638D01*
X-12596555Y-5385501D01*
X-12585180Y-5348005D01*
X-12566708Y-5313446D01*
X-12541847Y-5283153D01*
X-12511554Y-5258292D01*
X-12476995Y-5239820D01*
X-12439499Y-5228445D01*
X-12394362Y-5224000D01*
X-11655638Y-5224000D01*
X-11610501Y-5228445D01*
X-11610501Y-5228445D01*
G37*
G36*
X-7335501Y-5228445D02*
G01*
X-7298005Y-5239820D01*
X-7263446Y-5258292D01*
X-7233153Y-5283153D01*
X-7208292Y-5313446D01*
X-7189820Y-5348005D01*
X-7178445Y-5385501D01*
X-7174000Y-5430638D01*
X-7174000Y-6069362D01*
X-7178445Y-6114499D01*
X-7189820Y-6151995D01*
X-7208292Y-6186554D01*
X-7233153Y-6216847D01*
X-7263446Y-6241708D01*
X-7298005Y-6260180D01*
X-7335501Y-6271555D01*
X-7380638Y-6276000D01*
X-8119362Y-6276000D01*
X-8164499Y-6271555D01*
X-8201995Y-6260180D01*
X-8236554Y-6241708D01*
X-8266847Y-6216847D01*
X-8291708Y-6186554D01*
X-8310180Y-6151995D01*
X-8321555Y-6114499D01*
X-8326000Y-6069362D01*
X-8326000Y-5430638D01*
X-8321555Y-5385501D01*
X-8310180Y-5348005D01*
X-8291708Y-5313446D01*
X-8266847Y-5283153D01*
X-8236554Y-5258292D01*
X-8201995Y-5239820D01*
X-8164499Y-5228445D01*
X-8119362Y-5224000D01*
X-7380638Y-5224000D01*
X-7335501Y-5228445D01*
X-7335501Y-5228445D01*
G37*
G36*
X2664499Y-4518445D02*
G01*
X2701995Y-4529820D01*
X2736554Y-4548292D01*
X2766847Y-4573153D01*
X2791708Y-4603446D01*
X2810180Y-4638005D01*
X2821555Y-4675501D01*
X2826000Y-4720638D01*
X2826000Y-5359362D01*
X2821555Y-5404499D01*
X2810180Y-5441995D01*
X2791708Y-5476554D01*
X2766847Y-5506847D01*
X2736554Y-5531708D01*
X2701995Y-5550180D01*
X2664499Y-5561555D01*
X2619362Y-5566000D01*
X1880638Y-5566000D01*
X1835501Y-5561555D01*
X1798005Y-5550180D01*
X1763446Y-5531708D01*
X1733153Y-5506847D01*
X1708292Y-5476554D01*
X1689820Y-5441995D01*
X1678445Y-5404499D01*
X1674000Y-5359362D01*
X1674000Y-4720638D01*
X1678445Y-4675501D01*
X1689820Y-4638005D01*
X1708292Y-4603446D01*
X1733153Y-4573153D01*
X1763446Y-4548292D01*
X1798005Y-4529820D01*
X1835501Y-4518445D01*
X1880638Y-4514000D01*
X2619362Y-4514000D01*
X2664499Y-4518445D01*
X2664499Y-4518445D01*
G37*
G36*
X4414499Y-4518445D02*
G01*
X4451995Y-4529820D01*
X4486554Y-4548292D01*
X4516847Y-4573153D01*
X4541708Y-4603446D01*
X4560180Y-4638005D01*
X4571555Y-4675501D01*
X4576000Y-4720638D01*
X4576000Y-5359362D01*
X4571555Y-5404499D01*
X4560180Y-5441995D01*
X4541708Y-5476554D01*
X4516847Y-5506847D01*
X4486554Y-5531708D01*
X4451995Y-5550180D01*
X4414499Y-5561555D01*
X4369362Y-5566000D01*
X3630638Y-5566000D01*
X3585501Y-5561555D01*
X3548005Y-5550180D01*
X3513446Y-5531708D01*
X3483153Y-5506847D01*
X3458292Y-5476554D01*
X3439820Y-5441995D01*
X3428445Y-5404499D01*
X3424000Y-5359362D01*
X3424000Y-4720638D01*
X3428445Y-4675501D01*
X3439820Y-4638005D01*
X3458292Y-4603446D01*
X3483153Y-4573153D01*
X3513446Y-4548292D01*
X3548005Y-4529820D01*
X3585501Y-4518445D01*
X3630638Y-4514000D01*
X4369362Y-4514000D01*
X4414499Y-4518445D01*
X4414499Y-4518445D01*
G37*
G36*
X164499Y-4478445D02*
G01*
X201995Y-4489820D01*
X236554Y-4508292D01*
X266847Y-4533153D01*
X291708Y-4563446D01*
X310180Y-4598005D01*
X321555Y-4635501D01*
X326000Y-4680638D01*
X326000Y-5319362D01*
X321555Y-5364499D01*
X310180Y-5401995D01*
X291708Y-5436554D01*
X266847Y-5466847D01*
X236554Y-5491708D01*
X201995Y-5510180D01*
X164499Y-5521555D01*
X119362Y-5526000D01*
X-619362Y-5526000D01*
X-664499Y-5521555D01*
X-701995Y-5510180D01*
X-736554Y-5491708D01*
X-766847Y-5466847D01*
X-791708Y-5436554D01*
X-810180Y-5401995D01*
X-821555Y-5364499D01*
X-826000Y-5319362D01*
X-826000Y-4680638D01*
X-821555Y-4635501D01*
X-810180Y-4598005D01*
X-791708Y-4563446D01*
X-766847Y-4533153D01*
X-736554Y-4508292D01*
X-701995Y-4489820D01*
X-664499Y-4478445D01*
X-619362Y-4474000D01*
X119362Y-4474000D01*
X164499Y-4478445D01*
X164499Y-4478445D01*
G37*
G36*
X-1585501Y-4478445D02*
G01*
X-1548005Y-4489820D01*
X-1513446Y-4508292D01*
X-1483153Y-4533153D01*
X-1458292Y-4563446D01*
X-1439820Y-4598005D01*
X-1428445Y-4635501D01*
X-1424000Y-4680638D01*
X-1424000Y-5319362D01*
X-1428445Y-5364499D01*
X-1439820Y-5401995D01*
X-1458292Y-5436554D01*
X-1483153Y-5466847D01*
X-1513446Y-5491708D01*
X-1548005Y-5510180D01*
X-1585501Y-5521555D01*
X-1630638Y-5526000D01*
X-2369362Y-5526000D01*
X-2414499Y-5521555D01*
X-2451995Y-5510180D01*
X-2486554Y-5491708D01*
X-2516847Y-5466847D01*
X-2541708Y-5436554D01*
X-2560180Y-5401995D01*
X-2571555Y-5364499D01*
X-2576000Y-5319362D01*
X-2576000Y-4680638D01*
X-2571555Y-4635501D01*
X-2560180Y-4598005D01*
X-2541708Y-4563446D01*
X-2516847Y-4533153D01*
X-2486554Y-4508292D01*
X-2451995Y-4489820D01*
X-2414499Y-4478445D01*
X-2369362Y-4474000D01*
X-1630638Y-4474000D01*
X-1585501Y-4478445D01*
X-1585501Y-4478445D01*
G37*
G36*
X-7335501Y-3728445D02*
G01*
X-7298005Y-3739820D01*
X-7263446Y-3758292D01*
X-7233153Y-3783153D01*
X-7208292Y-3813446D01*
X-7189820Y-3848005D01*
X-7178445Y-3885501D01*
X-7174000Y-3930638D01*
X-7174000Y-4569362D01*
X-7178445Y-4614499D01*
X-7189820Y-4651995D01*
X-7208292Y-4686554D01*
X-7233153Y-4716847D01*
X-7263446Y-4741708D01*
X-7298005Y-4760180D01*
X-7335501Y-4771555D01*
X-7380638Y-4776000D01*
X-8119362Y-4776000D01*
X-8164499Y-4771555D01*
X-8201995Y-4760180D01*
X-8236554Y-4741708D01*
X-8266847Y-4716847D01*
X-8291708Y-4686554D01*
X-8310180Y-4651995D01*
X-8321555Y-4614499D01*
X-8326000Y-4569362D01*
X-8326000Y-3930638D01*
X-8321555Y-3885501D01*
X-8310180Y-3848005D01*
X-8291708Y-3813446D01*
X-8266847Y-3783153D01*
X-8236554Y-3758292D01*
X-8201995Y-3739820D01*
X-8164499Y-3728445D01*
X-8119362Y-3724000D01*
X-7380638Y-3724000D01*
X-7335501Y-3728445D01*
X-7335501Y-3728445D01*
G37*
G36*
X-11610501Y-3728445D02*
G01*
X-11573005Y-3739820D01*
X-11538446Y-3758292D01*
X-11508153Y-3783153D01*
X-11483292Y-3813446D01*
X-11464820Y-3848005D01*
X-11453445Y-3885501D01*
X-11449000Y-3930638D01*
X-11449000Y-4569362D01*
X-11453445Y-4614499D01*
X-11464820Y-4651995D01*
X-11483292Y-4686554D01*
X-11508153Y-4716847D01*
X-11538446Y-4741708D01*
X-11573005Y-4760180D01*
X-11610501Y-4771555D01*
X-11655638Y-4776000D01*
X-12394362Y-4776000D01*
X-12439499Y-4771555D01*
X-12476995Y-4760180D01*
X-12511554Y-4741708D01*
X-12541847Y-4716847D01*
X-12566708Y-4686554D01*
X-12585180Y-4651995D01*
X-12596555Y-4614499D01*
X-12601000Y-4569362D01*
X-12601000Y-3930638D01*
X-12596555Y-3885501D01*
X-12585180Y-3848005D01*
X-12566708Y-3813446D01*
X-12541847Y-3783153D01*
X-12511554Y-3758292D01*
X-12476995Y-3739820D01*
X-12439499Y-3728445D01*
X-12394362Y-3724000D01*
X-11655638Y-3724000D01*
X-11610501Y-3728445D01*
X-11610501Y-3728445D01*
G37*
G36*
X-13360501Y-3728445D02*
G01*
X-13323005Y-3739820D01*
X-13288446Y-3758292D01*
X-13258153Y-3783153D01*
X-13233292Y-3813446D01*
X-13214820Y-3848005D01*
X-13203445Y-3885501D01*
X-13199000Y-3930638D01*
X-13199000Y-4569362D01*
X-13203445Y-4614499D01*
X-13214820Y-4651995D01*
X-13233292Y-4686554D01*
X-13258153Y-4716847D01*
X-13288446Y-4741708D01*
X-13323005Y-4760180D01*
X-13360501Y-4771555D01*
X-13405638Y-4776000D01*
X-14144362Y-4776000D01*
X-14189499Y-4771555D01*
X-14226995Y-4760180D01*
X-14261554Y-4741708D01*
X-14291847Y-4716847D01*
X-14316708Y-4686554D01*
X-14335180Y-4651995D01*
X-14346555Y-4614499D01*
X-14351000Y-4569362D01*
X-14351000Y-3930638D01*
X-14346555Y-3885501D01*
X-14335180Y-3848005D01*
X-14316708Y-3813446D01*
X-14291847Y-3783153D01*
X-14261554Y-3758292D01*
X-14226995Y-3739820D01*
X-14189499Y-3728445D01*
X-14144362Y-3724000D01*
X-13405638Y-3724000D01*
X-13360501Y-3728445D01*
X-13360501Y-3728445D01*
G37*
G36*
X-9085501Y-3728445D02*
G01*
X-9048005Y-3739820D01*
X-9013446Y-3758292D01*
X-8983153Y-3783153D01*
X-8958292Y-3813446D01*
X-8939820Y-3848005D01*
X-8928445Y-3885501D01*
X-8924000Y-3930638D01*
X-8924000Y-4569362D01*
X-8928445Y-4614499D01*
X-8939820Y-4651995D01*
X-8958292Y-4686554D01*
X-8983153Y-4716847D01*
X-9013446Y-4741708D01*
X-9048005Y-4760180D01*
X-9085501Y-4771555D01*
X-9130638Y-4776000D01*
X-9869362Y-4776000D01*
X-9914499Y-4771555D01*
X-9951995Y-4760180D01*
X-9986554Y-4741708D01*
X-10016847Y-4716847D01*
X-10041708Y-4686554D01*
X-10060180Y-4651995D01*
X-10071555Y-4614499D01*
X-10076000Y-4569362D01*
X-10076000Y-3930638D01*
X-10071555Y-3885501D01*
X-10060180Y-3848005D01*
X-10041708Y-3813446D01*
X-10016847Y-3783153D01*
X-9986554Y-3758292D01*
X-9951995Y-3739820D01*
X-9914499Y-3728445D01*
X-9869362Y-3724000D01*
X-9130638Y-3724000D01*
X-9085501Y-3728445D01*
X-9085501Y-3728445D01*
G37*
G36*
X14579434Y-3428686D02*
G01*
X14619284Y-3440774D01*
X14655999Y-3460399D01*
X14688186Y-3486814D01*
X14714601Y-3519001D01*
X14734226Y-3555716D01*
X14746314Y-3595566D01*
X14751000Y-3643141D01*
X14751000Y-4306859D01*
X14746314Y-4354434D01*
X14734226Y-4394284D01*
X14714601Y-4430999D01*
X14688186Y-4463186D01*
X14655999Y-4489601D01*
X14619284Y-4509226D01*
X14579434Y-4521314D01*
X14531859Y-4526000D01*
X12168141Y-4526000D01*
X12120566Y-4521314D01*
X12080716Y-4509226D01*
X12044001Y-4489601D01*
X12011814Y-4463186D01*
X11985399Y-4430999D01*
X11965774Y-4394284D01*
X11953686Y-4354434D01*
X11949000Y-4306859D01*
X11949000Y-3643141D01*
X11953686Y-3595566D01*
X11965774Y-3555716D01*
X11985399Y-3519001D01*
X12011814Y-3486814D01*
X12044001Y-3460399D01*
X12080716Y-3440774D01*
X12120566Y-3428686D01*
X12168141Y-3424000D01*
X14531859Y-3424000D01*
X14579434Y-3428686D01*
X14579434Y-3428686D01*
G37*
G36*
X4409928Y-3096764D02*
G01*
X4431009Y-3103160D01*
X4450445Y-3113548D01*
X4467476Y-3127524D01*
X4481452Y-3144555D01*
X4491840Y-3163991D01*
X4498236Y-3185072D01*
X4501000Y-3213140D01*
X4501000Y-3676860D01*
X4498236Y-3704928D01*
X4491840Y-3726009D01*
X4481452Y-3745445D01*
X4467476Y-3762476D01*
X4450445Y-3776452D01*
X4431009Y-3786840D01*
X4409928Y-3793236D01*
X4381860Y-3796000D01*
X2568140Y-3796000D01*
X2540072Y-3793236D01*
X2518991Y-3786840D01*
X2499555Y-3776452D01*
X2482524Y-3762476D01*
X2468548Y-3745445D01*
X2458160Y-3726009D01*
X2451764Y-3704928D01*
X2449000Y-3676860D01*
X2449000Y-3213140D01*
X2451764Y-3185072D01*
X2458160Y-3163991D01*
X2468548Y-3144555D01*
X2482524Y-3127524D01*
X2499555Y-3113548D01*
X2518991Y-3103160D01*
X2540072Y-3096764D01*
X2568140Y-3094000D01*
X4381860Y-3094000D01*
X4409928Y-3096764D01*
X4409928Y-3096764D01*
G37*
G36*
X-540072Y-3096764D02*
G01*
X-518991Y-3103160D01*
X-499555Y-3113548D01*
X-482524Y-3127524D01*
X-468548Y-3144555D01*
X-458160Y-3163991D01*
X-451764Y-3185072D01*
X-449000Y-3213140D01*
X-449000Y-3676860D01*
X-451764Y-3704928D01*
X-458160Y-3726009D01*
X-468548Y-3745445D01*
X-482524Y-3762476D01*
X-499555Y-3776452D01*
X-518991Y-3786840D01*
X-540072Y-3793236D01*
X-568140Y-3796000D01*
X-2381860Y-3796000D01*
X-2409928Y-3793236D01*
X-2431009Y-3786840D01*
X-2450445Y-3776452D01*
X-2467476Y-3762476D01*
X-2481452Y-3745445D01*
X-2491840Y-3726009D01*
X-2498236Y-3704928D01*
X-2501000Y-3676860D01*
X-2501000Y-3213140D01*
X-2498236Y-3185072D01*
X-2491840Y-3163991D01*
X-2481452Y-3144555D01*
X-2467476Y-3127524D01*
X-2450445Y-3113548D01*
X-2431009Y-3103160D01*
X-2409928Y-3096764D01*
X-2381860Y-3094000D01*
X-568140Y-3094000D01*
X-540072Y-3096764D01*
X-540072Y-3096764D01*
G37*
G36*
X8414499Y-2478445D02*
G01*
X8451995Y-2489820D01*
X8486554Y-2508292D01*
X8516847Y-2533153D01*
X8541708Y-2563446D01*
X8560180Y-2598005D01*
X8571555Y-2635501D01*
X8576000Y-2680638D01*
X8576000Y-3319362D01*
X8571555Y-3364499D01*
X8560180Y-3401995D01*
X8541708Y-3436554D01*
X8516847Y-3466847D01*
X8486554Y-3491708D01*
X8451995Y-3510180D01*
X8414499Y-3521555D01*
X8369362Y-3526000D01*
X7630638Y-3526000D01*
X7585501Y-3521555D01*
X7548005Y-3510180D01*
X7513446Y-3491708D01*
X7483153Y-3466847D01*
X7458292Y-3436554D01*
X7439820Y-3401995D01*
X7428445Y-3364499D01*
X7424000Y-3319362D01*
X7424000Y-2680638D01*
X7428445Y-2635501D01*
X7439820Y-2598005D01*
X7458292Y-2563446D01*
X7483153Y-2533153D01*
X7513446Y-2508292D01*
X7548005Y-2489820D01*
X7585501Y-2478445D01*
X7630638Y-2474000D01*
X8369362Y-2474000D01*
X8414499Y-2478445D01*
X8414499Y-2478445D01*
G37*
G36*
X6664499Y-2478445D02*
G01*
X6701995Y-2489820D01*
X6736554Y-2508292D01*
X6766847Y-2533153D01*
X6791708Y-2563446D01*
X6810180Y-2598005D01*
X6821555Y-2635501D01*
X6826000Y-2680638D01*
X6826000Y-3319362D01*
X6821555Y-3364499D01*
X6810180Y-3401995D01*
X6791708Y-3436554D01*
X6766847Y-3466847D01*
X6736554Y-3491708D01*
X6701995Y-3510180D01*
X6664499Y-3521555D01*
X6619362Y-3526000D01*
X5880638Y-3526000D01*
X5835501Y-3521555D01*
X5798005Y-3510180D01*
X5763446Y-3491708D01*
X5733153Y-3466847D01*
X5708292Y-3436554D01*
X5689820Y-3401995D01*
X5678445Y-3364499D01*
X5674000Y-3319362D01*
X5674000Y-2680638D01*
X5678445Y-2635501D01*
X5689820Y-2598005D01*
X5708292Y-2563446D01*
X5733153Y-2533153D01*
X5763446Y-2508292D01*
X5798005Y-2489820D01*
X5835501Y-2478445D01*
X5880638Y-2474000D01*
X6619362Y-2474000D01*
X6664499Y-2478445D01*
X6664499Y-2478445D01*
G37*
G36*
X-11610501Y-2228445D02*
G01*
X-11573005Y-2239820D01*
X-11538446Y-2258292D01*
X-11508153Y-2283153D01*
X-11483292Y-2313446D01*
X-11464820Y-2348005D01*
X-11453445Y-2385501D01*
X-11449000Y-2430638D01*
X-11449000Y-3069362D01*
X-11453445Y-3114499D01*
X-11464820Y-3151995D01*
X-11483292Y-3186554D01*
X-11508153Y-3216847D01*
X-11538446Y-3241708D01*
X-11573005Y-3260180D01*
X-11610501Y-3271555D01*
X-11655638Y-3276000D01*
X-12394362Y-3276000D01*
X-12439499Y-3271555D01*
X-12476995Y-3260180D01*
X-12511554Y-3241708D01*
X-12541847Y-3216847D01*
X-12566708Y-3186554D01*
X-12585180Y-3151995D01*
X-12596555Y-3114499D01*
X-12601000Y-3069362D01*
X-12601000Y-2430638D01*
X-12596555Y-2385501D01*
X-12585180Y-2348005D01*
X-12566708Y-2313446D01*
X-12541847Y-2283153D01*
X-12511554Y-2258292D01*
X-12476995Y-2239820D01*
X-12439499Y-2228445D01*
X-12394362Y-2224000D01*
X-11655638Y-2224000D01*
X-11610501Y-2228445D01*
X-11610501Y-2228445D01*
G37*
G36*
X-7335502Y-2228445D02*
G01*
X-7298006Y-2239820D01*
X-7263447Y-2258292D01*
X-7233154Y-2283153D01*
X-7208293Y-2313446D01*
X-7189821Y-2348005D01*
X-7178446Y-2385501D01*
X-7174001Y-2430638D01*
X-7174001Y-3069362D01*
X-7178446Y-3114499D01*
X-7189821Y-3151995D01*
X-7208293Y-3186554D01*
X-7233154Y-3216847D01*
X-7263447Y-3241708D01*
X-7298006Y-3260180D01*
X-7335502Y-3271555D01*
X-7380639Y-3276000D01*
X-8119363Y-3276000D01*
X-8164500Y-3271555D01*
X-8201996Y-3260180D01*
X-8236555Y-3241708D01*
X-8266848Y-3216847D01*
X-8291709Y-3186554D01*
X-8310181Y-3151995D01*
X-8321556Y-3114499D01*
X-8326001Y-3069362D01*
X-8326001Y-2430638D01*
X-8321556Y-2385501D01*
X-8310181Y-2348005D01*
X-8291709Y-2313446D01*
X-8266848Y-2283153D01*
X-8236555Y-2258292D01*
X-8201996Y-2239820D01*
X-8164500Y-2228445D01*
X-8119363Y-2224000D01*
X-7380639Y-2224000D01*
X-7335502Y-2228445D01*
X-7335502Y-2228445D01*
G37*
G36*
X-13360501Y-2228445D02*
G01*
X-13323005Y-2239820D01*
X-13288446Y-2258292D01*
X-13258153Y-2283153D01*
X-13233292Y-2313446D01*
X-13214820Y-2348005D01*
X-13203445Y-2385501D01*
X-13199000Y-2430638D01*
X-13199000Y-3069362D01*
X-13203445Y-3114499D01*
X-13214820Y-3151995D01*
X-13233292Y-3186554D01*
X-13258153Y-3216847D01*
X-13288446Y-3241708D01*
X-13323005Y-3260180D01*
X-13360501Y-3271555D01*
X-13405638Y-3276000D01*
X-14144362Y-3276000D01*
X-14189499Y-3271555D01*
X-14226995Y-3260180D01*
X-14261554Y-3241708D01*
X-14291847Y-3216847D01*
X-14316708Y-3186554D01*
X-14335180Y-3151995D01*
X-14346555Y-3114499D01*
X-14351000Y-3069362D01*
X-14351000Y-2430638D01*
X-14346555Y-2385501D01*
X-14335180Y-2348005D01*
X-14316708Y-2313446D01*
X-14291847Y-2283153D01*
X-14261554Y-2258292D01*
X-14226995Y-2239820D01*
X-14189499Y-2228445D01*
X-14144362Y-2224000D01*
X-13405638Y-2224000D01*
X-13360501Y-2228445D01*
X-13360501Y-2228445D01*
G37*
G36*
X-9085502Y-2228445D02*
G01*
X-9048006Y-2239820D01*
X-9013447Y-2258292D01*
X-8983154Y-2283153D01*
X-8958293Y-2313446D01*
X-8939821Y-2348005D01*
X-8928446Y-2385501D01*
X-8924001Y-2430638D01*
X-8924001Y-3069362D01*
X-8928446Y-3114499D01*
X-8939821Y-3151995D01*
X-8958293Y-3186554D01*
X-8983154Y-3216847D01*
X-9013447Y-3241708D01*
X-9048006Y-3260180D01*
X-9085502Y-3271555D01*
X-9130639Y-3276000D01*
X-9869363Y-3276000D01*
X-9914500Y-3271555D01*
X-9951996Y-3260180D01*
X-9986555Y-3241708D01*
X-10016848Y-3216847D01*
X-10041709Y-3186554D01*
X-10060181Y-3151995D01*
X-10071556Y-3114499D01*
X-10076001Y-3069362D01*
X-10076001Y-2430638D01*
X-10071556Y-2385501D01*
X-10060181Y-2348005D01*
X-10041709Y-2313446D01*
X-10016848Y-2283153D01*
X-9986555Y-2258292D01*
X-9951996Y-2239820D01*
X-9914500Y-2228445D01*
X-9869363Y-2224000D01*
X-9130639Y-2224000D01*
X-9085502Y-2228445D01*
X-9085502Y-2228445D01*
G37*
G36*
X-5135501Y-1803445D02*
G01*
X-5098005Y-1814820D01*
X-5063446Y-1833292D01*
X-5033153Y-1858153D01*
X-5008292Y-1888446D01*
X-4989820Y-1923005D01*
X-4978445Y-1960501D01*
X-4974000Y-2005638D01*
X-4974000Y-2744362D01*
X-4978445Y-2789499D01*
X-4989820Y-2826995D01*
X-5008292Y-2861554D01*
X-5033153Y-2891847D01*
X-5063446Y-2916708D01*
X-5098005Y-2935180D01*
X-5135501Y-2946555D01*
X-5180638Y-2951000D01*
X-5819362Y-2951000D01*
X-5864499Y-2946555D01*
X-5901995Y-2935180D01*
X-5936554Y-2916708D01*
X-5966847Y-2891847D01*
X-5991708Y-2861554D01*
X-6010180Y-2826995D01*
X-6021555Y-2789499D01*
X-6026000Y-2744362D01*
X-6026000Y-2005638D01*
X-6021555Y-1960501D01*
X-6010180Y-1923005D01*
X-5991708Y-1888446D01*
X-5966847Y-1858153D01*
X-5936554Y-1833292D01*
X-5901995Y-1814820D01*
X-5864499Y-1803445D01*
X-5819362Y-1799000D01*
X-5180638Y-1799000D01*
X-5135501Y-1803445D01*
X-5135501Y-1803445D01*
G37*
G36*
X-3635501Y-1803445D02*
G01*
X-3598005Y-1814820D01*
X-3563446Y-1833292D01*
X-3533153Y-1858153D01*
X-3508292Y-1888446D01*
X-3489820Y-1923005D01*
X-3478445Y-1960501D01*
X-3474000Y-2005638D01*
X-3474000Y-2744362D01*
X-3478445Y-2789499D01*
X-3489820Y-2826995D01*
X-3508292Y-2861554D01*
X-3533153Y-2891847D01*
X-3563446Y-2916708D01*
X-3598005Y-2935180D01*
X-3635501Y-2946555D01*
X-3680638Y-2951000D01*
X-4319362Y-2951000D01*
X-4364499Y-2946555D01*
X-4401995Y-2935180D01*
X-4436554Y-2916708D01*
X-4466847Y-2891847D01*
X-4491708Y-2861554D01*
X-4510180Y-2826995D01*
X-4521555Y-2789499D01*
X-4526000Y-2744362D01*
X-4526000Y-2005638D01*
X-4521555Y-1960501D01*
X-4510180Y-1923005D01*
X-4491708Y-1888446D01*
X-4466847Y-1858153D01*
X-4436554Y-1833292D01*
X-4401995Y-1814820D01*
X-4364499Y-1803445D01*
X-4319362Y-1799000D01*
X-3680638Y-1799000D01*
X-3635501Y-1803445D01*
X-3635501Y-1803445D01*
G37*
G36*
X-540072Y-1826764D02*
G01*
X-518991Y-1833160D01*
X-499555Y-1843548D01*
X-482524Y-1857524D01*
X-468548Y-1874555D01*
X-458160Y-1893991D01*
X-451764Y-1915072D01*
X-449000Y-1943140D01*
X-449000Y-2406860D01*
X-451764Y-2434928D01*
X-458160Y-2456009D01*
X-468548Y-2475445D01*
X-482524Y-2492476D01*
X-499555Y-2506452D01*
X-518991Y-2516840D01*
X-540072Y-2523236D01*
X-568140Y-2526000D01*
X-2381860Y-2526000D01*
X-2409928Y-2523236D01*
X-2431009Y-2516840D01*
X-2450445Y-2506452D01*
X-2467476Y-2492476D01*
X-2481452Y-2475445D01*
X-2491840Y-2456009D01*
X-2498236Y-2434928D01*
X-2501000Y-2406860D01*
X-2501000Y-1943140D01*
X-2498236Y-1915072D01*
X-2491840Y-1893991D01*
X-2481452Y-1874555D01*
X-2467476Y-1857524D01*
X-2450445Y-1843548D01*
X-2431009Y-1833160D01*
X-2409928Y-1826764D01*
X-2381860Y-1824000D01*
X-568140Y-1824000D01*
X-540072Y-1826764D01*
X-540072Y-1826764D01*
G37*
G36*
X4409928Y-1826764D02*
G01*
X4431009Y-1833160D01*
X4450445Y-1843548D01*
X4467476Y-1857524D01*
X4481452Y-1874555D01*
X4491840Y-1893991D01*
X4498236Y-1915072D01*
X4501000Y-1943140D01*
X4501000Y-2406860D01*
X4498236Y-2434928D01*
X4491840Y-2456009D01*
X4481452Y-2475445D01*
X4467476Y-2492476D01*
X4450445Y-2506452D01*
X4431009Y-2516840D01*
X4409928Y-2523236D01*
X4381860Y-2526000D01*
X2568140Y-2526000D01*
X2540072Y-2523236D01*
X2518991Y-2516840D01*
X2499555Y-2506452D01*
X2482524Y-2492476D01*
X2468548Y-2475445D01*
X2458160Y-2456009D01*
X2451764Y-2434928D01*
X2449000Y-2406860D01*
X2449000Y-1943140D01*
X2451764Y-1915072D01*
X2458160Y-1893991D01*
X2468548Y-1874555D01*
X2482524Y-1857524D01*
X2499555Y-1843548D01*
X2518991Y-1833160D01*
X2540072Y-1826764D01*
X2568140Y-1824000D01*
X4381860Y-1824000D01*
X4409928Y-1826764D01*
X4409928Y-1826764D01*
G37*
G36*
X10959928Y-1776764D02*
G01*
X10981009Y-1783160D01*
X11000445Y-1793548D01*
X11017476Y-1807524D01*
X11031452Y-1824555D01*
X11041840Y-1843991D01*
X11048236Y-1865072D01*
X11051000Y-1893140D01*
X11051000Y-2356860D01*
X11048236Y-2384928D01*
X11041840Y-2406009D01*
X11031452Y-2425445D01*
X11017476Y-2442476D01*
X11000445Y-2456452D01*
X10981009Y-2466840D01*
X10959928Y-2473236D01*
X10931860Y-2476000D01*
X9368140Y-2476000D01*
X9340072Y-2473236D01*
X9318991Y-2466840D01*
X9299555Y-2456452D01*
X9282524Y-2442476D01*
X9268548Y-2425445D01*
X9258160Y-2406009D01*
X9251764Y-2384928D01*
X9249000Y-2356860D01*
X9249000Y-1893140D01*
X9251764Y-1865072D01*
X9258160Y-1843991D01*
X9268548Y-1824555D01*
X9282524Y-1807524D01*
X9299555Y-1793548D01*
X9318991Y-1783160D01*
X9340072Y-1776764D01*
X9368140Y-1774000D01*
X10931860Y-1774000D01*
X10959928Y-1776764D01*
X10959928Y-1776764D01*
G37*
G36*
X6664499Y-978445D02*
G01*
X6701995Y-989820D01*
X6736554Y-1008292D01*
X6766847Y-1033153D01*
X6791708Y-1063446D01*
X6810180Y-1098005D01*
X6821555Y-1135501D01*
X6826000Y-1180638D01*
X6826000Y-1819362D01*
X6821555Y-1864499D01*
X6810180Y-1901995D01*
X6791708Y-1936554D01*
X6766847Y-1966847D01*
X6736554Y-1991708D01*
X6701995Y-2010180D01*
X6664499Y-2021555D01*
X6619362Y-2026000D01*
X5880638Y-2026000D01*
X5835501Y-2021555D01*
X5798005Y-2010180D01*
X5763446Y-1991708D01*
X5733153Y-1966847D01*
X5708292Y-1936554D01*
X5689820Y-1901995D01*
X5678445Y-1864499D01*
X5674000Y-1819362D01*
X5674000Y-1180638D01*
X5678445Y-1135501D01*
X5689820Y-1098005D01*
X5708292Y-1063446D01*
X5733153Y-1033153D01*
X5763446Y-1008292D01*
X5798005Y-989820D01*
X5835501Y-978445D01*
X5880638Y-974000D01*
X6619362Y-974000D01*
X6664499Y-978445D01*
X6664499Y-978445D01*
G37*
G36*
X8414499Y-978445D02*
G01*
X8451995Y-989820D01*
X8486554Y-1008292D01*
X8516847Y-1033153D01*
X8541708Y-1063446D01*
X8560180Y-1098005D01*
X8571555Y-1135501D01*
X8576000Y-1180638D01*
X8576000Y-1819362D01*
X8571555Y-1864499D01*
X8560180Y-1901995D01*
X8541708Y-1936554D01*
X8516847Y-1966847D01*
X8486554Y-1991708D01*
X8451995Y-2010180D01*
X8414499Y-2021555D01*
X8369362Y-2026000D01*
X7630638Y-2026000D01*
X7585501Y-2021555D01*
X7548005Y-2010180D01*
X7513446Y-1991708D01*
X7483153Y-1966847D01*
X7458292Y-1936554D01*
X7439820Y-1901995D01*
X7428445Y-1864499D01*
X7424000Y-1819362D01*
X7424000Y-1180638D01*
X7428445Y-1135501D01*
X7439820Y-1098005D01*
X7458292Y-1063446D01*
X7483153Y-1033153D01*
X7513446Y-1008292D01*
X7548005Y-989820D01*
X7585501Y-978445D01*
X7630638Y-974000D01*
X8369362Y-974000D01*
X8414499Y-978445D01*
X8414499Y-978445D01*
G37*
G36*
X-540072Y-556764D02*
G01*
X-518991Y-563160D01*
X-499555Y-573548D01*
X-482524Y-587524D01*
X-468548Y-604555D01*
X-458160Y-623991D01*
X-451764Y-645072D01*
X-449000Y-673140D01*
X-449000Y-1136860D01*
X-451764Y-1164928D01*
X-458160Y-1186009D01*
X-468548Y-1205445D01*
X-482524Y-1222476D01*
X-499555Y-1236452D01*
X-518991Y-1246840D01*
X-540072Y-1253236D01*
X-568140Y-1256000D01*
X-2381860Y-1256000D01*
X-2409928Y-1253236D01*
X-2431009Y-1246840D01*
X-2450445Y-1236452D01*
X-2467476Y-1222476D01*
X-2481452Y-1205445D01*
X-2491840Y-1186009D01*
X-2498236Y-1164928D01*
X-2501000Y-1136860D01*
X-2501000Y-673140D01*
X-2498236Y-645072D01*
X-2491840Y-623991D01*
X-2481452Y-604555D01*
X-2467476Y-587524D01*
X-2450445Y-573548D01*
X-2431009Y-563160D01*
X-2409928Y-556764D01*
X-2381860Y-554000D01*
X-568140Y-554000D01*
X-540072Y-556764D01*
X-540072Y-556764D01*
G37*
G36*
X4409928Y-556764D02*
G01*
X4431009Y-563160D01*
X4450445Y-573548D01*
X4467476Y-587524D01*
X4481452Y-604555D01*
X4491840Y-623991D01*
X4498236Y-645072D01*
X4501000Y-673140D01*
X4501000Y-1136860D01*
X4498236Y-1164928D01*
X4491840Y-1186009D01*
X4481452Y-1205445D01*
X4467476Y-1222476D01*
X4450445Y-1236452D01*
X4431009Y-1246840D01*
X4409928Y-1253236D01*
X4381860Y-1256000D01*
X2568140Y-1256000D01*
X2540072Y-1253236D01*
X2518991Y-1246840D01*
X2499555Y-1236452D01*
X2482524Y-1222476D01*
X2468548Y-1205445D01*
X2458160Y-1186009D01*
X2451764Y-1164928D01*
X2449000Y-1136860D01*
X2449000Y-673140D01*
X2451764Y-645072D01*
X2458160Y-623991D01*
X2468548Y-604555D01*
X2482524Y-587524D01*
X2499555Y-573548D01*
X2518991Y-563160D01*
X2540072Y-556764D01*
X2568140Y-554000D01*
X4381860Y-554000D01*
X4409928Y-556764D01*
X4409928Y-556764D01*
G37*
G36*
X10959928Y-526764D02*
G01*
X10981009Y-533160D01*
X11000445Y-543548D01*
X11017476Y-557524D01*
X11031452Y-574555D01*
X11041840Y-593991D01*
X11048236Y-615072D01*
X11051000Y-643140D01*
X11051000Y-1106860D01*
X11048236Y-1134928D01*
X11041840Y-1156009D01*
X11031452Y-1175445D01*
X11017476Y-1192476D01*
X11000445Y-1206452D01*
X10981009Y-1216840D01*
X10959928Y-1223236D01*
X10931860Y-1226000D01*
X9368140Y-1226000D01*
X9340072Y-1223236D01*
X9318991Y-1216840D01*
X9299555Y-1206452D01*
X9282524Y-1192476D01*
X9268548Y-1175445D01*
X9258160Y-1156009D01*
X9251764Y-1134928D01*
X9249000Y-1106860D01*
X9249000Y-643140D01*
X9251764Y-615072D01*
X9258160Y-593991D01*
X9268548Y-574555D01*
X9282524Y-557524D01*
X9299555Y-543548D01*
X9318991Y-533160D01*
X9340072Y-526764D01*
X9368140Y-524000D01*
X10931860Y-524000D01*
X10959928Y-526764D01*
X10959928Y-526764D01*
G37*
G36*
X-3635501Y-53445D02*
G01*
X-3598005Y-64820D01*
X-3563446Y-83292D01*
X-3533153Y-108153D01*
X-3508292Y-138446D01*
X-3489820Y-173005D01*
X-3478445Y-210501D01*
X-3474000Y-255638D01*
X-3474000Y-994362D01*
X-3478445Y-1039499D01*
X-3489820Y-1076995D01*
X-3508292Y-1111554D01*
X-3533153Y-1141847D01*
X-3563446Y-1166708D01*
X-3598005Y-1185180D01*
X-3635501Y-1196555D01*
X-3680638Y-1201000D01*
X-4319362Y-1201000D01*
X-4364499Y-1196555D01*
X-4401995Y-1185180D01*
X-4436554Y-1166708D01*
X-4466847Y-1141847D01*
X-4491708Y-1111554D01*
X-4510180Y-1076995D01*
X-4521555Y-1039499D01*
X-4526000Y-994362D01*
X-4526000Y-255638D01*
X-4521555Y-210501D01*
X-4510180Y-173005D01*
X-4491708Y-138446D01*
X-4466847Y-108153D01*
X-4436554Y-83292D01*
X-4401995Y-64820D01*
X-4364499Y-53445D01*
X-4319362Y-49000D01*
X-3680638Y-49000D01*
X-3635501Y-53445D01*
X-3635501Y-53445D01*
G37*
G36*
X-5135501Y-53445D02*
G01*
X-5098005Y-64820D01*
X-5063446Y-83292D01*
X-5033153Y-108153D01*
X-5008292Y-138446D01*
X-4989820Y-173005D01*
X-4978445Y-210501D01*
X-4974000Y-255638D01*
X-4974000Y-994362D01*
X-4978445Y-1039499D01*
X-4989820Y-1076995D01*
X-5008292Y-1111554D01*
X-5033153Y-1141847D01*
X-5063446Y-1166708D01*
X-5098005Y-1185180D01*
X-5135501Y-1196555D01*
X-5180638Y-1201000D01*
X-5819362Y-1201000D01*
X-5864499Y-1196555D01*
X-5901995Y-1185180D01*
X-5936554Y-1166708D01*
X-5966847Y-1141847D01*
X-5991708Y-1111554D01*
X-6010180Y-1076995D01*
X-6021555Y-1039499D01*
X-6026000Y-994362D01*
X-6026000Y-255638D01*
X-6021555Y-210501D01*
X-6010180Y-173005D01*
X-5991708Y-138446D01*
X-5966847Y-108153D01*
X-5936554Y-83292D01*
X-5901995Y-64820D01*
X-5864499Y-53445D01*
X-5819362Y-49000D01*
X-5180638Y-49000D01*
X-5135501Y-53445D01*
X-5135501Y-53445D01*
G37*
G36*
X8414499Y521555D02*
G01*
X8451995Y510180D01*
X8486554Y491708D01*
X8516847Y466847D01*
X8541708Y436554D01*
X8560180Y401995D01*
X8571555Y364499D01*
X8576000Y319362D01*
X8576000Y-319362D01*
X8571555Y-364499D01*
X8560180Y-401995D01*
X8541708Y-436554D01*
X8516847Y-466847D01*
X8486554Y-491708D01*
X8451995Y-510180D01*
X8414499Y-521555D01*
X8369362Y-526000D01*
X7630638Y-526000D01*
X7585501Y-521555D01*
X7548005Y-510180D01*
X7513446Y-491708D01*
X7483153Y-466847D01*
X7458292Y-436554D01*
X7439820Y-401995D01*
X7428445Y-364499D01*
X7424000Y-319362D01*
X7424000Y319362D01*
X7428445Y364499D01*
X7439820Y401995D01*
X7458292Y436554D01*
X7483153Y466847D01*
X7513446Y491708D01*
X7548005Y510180D01*
X7585501Y521555D01*
X7630638Y526000D01*
X8369362Y526000D01*
X8414499Y521555D01*
X8414499Y521555D01*
G37*
G36*
X6664499Y521555D02*
G01*
X6701995Y510180D01*
X6736554Y491708D01*
X6766847Y466847D01*
X6791708Y436554D01*
X6810180Y401995D01*
X6821555Y364499D01*
X6826000Y319362D01*
X6826000Y-319362D01*
X6821555Y-364499D01*
X6810180Y-401995D01*
X6791708Y-436554D01*
X6766847Y-466847D01*
X6736554Y-491708D01*
X6701995Y-510180D01*
X6664499Y-521555D01*
X6619362Y-526000D01*
X5880638Y-526000D01*
X5835501Y-521555D01*
X5798005Y-510180D01*
X5763446Y-491708D01*
X5733153Y-466847D01*
X5708292Y-436554D01*
X5689820Y-401995D01*
X5678445Y-364499D01*
X5674000Y-319362D01*
X5674000Y319362D01*
X5678445Y364499D01*
X5689820Y401995D01*
X5708292Y436554D01*
X5733153Y466847D01*
X5763446Y491708D01*
X5798005Y510180D01*
X5835501Y521555D01*
X5880638Y526000D01*
X6619362Y526000D01*
X6664499Y521555D01*
X6664499Y521555D01*
G37*
G36*
X-10335501Y1021555D02*
G01*
X-10298005Y1010180D01*
X-10263446Y991708D01*
X-10233153Y966847D01*
X-10208292Y936554D01*
X-10189820Y901995D01*
X-10178445Y864499D01*
X-10174000Y819362D01*
X-10174000Y180638D01*
X-10178445Y135501D01*
X-10189820Y98005D01*
X-10208292Y63446D01*
X-10233153Y33153D01*
X-10263446Y8292D01*
X-10298005Y-10180D01*
X-10335501Y-21555D01*
X-10380638Y-26000D01*
X-11119362Y-26000D01*
X-11164499Y-21555D01*
X-11201995Y-10180D01*
X-11236554Y8292D01*
X-11266847Y33153D01*
X-11291708Y63446D01*
X-11310180Y98005D01*
X-11321555Y135501D01*
X-11326000Y180638D01*
X-11326000Y819362D01*
X-11321555Y864499D01*
X-11310180Y901995D01*
X-11291708Y936554D01*
X-11266847Y966847D01*
X-11236554Y991708D01*
X-11201995Y1010180D01*
X-11164499Y1021555D01*
X-11119362Y1026000D01*
X-10380638Y1026000D01*
X-10335501Y1021555D01*
X-10335501Y1021555D01*
G37*
G36*
X-8585501Y1021555D02*
G01*
X-8548005Y1010180D01*
X-8513446Y991708D01*
X-8483153Y966847D01*
X-8458292Y936554D01*
X-8439820Y901995D01*
X-8428445Y864499D01*
X-8424000Y819362D01*
X-8424000Y180638D01*
X-8428445Y135501D01*
X-8439820Y98005D01*
X-8458292Y63446D01*
X-8483153Y33153D01*
X-8513446Y8292D01*
X-8548005Y-10180D01*
X-8585501Y-21555D01*
X-8630638Y-26000D01*
X-9369362Y-26000D01*
X-9414499Y-21555D01*
X-9451995Y-10180D01*
X-9486554Y8292D01*
X-9516847Y33153D01*
X-9541708Y63446D01*
X-9560180Y98005D01*
X-9571555Y135501D01*
X-9576000Y180638D01*
X-9576000Y819362D01*
X-9571555Y864499D01*
X-9560180Y901995D01*
X-9541708Y936554D01*
X-9516847Y966847D01*
X-9486554Y991708D01*
X-9451995Y1010180D01*
X-9414499Y1021555D01*
X-9369362Y1026000D01*
X-8630638Y1026000D01*
X-8585501Y1021555D01*
X-8585501Y1021555D01*
G37*
G36*
X4409928Y713236D02*
G01*
X4431009Y706840D01*
X4450445Y696452D01*
X4467476Y682476D01*
X4481452Y665445D01*
X4491840Y646009D01*
X4498236Y624928D01*
X4501000Y596860D01*
X4501000Y133140D01*
X4498236Y105072D01*
X4491840Y83991D01*
X4481452Y64555D01*
X4467476Y47524D01*
X4450445Y33548D01*
X4431009Y23160D01*
X4409928Y16764D01*
X4381860Y14000D01*
X2568140Y14000D01*
X2540072Y16764D01*
X2518991Y23160D01*
X2499555Y33548D01*
X2482524Y47524D01*
X2468548Y64555D01*
X2458160Y83991D01*
X2451764Y105072D01*
X2449000Y133140D01*
X2449000Y596860D01*
X2451764Y624928D01*
X2458160Y646009D01*
X2468548Y665445D01*
X2482524Y682476D01*
X2499555Y696452D01*
X2518991Y706840D01*
X2540072Y713236D01*
X2568140Y716000D01*
X4381860Y716000D01*
X4409928Y713236D01*
X4409928Y713236D01*
G37*
G36*
X-540072Y713236D02*
G01*
X-518991Y706840D01*
X-499555Y696452D01*
X-482524Y682476D01*
X-468548Y665445D01*
X-458160Y646009D01*
X-451764Y624928D01*
X-449000Y596860D01*
X-449000Y133140D01*
X-451764Y105072D01*
X-458160Y83991D01*
X-468548Y64555D01*
X-482524Y47524D01*
X-499555Y33548D01*
X-518991Y23160D01*
X-540072Y16764D01*
X-568140Y14000D01*
X-2381860Y14000D01*
X-2409928Y16764D01*
X-2431009Y23160D01*
X-2450445Y33548D01*
X-2467476Y47524D01*
X-2481452Y64555D01*
X-2491840Y83991D01*
X-2498236Y105072D01*
X-2501000Y133140D01*
X-2501000Y596860D01*
X-2498236Y624928D01*
X-2491840Y646009D01*
X-2481452Y665445D01*
X-2467476Y682476D01*
X-2450445Y696452D01*
X-2431009Y706840D01*
X-2409928Y713236D01*
X-2381860Y716000D01*
X-568140Y716000D01*
X-540072Y713236D01*
X-540072Y713236D01*
G37*
G36*
X14579434Y1521314D02*
G01*
X14619284Y1509226D01*
X14655999Y1489601D01*
X14688186Y1463186D01*
X14714601Y1430999D01*
X14734226Y1394284D01*
X14746314Y1354434D01*
X14751000Y1306859D01*
X14751000Y643141D01*
X14746314Y595566D01*
X14734226Y555716D01*
X14714601Y519001D01*
X14688186Y486814D01*
X14655999Y460399D01*
X14619284Y440774D01*
X14579434Y428686D01*
X14531859Y424000D01*
X12168141Y424000D01*
X12120566Y428686D01*
X12080716Y440774D01*
X12044001Y460399D01*
X12011814Y486814D01*
X11985399Y519001D01*
X11965774Y555716D01*
X11953686Y595566D01*
X11949000Y643141D01*
X11949000Y1306859D01*
X11953686Y1354434D01*
X11965774Y1394284D01*
X11985399Y1430999D01*
X12011814Y1463186D01*
X12044001Y1489601D01*
X12080716Y1509226D01*
X12120566Y1521314D01*
X12168141Y1526000D01*
X14531859Y1526000D01*
X14579434Y1521314D01*
X14579434Y1521314D01*
G37*
G36*
X2664499Y2481555D02*
G01*
X2701995Y2470180D01*
X2736554Y2451708D01*
X2766847Y2426847D01*
X2791708Y2396554D01*
X2810180Y2361995D01*
X2821555Y2324499D01*
X2826000Y2279362D01*
X2826000Y1640638D01*
X2821555Y1595501D01*
X2810180Y1558005D01*
X2791708Y1523446D01*
X2766847Y1493153D01*
X2736554Y1468292D01*
X2701995Y1449820D01*
X2664499Y1438445D01*
X2619362Y1434000D01*
X1880638Y1434000D01*
X1835501Y1438445D01*
X1798005Y1449820D01*
X1763446Y1468292D01*
X1733153Y1493153D01*
X1708292Y1523446D01*
X1689820Y1558005D01*
X1678445Y1595501D01*
X1674000Y1640638D01*
X1674000Y2279362D01*
X1678445Y2324499D01*
X1689820Y2361995D01*
X1708292Y2396554D01*
X1733153Y2426847D01*
X1763446Y2451708D01*
X1798005Y2470180D01*
X1835501Y2481555D01*
X1880638Y2486000D01*
X2619362Y2486000D01*
X2664499Y2481555D01*
X2664499Y2481555D01*
G37*
G36*
X4414499Y2481555D02*
G01*
X4451995Y2470180D01*
X4486554Y2451708D01*
X4516847Y2426847D01*
X4541708Y2396554D01*
X4560180Y2361995D01*
X4571555Y2324499D01*
X4576000Y2279362D01*
X4576000Y1640638D01*
X4571555Y1595501D01*
X4560180Y1558005D01*
X4541708Y1523446D01*
X4516847Y1493153D01*
X4486554Y1468292D01*
X4451995Y1449820D01*
X4414499Y1438445D01*
X4369362Y1434000D01*
X3630638Y1434000D01*
X3585501Y1438445D01*
X3548005Y1449820D01*
X3513446Y1468292D01*
X3483153Y1493153D01*
X3458292Y1523446D01*
X3439820Y1558005D01*
X3428445Y1595501D01*
X3424000Y1640638D01*
X3424000Y2279362D01*
X3428445Y2324499D01*
X3439820Y2361995D01*
X3458292Y2396554D01*
X3483153Y2426847D01*
X3513446Y2451708D01*
X3548005Y2470180D01*
X3585501Y2481555D01*
X3630638Y2486000D01*
X4369362Y2486000D01*
X4414499Y2481555D01*
X4414499Y2481555D01*
G37*
G36*
X164499Y2521555D02*
G01*
X201995Y2510180D01*
X236554Y2491708D01*
X266847Y2466847D01*
X291708Y2436554D01*
X310180Y2401995D01*
X321555Y2364499D01*
X326000Y2319362D01*
X326000Y1680638D01*
X321555Y1635501D01*
X310180Y1598005D01*
X291708Y1563446D01*
X266847Y1533153D01*
X236554Y1508292D01*
X201995Y1489820D01*
X164499Y1478445D01*
X119362Y1474000D01*
X-619362Y1474000D01*
X-664499Y1478445D01*
X-701995Y1489820D01*
X-736554Y1508292D01*
X-766847Y1533153D01*
X-791708Y1563446D01*
X-810180Y1598005D01*
X-821555Y1635501D01*
X-826000Y1680638D01*
X-826000Y2319362D01*
X-821555Y2364499D01*
X-810180Y2401995D01*
X-791708Y2436554D01*
X-766847Y2466847D01*
X-736554Y2491708D01*
X-701995Y2510180D01*
X-664499Y2521555D01*
X-619362Y2526000D01*
X119362Y2526000D01*
X164499Y2521555D01*
X164499Y2521555D01*
G37*
G36*
X-10335501Y2521555D02*
G01*
X-10298005Y2510180D01*
X-10263446Y2491708D01*
X-10233153Y2466847D01*
X-10208292Y2436554D01*
X-10189820Y2401995D01*
X-10178445Y2364499D01*
X-10174000Y2319362D01*
X-10174000Y1680638D01*
X-10178445Y1635501D01*
X-10189820Y1598005D01*
X-10208292Y1563446D01*
X-10233153Y1533153D01*
X-10263446Y1508292D01*
X-10298005Y1489820D01*
X-10335501Y1478445D01*
X-10380638Y1474000D01*
X-11119362Y1474000D01*
X-11164499Y1478445D01*
X-11201995Y1489820D01*
X-11236554Y1508292D01*
X-11266847Y1533153D01*
X-11291708Y1563446D01*
X-11310180Y1598005D01*
X-11321555Y1635501D01*
X-11326000Y1680638D01*
X-11326000Y2319362D01*
X-11321555Y2364499D01*
X-11310180Y2401995D01*
X-11291708Y2436554D01*
X-11266847Y2466847D01*
X-11236554Y2491708D01*
X-11201995Y2510180D01*
X-11164499Y2521555D01*
X-11119362Y2526000D01*
X-10380638Y2526000D01*
X-10335501Y2521555D01*
X-10335501Y2521555D01*
G37*
G36*
X-1585501Y2521555D02*
G01*
X-1548005Y2510180D01*
X-1513446Y2491708D01*
X-1483153Y2466847D01*
X-1458292Y2436554D01*
X-1439820Y2401995D01*
X-1428445Y2364499D01*
X-1424000Y2319362D01*
X-1424000Y1680638D01*
X-1428445Y1635501D01*
X-1439820Y1598005D01*
X-1458292Y1563446D01*
X-1483153Y1533153D01*
X-1513446Y1508292D01*
X-1548005Y1489820D01*
X-1585501Y1478445D01*
X-1630638Y1474000D01*
X-2369362Y1474000D01*
X-2414499Y1478445D01*
X-2451995Y1489820D01*
X-2486554Y1508292D01*
X-2516847Y1533153D01*
X-2541708Y1563446D01*
X-2560180Y1598005D01*
X-2571555Y1635501D01*
X-2576000Y1680638D01*
X-2576000Y2319362D01*
X-2571555Y2364499D01*
X-2560180Y2401995D01*
X-2541708Y2436554D01*
X-2516847Y2466847D01*
X-2486554Y2491708D01*
X-2451995Y2510180D01*
X-2414499Y2521555D01*
X-2369362Y2526000D01*
X-1630638Y2526000D01*
X-1585501Y2521555D01*
X-1585501Y2521555D01*
G37*
G36*
X-8585501Y2521555D02*
G01*
X-8548005Y2510180D01*
X-8513446Y2491708D01*
X-8483153Y2466847D01*
X-8458292Y2436554D01*
X-8439820Y2401995D01*
X-8428445Y2364499D01*
X-8424000Y2319362D01*
X-8424000Y1680638D01*
X-8428445Y1635501D01*
X-8439820Y1598005D01*
X-8458292Y1563446D01*
X-8483153Y1533153D01*
X-8513446Y1508292D01*
X-8548005Y1489820D01*
X-8585501Y1478445D01*
X-8630638Y1474000D01*
X-9369362Y1474000D01*
X-9414499Y1478445D01*
X-9451995Y1489820D01*
X-9486554Y1508292D01*
X-9516847Y1533153D01*
X-9541708Y1563446D01*
X-9560180Y1598005D01*
X-9571555Y1635501D01*
X-9576000Y1680638D01*
X-9576000Y2319362D01*
X-9571555Y2364499D01*
X-9560180Y2401995D01*
X-9541708Y2436554D01*
X-9516847Y2466847D01*
X-9486554Y2491708D01*
X-9451995Y2510180D01*
X-9414499Y2521555D01*
X-9369362Y2526000D01*
X-8630638Y2526000D01*
X-8585501Y2521555D01*
X-8585501Y2521555D01*
G37*
G36*
X-13389557Y4274481D02*
G01*
X-13323373Y4267963D01*
X-13153534Y4216443D01*
X-12997009Y4132778D01*
X-12961271Y4103448D01*
X-12859814Y4020186D01*
X-12776552Y3918729D01*
X-12747222Y3882991D01*
X-12663557Y3726466D01*
X-12612037Y3556627D01*
X-12594641Y3380000D01*
X-12612037Y3203373D01*
X-12663557Y3033534D01*
X-12747222Y2877009D01*
X-12776552Y2841271D01*
X-12859814Y2739814D01*
X-12961271Y2656552D01*
X-12997009Y2627222D01*
X-13153534Y2543557D01*
X-13323373Y2492037D01*
X-13384669Y2486000D01*
X-13455740Y2479000D01*
X-13544260Y2479000D01*
X-13615331Y2486000D01*
X-13676627Y2492037D01*
X-13846466Y2543557D01*
X-14002991Y2627222D01*
X-14038729Y2656552D01*
X-14140186Y2739814D01*
X-14223448Y2841271D01*
X-14252778Y2877009D01*
X-14336443Y3033534D01*
X-14387963Y3203373D01*
X-14405359Y3380000D01*
X-14387963Y3556627D01*
X-14336443Y3726466D01*
X-14252778Y3882991D01*
X-14223448Y3918729D01*
X-14140186Y4020186D01*
X-14038729Y4103448D01*
X-14002991Y4132778D01*
X-13846466Y4216443D01*
X-13676627Y4267963D01*
X-13610443Y4274481D01*
X-13544260Y4281000D01*
X-13455740Y4281000D01*
X-13389557Y4274481D01*
X-13389557Y4274481D01*
G37*
G36*
X-8569949Y5123716D02*
G01*
X-8553557Y5118743D01*
X-8538445Y5110666D01*
X-8525202Y5099798D01*
X-8514333Y5086553D01*
X-8510239Y5078894D01*
X-8496626Y5058520D01*
X-8479299Y5041193D01*
X-8458924Y5027579D01*
X-8436286Y5018202D01*
X-8412252Y5013421D01*
X-8387748Y5013421D01*
X-8363715Y5018201D01*
X-8341076Y5027579D01*
X-8320702Y5041192D01*
X-8303375Y5058519D01*
X-8289761Y5078894D01*
X-8285667Y5086553D01*
X-8274798Y5099798D01*
X-8261555Y5110666D01*
X-8246443Y5118743D01*
X-8230051Y5123716D01*
X-8206859Y5126000D01*
X-7793141Y5126000D01*
X-7769949Y5123716D01*
X-7753557Y5118743D01*
X-7738445Y5110666D01*
X-7725202Y5099798D01*
X-7714333Y5086553D01*
X-7710239Y5078894D01*
X-7696626Y5058520D01*
X-7679299Y5041193D01*
X-7658924Y5027579D01*
X-7636286Y5018202D01*
X-7612252Y5013421D01*
X-7587748Y5013421D01*
X-7563715Y5018201D01*
X-7541076Y5027579D01*
X-7520702Y5041192D01*
X-7503375Y5058519D01*
X-7489761Y5078894D01*
X-7485667Y5086553D01*
X-7474798Y5099798D01*
X-7461555Y5110666D01*
X-7446443Y5118743D01*
X-7430051Y5123716D01*
X-7406859Y5126000D01*
X-6993141Y5126000D01*
X-6969949Y5123716D01*
X-6953557Y5118743D01*
X-6938445Y5110666D01*
X-6925202Y5099798D01*
X-6914333Y5086553D01*
X-6910239Y5078894D01*
X-6896626Y5058520D01*
X-6879299Y5041193D01*
X-6858924Y5027579D01*
X-6836286Y5018202D01*
X-6812252Y5013421D01*
X-6787748Y5013421D01*
X-6763715Y5018201D01*
X-6741076Y5027579D01*
X-6720702Y5041192D01*
X-6703375Y5058519D01*
X-6689761Y5078894D01*
X-6685667Y5086553D01*
X-6674798Y5099798D01*
X-6661555Y5110666D01*
X-6646443Y5118743D01*
X-6630051Y5123716D01*
X-6606859Y5126000D01*
X-6193141Y5126000D01*
X-6169949Y5123716D01*
X-6153557Y5118743D01*
X-6138445Y5110666D01*
X-6125202Y5099798D01*
X-6114333Y5086553D01*
X-6110239Y5078894D01*
X-6096626Y5058520D01*
X-6079299Y5041193D01*
X-6058924Y5027579D01*
X-6036286Y5018202D01*
X-6012252Y5013421D01*
X-5987748Y5013421D01*
X-5963715Y5018201D01*
X-5941076Y5027579D01*
X-5920702Y5041192D01*
X-5903375Y5058519D01*
X-5889761Y5078894D01*
X-5885667Y5086553D01*
X-5874798Y5099798D01*
X-5861555Y5110666D01*
X-5846443Y5118743D01*
X-5830051Y5123716D01*
X-5806859Y5126000D01*
X-5393141Y5126000D01*
X-5369949Y5123716D01*
X-5353557Y5118743D01*
X-5338445Y5110666D01*
X-5325202Y5099798D01*
X-5314333Y5086553D01*
X-5310239Y5078894D01*
X-5296626Y5058520D01*
X-5279299Y5041193D01*
X-5258924Y5027579D01*
X-5236286Y5018202D01*
X-5212252Y5013421D01*
X-5187748Y5013421D01*
X-5163715Y5018201D01*
X-5141076Y5027579D01*
X-5120702Y5041192D01*
X-5103375Y5058519D01*
X-5089761Y5078894D01*
X-5085667Y5086553D01*
X-5074798Y5099798D01*
X-5061555Y5110666D01*
X-5046443Y5118743D01*
X-5030051Y5123716D01*
X-5006859Y5126000D01*
X-4593141Y5126000D01*
X-4569949Y5123716D01*
X-4553557Y5118743D01*
X-4538445Y5110666D01*
X-4525202Y5099798D01*
X-4514333Y5086553D01*
X-4510239Y5078894D01*
X-4496626Y5058520D01*
X-4479299Y5041193D01*
X-4458924Y5027579D01*
X-4436286Y5018202D01*
X-4412252Y5013421D01*
X-4387748Y5013421D01*
X-4363715Y5018201D01*
X-4341076Y5027579D01*
X-4320702Y5041192D01*
X-4303375Y5058519D01*
X-4289761Y5078894D01*
X-4285667Y5086553D01*
X-4274798Y5099798D01*
X-4261555Y5110666D01*
X-4246443Y5118743D01*
X-4230051Y5123716D01*
X-4206859Y5126000D01*
X-3793141Y5126000D01*
X-3769949Y5123716D01*
X-3753557Y5118743D01*
X-3738445Y5110666D01*
X-3725202Y5099798D01*
X-3714333Y5086553D01*
X-3710239Y5078894D01*
X-3696626Y5058520D01*
X-3679299Y5041193D01*
X-3658924Y5027579D01*
X-3636286Y5018202D01*
X-3612252Y5013421D01*
X-3587748Y5013421D01*
X-3563715Y5018201D01*
X-3541076Y5027579D01*
X-3520702Y5041192D01*
X-3503375Y5058519D01*
X-3489761Y5078894D01*
X-3485667Y5086553D01*
X-3474798Y5099798D01*
X-3461555Y5110666D01*
X-3446443Y5118743D01*
X-3430051Y5123716D01*
X-3406859Y5126000D01*
X-2993141Y5126000D01*
X-2969949Y5123716D01*
X-2953557Y5118743D01*
X-2938445Y5110666D01*
X-2925202Y5099798D01*
X-2914334Y5086555D01*
X-2906257Y5071443D01*
X-2901284Y5055051D01*
X-2899000Y5031859D01*
X-2899000Y3618141D01*
X-2901284Y3594949D01*
X-2906257Y3578557D01*
X-2914334Y3563445D01*
X-2925202Y3550202D01*
X-2938445Y3539334D01*
X-2953557Y3531257D01*
X-2969949Y3526284D01*
X-2993141Y3524000D01*
X-3406859Y3524000D01*
X-3430051Y3526284D01*
X-3446443Y3531257D01*
X-3461555Y3539334D01*
X-3474798Y3550202D01*
X-3485667Y3563447D01*
X-3489761Y3571106D01*
X-3503374Y3591480D01*
X-3520701Y3608807D01*
X-3541076Y3622421D01*
X-3563714Y3631798D01*
X-3587748Y3636579D01*
X-3612252Y3636579D01*
X-3636285Y3631799D01*
X-3658924Y3622421D01*
X-3679298Y3608808D01*
X-3696625Y3591481D01*
X-3710239Y3571106D01*
X-3714333Y3563447D01*
X-3725202Y3550202D01*
X-3738445Y3539334D01*
X-3753557Y3531257D01*
X-3769949Y3526284D01*
X-3793141Y3524000D01*
X-4206859Y3524000D01*
X-4230051Y3526284D01*
X-4246443Y3531257D01*
X-4261555Y3539334D01*
X-4274798Y3550202D01*
X-4285667Y3563447D01*
X-4289761Y3571106D01*
X-4303374Y3591480D01*
X-4320701Y3608807D01*
X-4341076Y3622421D01*
X-4363714Y3631798D01*
X-4387748Y3636579D01*
X-4412252Y3636579D01*
X-4436285Y3631799D01*
X-4458924Y3622421D01*
X-4479298Y3608808D01*
X-4496625Y3591481D01*
X-4510239Y3571106D01*
X-4514333Y3563447D01*
X-4525202Y3550202D01*
X-4538445Y3539334D01*
X-4553557Y3531257D01*
X-4569949Y3526284D01*
X-4593141Y3524000D01*
X-5006859Y3524000D01*
X-5030051Y3526284D01*
X-5046443Y3531257D01*
X-5061555Y3539334D01*
X-5074798Y3550202D01*
X-5085667Y3563447D01*
X-5089761Y3571106D01*
X-5103374Y3591480D01*
X-5120701Y3608807D01*
X-5141076Y3622421D01*
X-5163714Y3631798D01*
X-5187748Y3636579D01*
X-5212252Y3636579D01*
X-5236285Y3631799D01*
X-5258924Y3622421D01*
X-5279298Y3608808D01*
X-5296625Y3591481D01*
X-5310239Y3571106D01*
X-5314333Y3563447D01*
X-5325202Y3550202D01*
X-5338445Y3539334D01*
X-5353557Y3531257D01*
X-5369949Y3526284D01*
X-5393141Y3524000D01*
X-5806859Y3524000D01*
X-5830051Y3526284D01*
X-5846443Y3531257D01*
X-5861555Y3539334D01*
X-5874798Y3550202D01*
X-5885667Y3563447D01*
X-5889761Y3571106D01*
X-5903374Y3591480D01*
X-5920701Y3608807D01*
X-5941076Y3622421D01*
X-5963714Y3631798D01*
X-5987748Y3636579D01*
X-6012252Y3636579D01*
X-6036285Y3631799D01*
X-6058924Y3622421D01*
X-6079298Y3608808D01*
X-6096625Y3591481D01*
X-6110239Y3571106D01*
X-6114333Y3563447D01*
X-6125202Y3550202D01*
X-6138445Y3539334D01*
X-6153557Y3531257D01*
X-6169949Y3526284D01*
X-6193141Y3524000D01*
X-6606859Y3524000D01*
X-6630051Y3526284D01*
X-6646443Y3531257D01*
X-6661555Y3539334D01*
X-6674798Y3550202D01*
X-6685667Y3563447D01*
X-6689761Y3571106D01*
X-6703374Y3591480D01*
X-6720701Y3608807D01*
X-6741076Y3622421D01*
X-6763714Y3631798D01*
X-6787748Y3636579D01*
X-6812252Y3636579D01*
X-6836285Y3631799D01*
X-6858924Y3622421D01*
X-6879298Y3608808D01*
X-6896625Y3591481D01*
X-6910239Y3571106D01*
X-6914333Y3563447D01*
X-6925202Y3550202D01*
X-6938445Y3539334D01*
X-6953557Y3531257D01*
X-6969949Y3526284D01*
X-6993141Y3524000D01*
X-7406859Y3524000D01*
X-7430051Y3526284D01*
X-7446443Y3531257D01*
X-7461555Y3539334D01*
X-7474798Y3550202D01*
X-7485667Y3563447D01*
X-7489761Y3571106D01*
X-7503374Y3591480D01*
X-7520701Y3608807D01*
X-7541076Y3622421D01*
X-7563714Y3631798D01*
X-7587748Y3636579D01*
X-7612252Y3636579D01*
X-7636285Y3631799D01*
X-7658924Y3622421D01*
X-7679298Y3608808D01*
X-7696625Y3591481D01*
X-7710239Y3571106D01*
X-7714333Y3563447D01*
X-7725202Y3550202D01*
X-7738445Y3539334D01*
X-7753557Y3531257D01*
X-7769949Y3526284D01*
X-7793141Y3524000D01*
X-8206859Y3524000D01*
X-8230051Y3526284D01*
X-8246443Y3531257D01*
X-8261555Y3539334D01*
X-8274798Y3550202D01*
X-8285667Y3563447D01*
X-8289761Y3571106D01*
X-8303374Y3591480D01*
X-8320701Y3608807D01*
X-8341076Y3622421D01*
X-8363714Y3631798D01*
X-8387748Y3636579D01*
X-8412252Y3636579D01*
X-8436285Y3631799D01*
X-8458924Y3622421D01*
X-8479298Y3608808D01*
X-8496625Y3591481D01*
X-8510239Y3571106D01*
X-8514333Y3563447D01*
X-8525202Y3550202D01*
X-8538445Y3539334D01*
X-8553557Y3531257D01*
X-8569949Y3526284D01*
X-8593141Y3524000D01*
X-9006859Y3524000D01*
X-9030051Y3526284D01*
X-9046443Y3531257D01*
X-9061555Y3539334D01*
X-9074798Y3550202D01*
X-9085666Y3563445D01*
X-9093743Y3578557D01*
X-9098716Y3594949D01*
X-9101000Y3618141D01*
X-9101000Y5031859D01*
X-9098716Y5055051D01*
X-9093743Y5071443D01*
X-9085666Y5086555D01*
X-9074798Y5099798D01*
X-9061555Y5110666D01*
X-9046443Y5118743D01*
X-9030051Y5123716D01*
X-9006859Y5126000D01*
X-8593141Y5126000D01*
X-8569949Y5123716D01*
X-8569949Y5123716D01*
G37*
G36*
X-13389557Y6814481D02*
G01*
X-13323373Y6807963D01*
X-13153534Y6756443D01*
X-12997009Y6672778D01*
X-12961271Y6643448D01*
X-12859814Y6560186D01*
X-12776552Y6458729D01*
X-12747222Y6422991D01*
X-12663557Y6266466D01*
X-12612037Y6096627D01*
X-12594641Y5920000D01*
X-12612037Y5743373D01*
X-12663557Y5573534D01*
X-12663558Y5573532D01*
X-12692097Y5520139D01*
X-12747222Y5417009D01*
X-12762002Y5399000D01*
X-12859814Y5279814D01*
X-12961271Y5196552D01*
X-12997009Y5167222D01*
X-13153534Y5083557D01*
X-13323373Y5032037D01*
X-13368637Y5027579D01*
X-13455740Y5019000D01*
X-13544260Y5019000D01*
X-13631363Y5027579D01*
X-13676627Y5032037D01*
X-13846466Y5083557D01*
X-14002991Y5167222D01*
X-14038729Y5196552D01*
X-14140186Y5279814D01*
X-14237998Y5399000D01*
X-14252778Y5417009D01*
X-14307903Y5520139D01*
X-14336442Y5573532D01*
X-14336443Y5573534D01*
X-14387963Y5743373D01*
X-14405359Y5920000D01*
X-14387963Y6096627D01*
X-14336443Y6266466D01*
X-14252778Y6422991D01*
X-14223448Y6458729D01*
X-14140186Y6560186D01*
X-14038729Y6643448D01*
X-14002991Y6672778D01*
X-13846466Y6756443D01*
X-13676627Y6807963D01*
X-13610443Y6814481D01*
X-13544260Y6821000D01*
X-13455740Y6821000D01*
X-13389557Y6814481D01*
X-13389557Y6814481D01*
G37*
G36*
X-1094949Y11598716D02*
G01*
X-1078557Y11593743D01*
X-1063445Y11585666D01*
X-1050202Y11574798D01*
X-1039334Y11561555D01*
X-1031257Y11546443D01*
X-1026284Y11530051D01*
X-1024000Y11506859D01*
X-1024000Y11093141D01*
X-1026284Y11069949D01*
X-1031257Y11053557D01*
X-1039334Y11038445D01*
X-1050202Y11025202D01*
X-1063447Y11014333D01*
X-1071106Y11010239D01*
X-1091480Y10996626D01*
X-1108807Y10979299D01*
X-1122421Y10958924D01*
X-1131798Y10936286D01*
X-1136579Y10912252D01*
X-1136579Y10887748D01*
X-1131799Y10863715D01*
X-1122421Y10841076D01*
X-1108808Y10820702D01*
X-1091481Y10803375D01*
X-1071106Y10789761D01*
X-1063447Y10785667D01*
X-1050202Y10774798D01*
X-1039334Y10761555D01*
X-1031257Y10746443D01*
X-1026284Y10730051D01*
X-1024000Y10706859D01*
X-1024000Y10293141D01*
X-1026284Y10269949D01*
X-1031257Y10253557D01*
X-1039334Y10238445D01*
X-1050202Y10225202D01*
X-1063447Y10214333D01*
X-1071106Y10210239D01*
X-1091480Y10196626D01*
X-1108807Y10179299D01*
X-1122421Y10158924D01*
X-1131798Y10136286D01*
X-1136579Y10112252D01*
X-1136579Y10087748D01*
X-1131799Y10063715D01*
X-1122421Y10041076D01*
X-1108808Y10020702D01*
X-1091481Y10003375D01*
X-1071106Y9989761D01*
X-1063447Y9985667D01*
X-1050202Y9974798D01*
X-1039334Y9961555D01*
X-1031257Y9946443D01*
X-1026284Y9930051D01*
X-1024000Y9906859D01*
X-1024000Y9493141D01*
X-1026284Y9469949D01*
X-1031257Y9453557D01*
X-1039334Y9438445D01*
X-1050202Y9425202D01*
X-1063447Y9414333D01*
X-1071106Y9410239D01*
X-1091480Y9396626D01*
X-1108807Y9379299D01*
X-1122421Y9358924D01*
X-1131798Y9336286D01*
X-1136579Y9312252D01*
X-1136579Y9287748D01*
X-1131799Y9263715D01*
X-1122421Y9241076D01*
X-1108808Y9220702D01*
X-1091481Y9203375D01*
X-1071106Y9189761D01*
X-1063447Y9185667D01*
X-1050202Y9174798D01*
X-1039334Y9161555D01*
X-1031257Y9146443D01*
X-1026284Y9130051D01*
X-1024000Y9106859D01*
X-1024000Y8693141D01*
X-1026284Y8669949D01*
X-1031257Y8653557D01*
X-1039334Y8638445D01*
X-1050202Y8625202D01*
X-1063447Y8614333D01*
X-1071106Y8610239D01*
X-1091480Y8596626D01*
X-1108807Y8579299D01*
X-1122421Y8558924D01*
X-1131798Y8536286D01*
X-1136579Y8512252D01*
X-1136579Y8487748D01*
X-1131799Y8463715D01*
X-1122421Y8441076D01*
X-1108808Y8420702D01*
X-1091481Y8403375D01*
X-1071106Y8389761D01*
X-1063447Y8385667D01*
X-1050202Y8374798D01*
X-1039334Y8361555D01*
X-1031257Y8346443D01*
X-1026284Y8330051D01*
X-1024000Y8306859D01*
X-1024000Y7893141D01*
X-1026284Y7869949D01*
X-1031257Y7853557D01*
X-1039334Y7838445D01*
X-1050202Y7825202D01*
X-1063447Y7814333D01*
X-1071106Y7810239D01*
X-1091480Y7796626D01*
X-1108807Y7779299D01*
X-1122421Y7758924D01*
X-1131798Y7736286D01*
X-1136579Y7712252D01*
X-1136579Y7687748D01*
X-1131799Y7663715D01*
X-1122421Y7641076D01*
X-1108808Y7620702D01*
X-1091481Y7603375D01*
X-1071106Y7589761D01*
X-1063447Y7585667D01*
X-1050202Y7574798D01*
X-1039334Y7561555D01*
X-1031257Y7546443D01*
X-1026284Y7530051D01*
X-1024000Y7506859D01*
X-1024000Y7093141D01*
X-1026284Y7069949D01*
X-1031257Y7053557D01*
X-1039334Y7038445D01*
X-1050202Y7025202D01*
X-1063447Y7014333D01*
X-1071106Y7010239D01*
X-1091480Y6996626D01*
X-1108807Y6979299D01*
X-1122421Y6958924D01*
X-1131798Y6936286D01*
X-1136579Y6912252D01*
X-1136579Y6887748D01*
X-1131799Y6863715D01*
X-1122421Y6841076D01*
X-1108808Y6820702D01*
X-1091481Y6803375D01*
X-1071106Y6789761D01*
X-1063447Y6785667D01*
X-1050202Y6774798D01*
X-1039334Y6761555D01*
X-1031257Y6746443D01*
X-1026284Y6730051D01*
X-1024000Y6706859D01*
X-1024000Y6293141D01*
X-1026284Y6269949D01*
X-1031257Y6253557D01*
X-1039334Y6238445D01*
X-1050202Y6225202D01*
X-1063447Y6214333D01*
X-1071106Y6210239D01*
X-1091480Y6196626D01*
X-1108807Y6179299D01*
X-1122421Y6158924D01*
X-1131798Y6136286D01*
X-1136579Y6112252D01*
X-1136579Y6087748D01*
X-1131799Y6063715D01*
X-1122421Y6041076D01*
X-1108808Y6020702D01*
X-1091481Y6003375D01*
X-1071106Y5989761D01*
X-1063447Y5985667D01*
X-1050202Y5974798D01*
X-1039334Y5961555D01*
X-1031257Y5946443D01*
X-1026284Y5930051D01*
X-1024000Y5906859D01*
X-1024000Y5493141D01*
X-1026284Y5469949D01*
X-1031257Y5453557D01*
X-1039334Y5438445D01*
X-1050202Y5425202D01*
X-1063445Y5414334D01*
X-1078557Y5406257D01*
X-1094949Y5401284D01*
X-1118141Y5399000D01*
X-2531859Y5399000D01*
X-2555051Y5401284D01*
X-2571443Y5406257D01*
X-2586555Y5414334D01*
X-2599798Y5425202D01*
X-2610666Y5438445D01*
X-2618743Y5453557D01*
X-2623716Y5469949D01*
X-2626000Y5493141D01*
X-2626000Y5906859D01*
X-2623716Y5930051D01*
X-2618743Y5946443D01*
X-2610666Y5961555D01*
X-2599798Y5974798D01*
X-2586553Y5985667D01*
X-2578894Y5989761D01*
X-2558520Y6003374D01*
X-2541193Y6020701D01*
X-2527579Y6041076D01*
X-2518202Y6063714D01*
X-2513421Y6087748D01*
X-2513421Y6112252D01*
X-2518201Y6136285D01*
X-2527579Y6158924D01*
X-2541192Y6179298D01*
X-2558519Y6196625D01*
X-2578894Y6210239D01*
X-2586553Y6214333D01*
X-2599798Y6225202D01*
X-2610666Y6238445D01*
X-2618743Y6253557D01*
X-2623716Y6269949D01*
X-2626000Y6293141D01*
X-2626000Y6706859D01*
X-2623716Y6730051D01*
X-2618743Y6746443D01*
X-2610666Y6761555D01*
X-2599798Y6774798D01*
X-2586553Y6785667D01*
X-2578894Y6789761D01*
X-2558520Y6803374D01*
X-2541193Y6820701D01*
X-2527579Y6841076D01*
X-2518202Y6863714D01*
X-2513421Y6887748D01*
X-2513421Y6912252D01*
X-2518201Y6936285D01*
X-2527579Y6958924D01*
X-2541192Y6979298D01*
X-2558519Y6996625D01*
X-2578894Y7010239D01*
X-2586553Y7014333D01*
X-2599798Y7025202D01*
X-2610666Y7038445D01*
X-2618743Y7053557D01*
X-2623716Y7069949D01*
X-2626000Y7093141D01*
X-2626000Y7506859D01*
X-2623716Y7530051D01*
X-2618743Y7546443D01*
X-2610666Y7561555D01*
X-2599798Y7574798D01*
X-2586553Y7585667D01*
X-2578894Y7589761D01*
X-2558520Y7603374D01*
X-2541193Y7620701D01*
X-2527579Y7641076D01*
X-2518202Y7663714D01*
X-2513421Y7687748D01*
X-2513421Y7712252D01*
X-2518201Y7736285D01*
X-2527579Y7758924D01*
X-2541192Y7779298D01*
X-2558519Y7796625D01*
X-2578894Y7810239D01*
X-2586553Y7814333D01*
X-2599798Y7825202D01*
X-2610666Y7838445D01*
X-2618743Y7853557D01*
X-2623716Y7869949D01*
X-2626000Y7893141D01*
X-2626000Y8306859D01*
X-2623716Y8330051D01*
X-2618743Y8346443D01*
X-2610666Y8361555D01*
X-2599798Y8374798D01*
X-2586553Y8385667D01*
X-2578894Y8389761D01*
X-2558520Y8403374D01*
X-2541193Y8420701D01*
X-2527579Y8441076D01*
X-2518202Y8463714D01*
X-2513421Y8487748D01*
X-2513421Y8512252D01*
X-2518201Y8536285D01*
X-2527579Y8558924D01*
X-2541192Y8579298D01*
X-2558519Y8596625D01*
X-2578894Y8610239D01*
X-2586553Y8614333D01*
X-2599798Y8625202D01*
X-2610666Y8638445D01*
X-2618743Y8653557D01*
X-2623716Y8669949D01*
X-2626000Y8693141D01*
X-2626000Y9106859D01*
X-2623716Y9130051D01*
X-2618743Y9146443D01*
X-2610666Y9161555D01*
X-2599798Y9174798D01*
X-2586553Y9185667D01*
X-2578894Y9189761D01*
X-2558520Y9203374D01*
X-2541193Y9220701D01*
X-2527579Y9241076D01*
X-2518202Y9263714D01*
X-2513421Y9287748D01*
X-2513421Y9312252D01*
X-2518201Y9336285D01*
X-2527579Y9358924D01*
X-2541192Y9379298D01*
X-2558519Y9396625D01*
X-2578894Y9410239D01*
X-2586553Y9414333D01*
X-2599798Y9425202D01*
X-2610666Y9438445D01*
X-2618743Y9453557D01*
X-2623716Y9469949D01*
X-2626000Y9493141D01*
X-2626000Y9906859D01*
X-2623716Y9930051D01*
X-2618743Y9946443D01*
X-2610666Y9961555D01*
X-2599798Y9974798D01*
X-2586553Y9985667D01*
X-2578894Y9989761D01*
X-2558520Y10003374D01*
X-2541193Y10020701D01*
X-2527579Y10041076D01*
X-2518202Y10063714D01*
X-2513421Y10087748D01*
X-2513421Y10112252D01*
X-2518201Y10136285D01*
X-2527579Y10158924D01*
X-2541192Y10179298D01*
X-2558519Y10196625D01*
X-2578894Y10210239D01*
X-2586553Y10214333D01*
X-2599798Y10225202D01*
X-2610666Y10238445D01*
X-2618743Y10253557D01*
X-2623716Y10269949D01*
X-2626000Y10293141D01*
X-2626000Y10706859D01*
X-2623716Y10730051D01*
X-2618743Y10746443D01*
X-2610666Y10761555D01*
X-2599798Y10774798D01*
X-2586553Y10785667D01*
X-2578894Y10789761D01*
X-2558520Y10803374D01*
X-2541193Y10820701D01*
X-2527579Y10841076D01*
X-2518202Y10863714D01*
X-2513421Y10887748D01*
X-2513421Y10912252D01*
X-2518201Y10936285D01*
X-2527579Y10958924D01*
X-2541192Y10979298D01*
X-2558519Y10996625D01*
X-2578894Y11010239D01*
X-2586553Y11014333D01*
X-2599798Y11025202D01*
X-2610666Y11038445D01*
X-2618743Y11053557D01*
X-2623716Y11069949D01*
X-2626000Y11093141D01*
X-2626000Y11506859D01*
X-2623716Y11530051D01*
X-2618743Y11546443D01*
X-2610666Y11561555D01*
X-2599798Y11574798D01*
X-2586555Y11585666D01*
X-2571443Y11593743D01*
X-2555051Y11598716D01*
X-2531859Y11601000D01*
X-1118141Y11601000D01*
X-1094949Y11598716D01*
X-1094949Y11598716D01*
G37*
G36*
X-9444949Y11598716D02*
G01*
X-9428557Y11593743D01*
X-9413445Y11585666D01*
X-9400202Y11574798D01*
X-9389334Y11561555D01*
X-9381257Y11546443D01*
X-9376284Y11530051D01*
X-9374000Y11506859D01*
X-9374000Y11093141D01*
X-9376284Y11069949D01*
X-9381257Y11053557D01*
X-9389334Y11038445D01*
X-9400202Y11025202D01*
X-9413447Y11014333D01*
X-9421106Y11010239D01*
X-9441480Y10996626D01*
X-9458807Y10979299D01*
X-9472421Y10958924D01*
X-9481798Y10936286D01*
X-9486579Y10912252D01*
X-9486579Y10887748D01*
X-9481799Y10863715D01*
X-9472421Y10841076D01*
X-9458808Y10820702D01*
X-9441481Y10803375D01*
X-9421106Y10789761D01*
X-9413447Y10785667D01*
X-9400202Y10774798D01*
X-9389334Y10761555D01*
X-9381257Y10746443D01*
X-9376284Y10730051D01*
X-9374000Y10706859D01*
X-9374000Y10293141D01*
X-9376284Y10269949D01*
X-9381257Y10253557D01*
X-9389334Y10238445D01*
X-9400202Y10225202D01*
X-9413447Y10214333D01*
X-9421106Y10210239D01*
X-9441480Y10196626D01*
X-9458807Y10179299D01*
X-9472421Y10158924D01*
X-9481798Y10136286D01*
X-9486579Y10112252D01*
X-9486579Y10087748D01*
X-9481799Y10063715D01*
X-9472421Y10041076D01*
X-9458808Y10020702D01*
X-9441481Y10003375D01*
X-9421106Y9989761D01*
X-9413447Y9985667D01*
X-9400202Y9974798D01*
X-9389334Y9961555D01*
X-9381257Y9946443D01*
X-9376284Y9930051D01*
X-9374000Y9906859D01*
X-9374000Y9493141D01*
X-9376284Y9469949D01*
X-9381257Y9453557D01*
X-9389334Y9438445D01*
X-9400202Y9425202D01*
X-9413447Y9414333D01*
X-9421106Y9410239D01*
X-9441480Y9396626D01*
X-9458807Y9379299D01*
X-9472421Y9358924D01*
X-9481798Y9336286D01*
X-9486579Y9312252D01*
X-9486579Y9287748D01*
X-9481799Y9263715D01*
X-9472421Y9241076D01*
X-9458808Y9220702D01*
X-9441481Y9203375D01*
X-9421106Y9189761D01*
X-9413447Y9185667D01*
X-9400202Y9174798D01*
X-9389334Y9161555D01*
X-9381257Y9146443D01*
X-9376284Y9130051D01*
X-9374000Y9106859D01*
X-9374000Y8693141D01*
X-9376284Y8669949D01*
X-9381257Y8653557D01*
X-9389334Y8638445D01*
X-9400202Y8625202D01*
X-9413447Y8614333D01*
X-9421106Y8610239D01*
X-9441480Y8596626D01*
X-9458807Y8579299D01*
X-9472421Y8558924D01*
X-9481798Y8536286D01*
X-9486579Y8512252D01*
X-9486579Y8487748D01*
X-9481799Y8463715D01*
X-9472421Y8441076D01*
X-9458808Y8420702D01*
X-9441481Y8403375D01*
X-9421106Y8389761D01*
X-9413447Y8385667D01*
X-9400202Y8374798D01*
X-9389334Y8361555D01*
X-9381257Y8346443D01*
X-9376284Y8330051D01*
X-9374000Y8306859D01*
X-9374000Y7893141D01*
X-9376284Y7869949D01*
X-9381257Y7853557D01*
X-9389334Y7838445D01*
X-9400202Y7825202D01*
X-9413447Y7814333D01*
X-9421106Y7810239D01*
X-9441480Y7796626D01*
X-9458807Y7779299D01*
X-9472421Y7758924D01*
X-9481798Y7736286D01*
X-9486579Y7712252D01*
X-9486579Y7687748D01*
X-9481799Y7663715D01*
X-9472421Y7641076D01*
X-9458808Y7620702D01*
X-9441481Y7603375D01*
X-9421106Y7589761D01*
X-9413447Y7585667D01*
X-9400202Y7574798D01*
X-9389334Y7561555D01*
X-9381257Y7546443D01*
X-9376284Y7530051D01*
X-9374000Y7506859D01*
X-9374000Y7093141D01*
X-9376284Y7069949D01*
X-9381257Y7053557D01*
X-9389334Y7038445D01*
X-9400202Y7025202D01*
X-9413447Y7014333D01*
X-9421106Y7010239D01*
X-9441480Y6996626D01*
X-9458807Y6979299D01*
X-9472421Y6958924D01*
X-9481798Y6936286D01*
X-9486579Y6912252D01*
X-9486579Y6887748D01*
X-9481799Y6863715D01*
X-9472421Y6841076D01*
X-9458808Y6820702D01*
X-9441481Y6803375D01*
X-9421106Y6789761D01*
X-9413447Y6785667D01*
X-9400202Y6774798D01*
X-9389334Y6761555D01*
X-9381257Y6746443D01*
X-9376284Y6730051D01*
X-9374000Y6706859D01*
X-9374000Y6293141D01*
X-9376284Y6269949D01*
X-9381257Y6253557D01*
X-9389334Y6238445D01*
X-9400202Y6225202D01*
X-9413447Y6214333D01*
X-9421106Y6210239D01*
X-9441480Y6196626D01*
X-9458807Y6179299D01*
X-9472421Y6158924D01*
X-9481798Y6136286D01*
X-9486579Y6112252D01*
X-9486579Y6087748D01*
X-9481799Y6063715D01*
X-9472421Y6041076D01*
X-9458808Y6020702D01*
X-9441481Y6003375D01*
X-9421106Y5989761D01*
X-9413447Y5985667D01*
X-9400202Y5974798D01*
X-9389334Y5961555D01*
X-9381257Y5946443D01*
X-9376284Y5930051D01*
X-9374000Y5906859D01*
X-9374000Y5493141D01*
X-9376284Y5469949D01*
X-9381257Y5453557D01*
X-9389334Y5438445D01*
X-9400202Y5425202D01*
X-9413445Y5414334D01*
X-9428557Y5406257D01*
X-9444949Y5401284D01*
X-9468141Y5399000D01*
X-10881859Y5399000D01*
X-10905051Y5401284D01*
X-10921443Y5406257D01*
X-10936555Y5414334D01*
X-10949798Y5425202D01*
X-10960666Y5438445D01*
X-10968743Y5453557D01*
X-10973716Y5469949D01*
X-10976000Y5493141D01*
X-10976000Y5906859D01*
X-10973716Y5930051D01*
X-10968743Y5946443D01*
X-10960666Y5961555D01*
X-10949798Y5974798D01*
X-10936553Y5985667D01*
X-10928894Y5989761D01*
X-10908520Y6003374D01*
X-10891193Y6020701D01*
X-10877579Y6041076D01*
X-10868202Y6063714D01*
X-10863421Y6087748D01*
X-10863421Y6112252D01*
X-10868201Y6136285D01*
X-10877579Y6158924D01*
X-10891192Y6179298D01*
X-10908519Y6196625D01*
X-10928894Y6210239D01*
X-10936553Y6214333D01*
X-10949798Y6225202D01*
X-10960666Y6238445D01*
X-10968743Y6253557D01*
X-10973716Y6269949D01*
X-10976000Y6293141D01*
X-10976000Y6706859D01*
X-10973716Y6730051D01*
X-10968743Y6746443D01*
X-10960666Y6761555D01*
X-10949798Y6774798D01*
X-10936553Y6785667D01*
X-10928894Y6789761D01*
X-10908520Y6803374D01*
X-10891193Y6820701D01*
X-10877579Y6841076D01*
X-10868202Y6863714D01*
X-10863421Y6887748D01*
X-10863421Y6912252D01*
X-10868201Y6936285D01*
X-10877579Y6958924D01*
X-10891192Y6979298D01*
X-10908519Y6996625D01*
X-10928894Y7010239D01*
X-10936553Y7014333D01*
X-10949798Y7025202D01*
X-10960666Y7038445D01*
X-10968743Y7053557D01*
X-10973716Y7069949D01*
X-10976000Y7093141D01*
X-10976000Y7506859D01*
X-10973716Y7530051D01*
X-10968743Y7546443D01*
X-10960666Y7561555D01*
X-10949798Y7574798D01*
X-10936553Y7585667D01*
X-10928894Y7589761D01*
X-10908520Y7603374D01*
X-10891193Y7620701D01*
X-10877579Y7641076D01*
X-10868202Y7663714D01*
X-10863421Y7687748D01*
X-10863421Y7712252D01*
X-10868201Y7736285D01*
X-10877579Y7758924D01*
X-10891192Y7779298D01*
X-10908519Y7796625D01*
X-10928894Y7810239D01*
X-10936553Y7814333D01*
X-10949798Y7825202D01*
X-10960666Y7838445D01*
X-10968743Y7853557D01*
X-10973716Y7869949D01*
X-10976000Y7893141D01*
X-10976000Y8306859D01*
X-10973716Y8330051D01*
X-10968743Y8346443D01*
X-10960666Y8361555D01*
X-10949798Y8374798D01*
X-10936553Y8385667D01*
X-10928894Y8389761D01*
X-10908520Y8403374D01*
X-10891193Y8420701D01*
X-10877579Y8441076D01*
X-10868202Y8463714D01*
X-10863421Y8487748D01*
X-10863421Y8512252D01*
X-10868201Y8536285D01*
X-10877579Y8558924D01*
X-10891192Y8579298D01*
X-10908519Y8596625D01*
X-10928894Y8610239D01*
X-10936553Y8614333D01*
X-10949798Y8625202D01*
X-10960666Y8638445D01*
X-10968743Y8653557D01*
X-10973716Y8669949D01*
X-10976000Y8693141D01*
X-10976000Y9106859D01*
X-10973716Y9130051D01*
X-10968743Y9146443D01*
X-10960666Y9161555D01*
X-10949798Y9174798D01*
X-10936553Y9185667D01*
X-10928894Y9189761D01*
X-10908520Y9203374D01*
X-10891193Y9220701D01*
X-10877579Y9241076D01*
X-10868202Y9263714D01*
X-10863421Y9287748D01*
X-10863421Y9312252D01*
X-10868201Y9336285D01*
X-10877579Y9358924D01*
X-10891192Y9379298D01*
X-10908519Y9396625D01*
X-10928894Y9410239D01*
X-10936553Y9414333D01*
X-10949798Y9425202D01*
X-10960666Y9438445D01*
X-10968743Y9453557D01*
X-10973716Y9469949D01*
X-10976000Y9493141D01*
X-10976000Y9906859D01*
X-10973716Y9930051D01*
X-10968743Y9946443D01*
X-10960666Y9961555D01*
X-10949798Y9974798D01*
X-10936553Y9985667D01*
X-10928894Y9989761D01*
X-10908520Y10003374D01*
X-10891193Y10020701D01*
X-10877579Y10041076D01*
X-10868202Y10063714D01*
X-10863421Y10087748D01*
X-10863421Y10112252D01*
X-10868201Y10136285D01*
X-10877579Y10158924D01*
X-10891192Y10179298D01*
X-10908519Y10196625D01*
X-10928894Y10210239D01*
X-10936553Y10214333D01*
X-10949798Y10225202D01*
X-10960666Y10238445D01*
X-10968743Y10253557D01*
X-10973716Y10269949D01*
X-10976000Y10293141D01*
X-10976000Y10706859D01*
X-10973716Y10730051D01*
X-10968743Y10746443D01*
X-10960666Y10761555D01*
X-10949798Y10774798D01*
X-10936553Y10785667D01*
X-10928894Y10789761D01*
X-10908520Y10803374D01*
X-10891193Y10820701D01*
X-10877579Y10841076D01*
X-10868202Y10863714D01*
X-10863421Y10887748D01*
X-10863421Y10912252D01*
X-10868201Y10936285D01*
X-10877579Y10958924D01*
X-10891192Y10979298D01*
X-10908519Y10996625D01*
X-10928894Y11010239D01*
X-10936553Y11014333D01*
X-10949798Y11025202D01*
X-10960666Y11038445D01*
X-10968743Y11053557D01*
X-10973716Y11069949D01*
X-10976000Y11093141D01*
X-10976000Y11506859D01*
X-10973716Y11530051D01*
X-10968743Y11546443D01*
X-10960666Y11561555D01*
X-10949798Y11574798D01*
X-10936555Y11585666D01*
X-10921443Y11593743D01*
X-10905051Y11598716D01*
X-10881859Y11601000D01*
X-9468141Y11601000D01*
X-9444949Y11598716D01*
X-9444949Y11598716D01*
G37*
G36*
X12703752Y7893141D02*
G01*
X12759059Y7882140D01*
X12895732Y7825528D01*
X13018735Y7743340D01*
X13123340Y7638735D01*
X13193246Y7534113D01*
X13205529Y7515730D01*
X13262140Y7379059D01*
X13291000Y7233968D01*
X13291000Y7086032D01*
X13262140Y6940941D01*
X13220775Y6841076D01*
X13205528Y6804268D01*
X13123340Y6681265D01*
X13018735Y6576660D01*
X12895732Y6494472D01*
X12895731Y6494471D01*
X12895730Y6494471D01*
X12759059Y6437860D01*
X12613968Y6409000D01*
X12466032Y6409000D01*
X12320941Y6437860D01*
X12184270Y6494471D01*
X12184269Y6494471D01*
X12184268Y6494472D01*
X12061265Y6576660D01*
X11956660Y6681265D01*
X11874472Y6804268D01*
X11859226Y6841076D01*
X11817860Y6940941D01*
X11789000Y7086032D01*
X11789000Y7233968D01*
X11817860Y7379059D01*
X11874471Y7515730D01*
X11886754Y7534113D01*
X11956660Y7638735D01*
X12061265Y7743340D01*
X12184268Y7825528D01*
X12320941Y7882140D01*
X12376248Y7893141D01*
X12466032Y7911000D01*
X12613968Y7911000D01*
X12703752Y7893141D01*
X12703752Y7893141D01*
G37*
G36*
X-13389558Y9354482D02*
G01*
X-13323373Y9347963D01*
X-13153534Y9296443D01*
X-12997009Y9212778D01*
X-12963974Y9185667D01*
X-12859814Y9100186D01*
X-12776552Y8998729D01*
X-12747222Y8962991D01*
X-12663557Y8806466D01*
X-12612037Y8636627D01*
X-12594641Y8460000D01*
X-12612037Y8283373D01*
X-12663557Y8113534D01*
X-12747222Y7957009D01*
X-12753385Y7949500D01*
X-12859814Y7819814D01*
X-12934010Y7758924D01*
X-12997009Y7707222D01*
X-12997011Y7707221D01*
X-13120758Y7641076D01*
X-13153534Y7623557D01*
X-13323373Y7572037D01*
X-13389557Y7565519D01*
X-13455740Y7559000D01*
X-13544260Y7559000D01*
X-13610443Y7565519D01*
X-13676627Y7572037D01*
X-13846466Y7623557D01*
X-13879241Y7641076D01*
X-14002989Y7707221D01*
X-14002991Y7707222D01*
X-14065990Y7758924D01*
X-14140186Y7819814D01*
X-14246615Y7949500D01*
X-14252778Y7957009D01*
X-14336443Y8113534D01*
X-14387963Y8283373D01*
X-14405359Y8460000D01*
X-14387963Y8636627D01*
X-14336443Y8806466D01*
X-14252778Y8962991D01*
X-14223448Y8998729D01*
X-14140186Y9100186D01*
X-14036026Y9185667D01*
X-14002991Y9212778D01*
X-13846466Y9296443D01*
X-13676627Y9347963D01*
X-13610442Y9354482D01*
X-13544260Y9361000D01*
X-13455740Y9361000D01*
X-13389558Y9354482D01*
X-13389558Y9354482D01*
G37*
G36*
X4341000Y8359000D02*
G01*
X739000Y8359000D01*
X739000Y11961000D01*
X4341000Y11961000D01*
X4341000Y8359000D01*
X4341000Y8359000D01*
G37*
G36*
X-13389557Y11894481D02*
G01*
X-13323373Y11887963D01*
X-13153534Y11836443D01*
X-12997009Y11752778D01*
X-12961271Y11723448D01*
X-12859814Y11640186D01*
X-12782882Y11546443D01*
X-12747222Y11502991D01*
X-12663557Y11346466D01*
X-12612037Y11176627D01*
X-12594641Y11000000D01*
X-12612037Y10823373D01*
X-12663557Y10653534D01*
X-12747222Y10497009D01*
X-12776552Y10461271D01*
X-12859814Y10359814D01*
X-12961271Y10276552D01*
X-12997009Y10247222D01*
X-13153534Y10163557D01*
X-13323373Y10112037D01*
X-13389557Y10105519D01*
X-13455740Y10099000D01*
X-13544260Y10099000D01*
X-13610443Y10105519D01*
X-13676627Y10112037D01*
X-13846466Y10163557D01*
X-14002991Y10247222D01*
X-14038729Y10276552D01*
X-14140186Y10359814D01*
X-14223448Y10461271D01*
X-14252778Y10497009D01*
X-14336443Y10653534D01*
X-14387963Y10823373D01*
X-14405359Y11000000D01*
X-14387963Y11176627D01*
X-14336443Y11346466D01*
X-14252778Y11502991D01*
X-14217118Y11546443D01*
X-14140186Y11640186D01*
X-14038729Y11723448D01*
X-14002991Y11752778D01*
X-13846466Y11836443D01*
X-13676627Y11887963D01*
X-13610443Y11894481D01*
X-13544260Y11901000D01*
X-13455740Y11901000D01*
X-13389557Y11894481D01*
X-13389557Y11894481D01*
G37*
G36*
X-8569949Y13473716D02*
G01*
X-8553557Y13468743D01*
X-8538445Y13460666D01*
X-8525202Y13449798D01*
X-8514333Y13436553D01*
X-8510239Y13428894D01*
X-8496626Y13408520D01*
X-8479299Y13391193D01*
X-8458924Y13377579D01*
X-8436286Y13368202D01*
X-8412252Y13363421D01*
X-8387748Y13363421D01*
X-8363715Y13368201D01*
X-8341076Y13377579D01*
X-8320702Y13391192D01*
X-8303375Y13408519D01*
X-8289761Y13428894D01*
X-8285667Y13436553D01*
X-8274798Y13449798D01*
X-8261555Y13460666D01*
X-8246443Y13468743D01*
X-8230051Y13473716D01*
X-8206859Y13476000D01*
X-7793141Y13476000D01*
X-7769949Y13473716D01*
X-7753557Y13468743D01*
X-7738445Y13460666D01*
X-7725202Y13449798D01*
X-7714333Y13436553D01*
X-7710239Y13428894D01*
X-7696626Y13408520D01*
X-7679299Y13391193D01*
X-7658924Y13377579D01*
X-7636286Y13368202D01*
X-7612252Y13363421D01*
X-7587748Y13363421D01*
X-7563715Y13368201D01*
X-7541076Y13377579D01*
X-7520702Y13391192D01*
X-7503375Y13408519D01*
X-7489761Y13428894D01*
X-7485667Y13436553D01*
X-7474798Y13449798D01*
X-7461555Y13460666D01*
X-7446443Y13468743D01*
X-7430051Y13473716D01*
X-7406859Y13476000D01*
X-6993141Y13476000D01*
X-6969949Y13473716D01*
X-6953557Y13468743D01*
X-6938445Y13460666D01*
X-6925202Y13449798D01*
X-6914333Y13436553D01*
X-6910239Y13428894D01*
X-6896626Y13408520D01*
X-6879299Y13391193D01*
X-6858924Y13377579D01*
X-6836286Y13368202D01*
X-6812252Y13363421D01*
X-6787748Y13363421D01*
X-6763715Y13368201D01*
X-6741076Y13377579D01*
X-6720702Y13391192D01*
X-6703375Y13408519D01*
X-6689761Y13428894D01*
X-6685667Y13436553D01*
X-6674798Y13449798D01*
X-6661555Y13460666D01*
X-6646443Y13468743D01*
X-6630051Y13473716D01*
X-6606859Y13476000D01*
X-6193141Y13476000D01*
X-6169949Y13473716D01*
X-6153557Y13468743D01*
X-6138445Y13460666D01*
X-6125202Y13449798D01*
X-6114333Y13436553D01*
X-6110239Y13428894D01*
X-6096626Y13408520D01*
X-6079299Y13391193D01*
X-6058924Y13377579D01*
X-6036286Y13368202D01*
X-6012252Y13363421D01*
X-5987748Y13363421D01*
X-5963715Y13368201D01*
X-5941076Y13377579D01*
X-5920702Y13391192D01*
X-5903375Y13408519D01*
X-5889761Y13428894D01*
X-5885667Y13436553D01*
X-5874798Y13449798D01*
X-5861555Y13460666D01*
X-5846443Y13468743D01*
X-5830051Y13473716D01*
X-5806859Y13476000D01*
X-5393141Y13476000D01*
X-5369949Y13473716D01*
X-5353557Y13468743D01*
X-5338445Y13460666D01*
X-5325202Y13449798D01*
X-5314333Y13436553D01*
X-5310239Y13428894D01*
X-5296626Y13408520D01*
X-5279299Y13391193D01*
X-5258924Y13377579D01*
X-5236286Y13368202D01*
X-5212252Y13363421D01*
X-5187748Y13363421D01*
X-5163715Y13368201D01*
X-5141076Y13377579D01*
X-5120702Y13391192D01*
X-5103375Y13408519D01*
X-5089761Y13428894D01*
X-5085667Y13436553D01*
X-5074798Y13449798D01*
X-5061555Y13460666D01*
X-5046443Y13468743D01*
X-5030051Y13473716D01*
X-5006859Y13476000D01*
X-4593141Y13476000D01*
X-4569949Y13473716D01*
X-4553557Y13468743D01*
X-4538445Y13460666D01*
X-4525202Y13449798D01*
X-4514333Y13436553D01*
X-4510239Y13428894D01*
X-4496626Y13408520D01*
X-4479299Y13391193D01*
X-4458924Y13377579D01*
X-4436286Y13368202D01*
X-4412252Y13363421D01*
X-4387748Y13363421D01*
X-4363715Y13368201D01*
X-4341076Y13377579D01*
X-4320702Y13391192D01*
X-4303375Y13408519D01*
X-4289761Y13428894D01*
X-4285667Y13436553D01*
X-4274798Y13449798D01*
X-4261555Y13460666D01*
X-4246443Y13468743D01*
X-4230051Y13473716D01*
X-4206859Y13476000D01*
X-3793141Y13476000D01*
X-3769949Y13473716D01*
X-3753557Y13468743D01*
X-3738445Y13460666D01*
X-3725202Y13449798D01*
X-3714333Y13436553D01*
X-3710239Y13428894D01*
X-3696626Y13408520D01*
X-3679299Y13391193D01*
X-3658924Y13377579D01*
X-3636286Y13368202D01*
X-3612252Y13363421D01*
X-3587748Y13363421D01*
X-3563715Y13368201D01*
X-3541076Y13377579D01*
X-3520702Y13391192D01*
X-3503375Y13408519D01*
X-3489761Y13428894D01*
X-3485667Y13436553D01*
X-3474798Y13449798D01*
X-3461555Y13460666D01*
X-3446443Y13468743D01*
X-3430051Y13473716D01*
X-3406859Y13476000D01*
X-2993141Y13476000D01*
X-2969949Y13473716D01*
X-2953557Y13468743D01*
X-2938445Y13460666D01*
X-2925202Y13449798D01*
X-2914334Y13436555D01*
X-2906257Y13421443D01*
X-2901284Y13405051D01*
X-2899000Y13381859D01*
X-2899000Y11968141D01*
X-2901284Y11944949D01*
X-2906257Y11928557D01*
X-2914334Y11913445D01*
X-2925202Y11900202D01*
X-2938445Y11889334D01*
X-2953557Y11881257D01*
X-2969949Y11876284D01*
X-2993141Y11874000D01*
X-3406859Y11874000D01*
X-3430051Y11876284D01*
X-3446443Y11881257D01*
X-3461555Y11889334D01*
X-3474798Y11900202D01*
X-3485667Y11913447D01*
X-3489761Y11921106D01*
X-3503374Y11941480D01*
X-3520701Y11958807D01*
X-3541076Y11972421D01*
X-3563714Y11981798D01*
X-3587748Y11986579D01*
X-3612252Y11986579D01*
X-3636285Y11981799D01*
X-3658924Y11972421D01*
X-3679298Y11958808D01*
X-3696625Y11941481D01*
X-3710239Y11921106D01*
X-3714333Y11913447D01*
X-3725202Y11900202D01*
X-3738445Y11889334D01*
X-3753557Y11881257D01*
X-3769949Y11876284D01*
X-3793141Y11874000D01*
X-4206859Y11874000D01*
X-4230051Y11876284D01*
X-4246443Y11881257D01*
X-4261555Y11889334D01*
X-4274798Y11900202D01*
X-4285667Y11913447D01*
X-4289761Y11921106D01*
X-4303374Y11941480D01*
X-4320701Y11958807D01*
X-4341076Y11972421D01*
X-4363714Y11981798D01*
X-4387748Y11986579D01*
X-4412252Y11986579D01*
X-4436285Y11981799D01*
X-4458924Y11972421D01*
X-4479298Y11958808D01*
X-4496625Y11941481D01*
X-4510239Y11921106D01*
X-4514333Y11913447D01*
X-4525202Y11900202D01*
X-4538445Y11889334D01*
X-4553557Y11881257D01*
X-4569949Y11876284D01*
X-4593141Y11874000D01*
X-5006859Y11874000D01*
X-5030051Y11876284D01*
X-5046443Y11881257D01*
X-5061555Y11889334D01*
X-5074798Y11900202D01*
X-5085667Y11913447D01*
X-5089761Y11921106D01*
X-5103374Y11941480D01*
X-5120701Y11958807D01*
X-5141076Y11972421D01*
X-5163714Y11981798D01*
X-5187748Y11986579D01*
X-5212252Y11986579D01*
X-5236285Y11981799D01*
X-5258924Y11972421D01*
X-5279298Y11958808D01*
X-5296625Y11941481D01*
X-5310239Y11921106D01*
X-5314333Y11913447D01*
X-5325202Y11900202D01*
X-5338445Y11889334D01*
X-5353557Y11881257D01*
X-5369949Y11876284D01*
X-5393141Y11874000D01*
X-5806859Y11874000D01*
X-5830051Y11876284D01*
X-5846443Y11881257D01*
X-5861555Y11889334D01*
X-5874798Y11900202D01*
X-5885667Y11913447D01*
X-5889761Y11921106D01*
X-5903374Y11941480D01*
X-5920701Y11958807D01*
X-5941076Y11972421D01*
X-5963714Y11981798D01*
X-5987748Y11986579D01*
X-6012252Y11986579D01*
X-6036285Y11981799D01*
X-6058924Y11972421D01*
X-6079298Y11958808D01*
X-6096625Y11941481D01*
X-6110239Y11921106D01*
X-6114333Y11913447D01*
X-6125202Y11900202D01*
X-6138445Y11889334D01*
X-6153557Y11881257D01*
X-6169949Y11876284D01*
X-6193141Y11874000D01*
X-6606859Y11874000D01*
X-6630051Y11876284D01*
X-6646443Y11881257D01*
X-6661555Y11889334D01*
X-6674798Y11900202D01*
X-6685667Y11913447D01*
X-6689761Y11921106D01*
X-6703374Y11941480D01*
X-6720701Y11958807D01*
X-6741076Y11972421D01*
X-6763714Y11981798D01*
X-6787748Y11986579D01*
X-6812252Y11986579D01*
X-6836285Y11981799D01*
X-6858924Y11972421D01*
X-6879298Y11958808D01*
X-6896625Y11941481D01*
X-6910239Y11921106D01*
X-6914333Y11913447D01*
X-6925202Y11900202D01*
X-6938445Y11889334D01*
X-6953557Y11881257D01*
X-6969949Y11876284D01*
X-6993141Y11874000D01*
X-7406859Y11874000D01*
X-7430051Y11876284D01*
X-7446443Y11881257D01*
X-7461555Y11889334D01*
X-7474798Y11900202D01*
X-7485667Y11913447D01*
X-7489761Y11921106D01*
X-7503374Y11941480D01*
X-7520701Y11958807D01*
X-7541076Y11972421D01*
X-7563714Y11981798D01*
X-7587748Y11986579D01*
X-7612252Y11986579D01*
X-7636285Y11981799D01*
X-7658924Y11972421D01*
X-7679298Y11958808D01*
X-7696625Y11941481D01*
X-7710239Y11921106D01*
X-7714333Y11913447D01*
X-7725202Y11900202D01*
X-7738445Y11889334D01*
X-7753557Y11881257D01*
X-7769949Y11876284D01*
X-7793141Y11874000D01*
X-8206859Y11874000D01*
X-8230051Y11876284D01*
X-8246443Y11881257D01*
X-8261555Y11889334D01*
X-8274798Y11900202D01*
X-8285667Y11913447D01*
X-8289761Y11921106D01*
X-8303374Y11941480D01*
X-8320701Y11958807D01*
X-8341076Y11972421D01*
X-8363714Y11981798D01*
X-8387748Y11986579D01*
X-8412252Y11986579D01*
X-8436285Y11981799D01*
X-8458924Y11972421D01*
X-8479298Y11958808D01*
X-8496625Y11941481D01*
X-8510239Y11921106D01*
X-8514333Y11913447D01*
X-8525202Y11900202D01*
X-8538445Y11889334D01*
X-8553557Y11881257D01*
X-8569949Y11876284D01*
X-8593141Y11874000D01*
X-9006859Y11874000D01*
X-9030051Y11876284D01*
X-9046443Y11881257D01*
X-9061555Y11889334D01*
X-9074798Y11900202D01*
X-9085666Y11913445D01*
X-9093743Y11928557D01*
X-9098716Y11944949D01*
X-9101000Y11968141D01*
X-9101000Y13381859D01*
X-9098716Y13405051D01*
X-9093743Y13421443D01*
X-9085666Y13436555D01*
X-9074798Y13449798D01*
X-9061555Y13460666D01*
X-9046443Y13468743D01*
X-9030051Y13473716D01*
X-9006859Y13476000D01*
X-8593141Y13476000D01*
X-8569949Y13473716D01*
X-8569949Y13473716D01*
G37*
G36*
X-13389557Y14434481D02*
G01*
X-13323373Y14427963D01*
X-13153534Y14376443D01*
X-12997009Y14292778D01*
X-12961271Y14263448D01*
X-12859814Y14180186D01*
X-12776552Y14078729D01*
X-12747222Y14042991D01*
X-12663557Y13886466D01*
X-12612037Y13716627D01*
X-12594641Y13540000D01*
X-12612037Y13363373D01*
X-12663557Y13193534D01*
X-12747222Y13037009D01*
X-12776552Y13001271D01*
X-12859814Y12899814D01*
X-12961271Y12816552D01*
X-12997009Y12787222D01*
X-13153534Y12703557D01*
X-13323373Y12652037D01*
X-13389558Y12645518D01*
X-13455740Y12639000D01*
X-13544260Y12639000D01*
X-13610442Y12645518D01*
X-13676627Y12652037D01*
X-13846466Y12703557D01*
X-14002991Y12787222D01*
X-14038729Y12816552D01*
X-14140186Y12899814D01*
X-14223448Y13001271D01*
X-14252778Y13037009D01*
X-14336443Y13193534D01*
X-14387963Y13363373D01*
X-14405359Y13540000D01*
X-14387963Y13716627D01*
X-14336443Y13886466D01*
X-14252778Y14042991D01*
X-14223448Y14078729D01*
X-14140186Y14180186D01*
X-14038729Y14263448D01*
X-14002991Y14292778D01*
X-13846466Y14376443D01*
X-13676627Y14427963D01*
X-13610443Y14434481D01*
X-13544260Y14441000D01*
X-13455740Y14441000D01*
X-13389557Y14434481D01*
X-13389557Y14434481D01*
G37*
G36*
X3065331Y16891789D02*
G01*
X3393092Y16756026D01*
X3688070Y16558928D01*
X3938928Y16308070D01*
X4136026Y16013092D01*
X4271789Y15685331D01*
X4341000Y15337384D01*
X4341000Y14982616D01*
X4271789Y14634669D01*
X4136026Y14306908D01*
X3938928Y14011930D01*
X3688070Y13761072D01*
X3393092Y13563974D01*
X3065331Y13428211D01*
X2717384Y13359000D01*
X2362616Y13359000D01*
X2014669Y13428211D01*
X1686908Y13563974D01*
X1391930Y13761072D01*
X1141072Y14011930D01*
X943974Y14306908D01*
X808211Y14634669D01*
X739000Y14982616D01*
X739000Y15337384D01*
X808211Y15685331D01*
X943974Y16013092D01*
X1141072Y16308070D01*
X1391930Y16558928D01*
X1686908Y16756026D01*
X2014669Y16891789D01*
X2362616Y16961000D01*
X2717384Y16961000D01*
X3065331Y16891789D01*
X3065331Y16891789D01*
G37*
G36*
X-960501Y15521555D02*
G01*
X-923005Y15510180D01*
X-888446Y15491708D01*
X-858153Y15466847D01*
X-833292Y15436554D01*
X-814820Y15401995D01*
X-803445Y15364499D01*
X-799000Y15319362D01*
X-799000Y14680638D01*
X-803445Y14635501D01*
X-814820Y14598005D01*
X-833292Y14563446D01*
X-858153Y14533153D01*
X-888446Y14508292D01*
X-923005Y14489820D01*
X-960501Y14478445D01*
X-1005638Y14474000D01*
X-1744362Y14474000D01*
X-1789499Y14478445D01*
X-1826995Y14489820D01*
X-1861554Y14508292D01*
X-1891847Y14533153D01*
X-1916708Y14563446D01*
X-1935180Y14598005D01*
X-1946555Y14635501D01*
X-1951000Y14680638D01*
X-1951000Y15319362D01*
X-1946555Y15364499D01*
X-1935180Y15401995D01*
X-1916708Y15436554D01*
X-1891847Y15466847D01*
X-1861554Y15491708D01*
X-1826995Y15510180D01*
X-1789499Y15521555D01*
X-1744362Y15526000D01*
X-1005638Y15526000D01*
X-960501Y15521555D01*
X-960501Y15521555D01*
G37*
G36*
X-7835501Y15521555D02*
G01*
X-7798005Y15510180D01*
X-7763446Y15491708D01*
X-7733153Y15466847D01*
X-7708292Y15436554D01*
X-7689820Y15401995D01*
X-7678445Y15364499D01*
X-7674000Y15319362D01*
X-7674000Y14680638D01*
X-7678445Y14635501D01*
X-7689820Y14598005D01*
X-7708292Y14563446D01*
X-7733153Y14533153D01*
X-7763446Y14508292D01*
X-7798005Y14489820D01*
X-7835501Y14478445D01*
X-7880638Y14474000D01*
X-8619362Y14474000D01*
X-8664499Y14478445D01*
X-8701995Y14489820D01*
X-8736554Y14508292D01*
X-8766847Y14533153D01*
X-8791708Y14563446D01*
X-8810180Y14598005D01*
X-8821555Y14635501D01*
X-8826000Y14680638D01*
X-8826000Y15319362D01*
X-8821555Y15364499D01*
X-8810180Y15401995D01*
X-8791708Y15436554D01*
X-8766847Y15466847D01*
X-8736554Y15491708D01*
X-8701995Y15510180D01*
X-8664499Y15521555D01*
X-8619362Y15526000D01*
X-7880638Y15526000D01*
X-7835501Y15521555D01*
X-7835501Y15521555D01*
G37*
G36*
X-6085501Y15521555D02*
G01*
X-6048005Y15510180D01*
X-6013446Y15491708D01*
X-5983153Y15466847D01*
X-5958292Y15436554D01*
X-5939820Y15401995D01*
X-5928445Y15364499D01*
X-5924000Y15319362D01*
X-5924000Y14680638D01*
X-5928445Y14635501D01*
X-5939820Y14598005D01*
X-5958292Y14563446D01*
X-5983153Y14533153D01*
X-6013446Y14508292D01*
X-6048005Y14489820D01*
X-6085501Y14478445D01*
X-6130638Y14474000D01*
X-6869362Y14474000D01*
X-6914499Y14478445D01*
X-6951995Y14489820D01*
X-6986554Y14508292D01*
X-7016847Y14533153D01*
X-7041708Y14563446D01*
X-7060180Y14598005D01*
X-7071555Y14635501D01*
X-7076000Y14680638D01*
X-7076000Y15319362D01*
X-7071555Y15364499D01*
X-7060180Y15401995D01*
X-7041708Y15436554D01*
X-7016847Y15466847D01*
X-6986554Y15491708D01*
X-6951995Y15510180D01*
X-6914499Y15521555D01*
X-6869362Y15526000D01*
X-6130638Y15526000D01*
X-6085501Y15521555D01*
X-6085501Y15521555D01*
G37*
G36*
X-2710501Y15521555D02*
G01*
X-2673005Y15510180D01*
X-2638446Y15491708D01*
X-2608153Y15466847D01*
X-2583292Y15436554D01*
X-2564820Y15401995D01*
X-2553445Y15364499D01*
X-2549000Y15319362D01*
X-2549000Y14680638D01*
X-2553445Y14635501D01*
X-2564820Y14598005D01*
X-2583292Y14563446D01*
X-2608153Y14533153D01*
X-2638446Y14508292D01*
X-2673005Y14489820D01*
X-2710501Y14478445D01*
X-2755638Y14474000D01*
X-3494362Y14474000D01*
X-3539499Y14478445D01*
X-3576995Y14489820D01*
X-3611554Y14508292D01*
X-3641847Y14533153D01*
X-3666708Y14563446D01*
X-3685180Y14598005D01*
X-3696555Y14635501D01*
X-3701000Y14680638D01*
X-3701000Y15319362D01*
X-3696555Y15364499D01*
X-3685180Y15401995D01*
X-3666708Y15436554D01*
X-3641847Y15466847D01*
X-3611554Y15491708D01*
X-3576995Y15510180D01*
X-3539499Y15521555D01*
X-3494362Y15526000D01*
X-2755638Y15526000D01*
X-2710501Y15521555D01*
X-2710501Y15521555D01*
G37*
G36*
X-12599000Y15179000D02*
G01*
X-14401000Y15179000D01*
X-14401000Y16981000D01*
X-12599000Y16981000D01*
X-12599000Y15179000D01*
X-12599000Y15179000D01*
G37*
G36*
X-7835501Y17021555D02*
G01*
X-7798005Y17010180D01*
X-7763446Y16991708D01*
X-7733153Y16966847D01*
X-7708292Y16936554D01*
X-7689820Y16901995D01*
X-7678445Y16864499D01*
X-7674000Y16819362D01*
X-7674000Y16180638D01*
X-7678445Y16135501D01*
X-7689820Y16098005D01*
X-7708292Y16063446D01*
X-7733153Y16033153D01*
X-7763446Y16008292D01*
X-7798005Y15989820D01*
X-7835501Y15978445D01*
X-7880638Y15974000D01*
X-8619362Y15974000D01*
X-8664499Y15978445D01*
X-8701995Y15989820D01*
X-8736554Y16008292D01*
X-8766847Y16033153D01*
X-8791708Y16063446D01*
X-8810180Y16098005D01*
X-8821555Y16135501D01*
X-8826000Y16180638D01*
X-8826000Y16819362D01*
X-8821555Y16864499D01*
X-8810180Y16901995D01*
X-8791708Y16936554D01*
X-8766847Y16966847D01*
X-8736554Y16991708D01*
X-8701995Y17010180D01*
X-8664499Y17021555D01*
X-8619362Y17026000D01*
X-7880638Y17026000D01*
X-7835501Y17021555D01*
X-7835501Y17021555D01*
G37*
G36*
X-960501Y17021555D02*
G01*
X-923005Y17010180D01*
X-888446Y16991708D01*
X-858153Y16966847D01*
X-833292Y16936554D01*
X-814820Y16901995D01*
X-803445Y16864499D01*
X-799000Y16819362D01*
X-799000Y16180638D01*
X-803445Y16135501D01*
X-814820Y16098005D01*
X-833292Y16063446D01*
X-858153Y16033153D01*
X-888446Y16008292D01*
X-923005Y15989820D01*
X-960501Y15978445D01*
X-1005638Y15974000D01*
X-1744362Y15974000D01*
X-1789499Y15978445D01*
X-1826995Y15989820D01*
X-1861554Y16008292D01*
X-1891847Y16033153D01*
X-1916708Y16063446D01*
X-1935180Y16098005D01*
X-1946555Y16135501D01*
X-1951000Y16180638D01*
X-1951000Y16819362D01*
X-1946555Y16864499D01*
X-1935180Y16901995D01*
X-1916708Y16936554D01*
X-1891847Y16966847D01*
X-1861554Y16991708D01*
X-1826995Y17010180D01*
X-1789499Y17021555D01*
X-1744362Y17026000D01*
X-1005638Y17026000D01*
X-960501Y17021555D01*
X-960501Y17021555D01*
G37*
G36*
X-2710501Y17021555D02*
G01*
X-2673005Y17010180D01*
X-2638446Y16991708D01*
X-2608153Y16966847D01*
X-2583292Y16936554D01*
X-2564820Y16901995D01*
X-2553445Y16864499D01*
X-2549000Y16819362D01*
X-2549000Y16180638D01*
X-2553445Y16135501D01*
X-2564820Y16098005D01*
X-2583292Y16063446D01*
X-2608153Y16033153D01*
X-2638446Y16008292D01*
X-2673005Y15989820D01*
X-2710501Y15978445D01*
X-2755638Y15974000D01*
X-3494362Y15974000D01*
X-3539499Y15978445D01*
X-3576995Y15989820D01*
X-3611554Y16008292D01*
X-3641847Y16033153D01*
X-3666708Y16063446D01*
X-3685180Y16098005D01*
X-3696555Y16135501D01*
X-3701000Y16180638D01*
X-3701000Y16819362D01*
X-3696555Y16864499D01*
X-3685180Y16901995D01*
X-3666708Y16936554D01*
X-3641847Y16966847D01*
X-3611554Y16991708D01*
X-3576995Y17010180D01*
X-3539499Y17021555D01*
X-3494362Y17026000D01*
X-2755638Y17026000D01*
X-2710501Y17021555D01*
X-2710501Y17021555D01*
G37*
G36*
X-6085501Y17021555D02*
G01*
X-6048005Y17010180D01*
X-6013446Y16991708D01*
X-5983153Y16966847D01*
X-5958292Y16936554D01*
X-5939820Y16901995D01*
X-5928445Y16864499D01*
X-5924000Y16819362D01*
X-5924000Y16180638D01*
X-5928445Y16135501D01*
X-5939820Y16098005D01*
X-5958292Y16063446D01*
X-5983153Y16033153D01*
X-6013446Y16008292D01*
X-6048005Y15989820D01*
X-6085501Y15978445D01*
X-6130638Y15974000D01*
X-6869362Y15974000D01*
X-6914499Y15978445D01*
X-6951995Y15989820D01*
X-6986554Y16008292D01*
X-7016847Y16033153D01*
X-7041708Y16063446D01*
X-7060180Y16098005D01*
X-7071555Y16135501D01*
X-7076000Y16180638D01*
X-7076000Y16819362D01*
X-7071555Y16864499D01*
X-7060180Y16901995D01*
X-7041708Y16936554D01*
X-7016847Y16966847D01*
X-6986554Y16991708D01*
X-6951995Y17010180D01*
X-6914499Y17021555D01*
X-6869362Y17026000D01*
X-6130638Y17026000D01*
X-6085501Y17021555D01*
X-6085501Y17021555D01*
G37*
G36*
X12759059Y18882140D02*
G01*
X12895732Y18825528D01*
X13018735Y18743340D01*
X13123340Y18638735D01*
X13205528Y18515732D01*
X13205529Y18515730D01*
X13215479Y18491708D01*
X13262140Y18379059D01*
X13291000Y18233967D01*
X13291000Y18086033D01*
X13262140Y17940941D01*
X13205528Y17804268D01*
X13123340Y17681265D01*
X13018735Y17576660D01*
X12895732Y17494472D01*
X12895731Y17494471D01*
X12895730Y17494471D01*
X12759059Y17437860D01*
X12613968Y17409000D01*
X12466032Y17409000D01*
X12320941Y17437860D01*
X12184270Y17494471D01*
X12184269Y17494471D01*
X12184268Y17494472D01*
X12061265Y17576660D01*
X11956660Y17681265D01*
X11874472Y17804268D01*
X11817860Y17940941D01*
X11789000Y18086033D01*
X11789000Y18233967D01*
X11817860Y18379059D01*
X11864521Y18491708D01*
X11874471Y18515730D01*
X11874472Y18515732D01*
X11956660Y18638735D01*
X12061265Y18743340D01*
X12184268Y18825528D01*
X12320941Y18882140D01*
X12466032Y18911000D01*
X12613968Y18911000D01*
X12759059Y18882140D01*
X12759059Y18882140D01*
G37*
G36*
X-2710501Y18521555D02*
G01*
X-2673005Y18510180D01*
X-2638446Y18491708D01*
X-2608153Y18466847D01*
X-2583292Y18436554D01*
X-2564820Y18401995D01*
X-2553445Y18364499D01*
X-2549000Y18319362D01*
X-2549000Y17680638D01*
X-2553445Y17635501D01*
X-2564820Y17598005D01*
X-2583292Y17563446D01*
X-2608153Y17533153D01*
X-2638446Y17508292D01*
X-2673005Y17489820D01*
X-2710501Y17478445D01*
X-2755638Y17474000D01*
X-3494362Y17474000D01*
X-3539499Y17478445D01*
X-3576995Y17489820D01*
X-3611554Y17508292D01*
X-3641847Y17533153D01*
X-3666708Y17563446D01*
X-3685180Y17598005D01*
X-3696555Y17635501D01*
X-3701000Y17680638D01*
X-3701000Y18319362D01*
X-3696555Y18364499D01*
X-3685180Y18401995D01*
X-3666708Y18436554D01*
X-3641847Y18466847D01*
X-3611554Y18491708D01*
X-3576995Y18510180D01*
X-3539499Y18521555D01*
X-3494362Y18526000D01*
X-2755638Y18526000D01*
X-2710501Y18521555D01*
X-2710501Y18521555D01*
G37*
G36*
X-960501Y18521555D02*
G01*
X-923005Y18510180D01*
X-888446Y18491708D01*
X-858153Y18466847D01*
X-833292Y18436554D01*
X-814820Y18401995D01*
X-803445Y18364499D01*
X-799000Y18319362D01*
X-799000Y17680638D01*
X-803445Y17635501D01*
X-814820Y17598005D01*
X-833292Y17563446D01*
X-858153Y17533153D01*
X-888446Y17508292D01*
X-923005Y17489820D01*
X-960501Y17478445D01*
X-1005638Y17474000D01*
X-1744362Y17474000D01*
X-1789499Y17478445D01*
X-1826995Y17489820D01*
X-1861554Y17508292D01*
X-1891847Y17533153D01*
X-1916708Y17563446D01*
X-1935180Y17598005D01*
X-1946555Y17635501D01*
X-1951000Y17680638D01*
X-1951000Y18319362D01*
X-1946555Y18364499D01*
X-1935180Y18401995D01*
X-1916708Y18436554D01*
X-1891847Y18466847D01*
X-1861554Y18491708D01*
X-1826995Y18510180D01*
X-1789499Y18521555D01*
X-1744362Y18526000D01*
X-1005638Y18526000D01*
X-960501Y18521555D01*
X-960501Y18521555D01*
G37*
G36*
X-10710501Y19521555D02*
G01*
X-10673005Y19510180D01*
X-10638446Y19491708D01*
X-10608153Y19466847D01*
X-10583292Y19436554D01*
X-10564820Y19401995D01*
X-10553445Y19364499D01*
X-10549000Y19319362D01*
X-10549000Y18680638D01*
X-10553445Y18635501D01*
X-10564820Y18598005D01*
X-10583292Y18563446D01*
X-10608153Y18533153D01*
X-10638446Y18508292D01*
X-10673005Y18489820D01*
X-10710501Y18478445D01*
X-10755638Y18474000D01*
X-11494362Y18474000D01*
X-11539499Y18478445D01*
X-11576995Y18489820D01*
X-11611554Y18508292D01*
X-11641847Y18533153D01*
X-11666708Y18563446D01*
X-11685180Y18598005D01*
X-11696555Y18635501D01*
X-11701000Y18680638D01*
X-11701000Y19319362D01*
X-11696555Y19364499D01*
X-11685180Y19401995D01*
X-11666708Y19436554D01*
X-11641847Y19466847D01*
X-11611554Y19491708D01*
X-11576995Y19510180D01*
X-11539499Y19521555D01*
X-11494362Y19526000D01*
X-10755638Y19526000D01*
X-10710501Y19521555D01*
X-10710501Y19521555D01*
G37*
G36*
X-12460501Y19521555D02*
G01*
X-12423005Y19510180D01*
X-12388446Y19491708D01*
X-12358153Y19466847D01*
X-12333292Y19436554D01*
X-12314820Y19401995D01*
X-12303445Y19364499D01*
X-12299000Y19319362D01*
X-12299000Y18680638D01*
X-12303445Y18635501D01*
X-12314820Y18598005D01*
X-12333292Y18563446D01*
X-12358153Y18533153D01*
X-12388446Y18508292D01*
X-12423005Y18489820D01*
X-12460501Y18478445D01*
X-12505638Y18474000D01*
X-13244362Y18474000D01*
X-13289499Y18478445D01*
X-13326995Y18489820D01*
X-13361554Y18508292D01*
X-13391847Y18533153D01*
X-13416708Y18563446D01*
X-13435180Y18598005D01*
X-13446555Y18635501D01*
X-13451000Y18680638D01*
X-13451000Y19319362D01*
X-13446555Y19364499D01*
X-13435180Y19401995D01*
X-13416708Y19436554D01*
X-13391847Y19466847D01*
X-13361554Y19491708D01*
X-13326995Y19510180D01*
X-13289499Y19521555D01*
X-13244362Y19526000D01*
X-12505638Y19526000D01*
X-12460501Y19521555D01*
X-12460501Y19521555D01*
G37*
G36*
X4361000Y19549000D02*
G01*
X3259000Y19549000D01*
X3259000Y21251000D01*
X4361000Y21251000D01*
X4361000Y19549000D01*
X4361000Y19549000D01*
G37*
G36*
X-3259000Y19549000D02*
G01*
X-4361000Y19549000D01*
X-4361000Y21251000D01*
X-3259000Y21251000D01*
X-3259000Y19549000D01*
X-3259000Y19549000D01*
G37*
G36*
X-13074000Y20819000D02*
G01*
X-13826000Y20819000D01*
X-13826000Y21981000D01*
X-13074000Y21981000D01*
X-13074000Y20819000D01*
X-13074000Y20819000D01*
G37*
G36*
X-11174000Y20819000D02*
G01*
X-11926000Y20819000D01*
X-11926000Y21981000D01*
X-11174000Y21981000D01*
X-11174000Y20819000D01*
X-11174000Y20819000D01*
G37*
G36*
X10414499Y22021555D02*
G01*
X10451995Y22010180D01*
X10486554Y21991708D01*
X10516847Y21966847D01*
X10541708Y21936554D01*
X10560180Y21901995D01*
X10571555Y21864499D01*
X10576000Y21819362D01*
X10576000Y21180638D01*
X10571555Y21135501D01*
X10560180Y21098005D01*
X10541708Y21063446D01*
X10516847Y21033153D01*
X10486554Y21008292D01*
X10451995Y20989820D01*
X10414499Y20978445D01*
X10369362Y20974000D01*
X9630638Y20974000D01*
X9585501Y20978445D01*
X9548005Y20989820D01*
X9513446Y21008292D01*
X9483153Y21033153D01*
X9458292Y21063446D01*
X9439820Y21098005D01*
X9428445Y21135501D01*
X9424000Y21180638D01*
X9424000Y21819362D01*
X9428445Y21864499D01*
X9439820Y21901995D01*
X9458292Y21936554D01*
X9483153Y21966847D01*
X9513446Y21991708D01*
X9548005Y22010180D01*
X9585501Y22021555D01*
X9630638Y22026000D01*
X10369362Y22026000D01*
X10414499Y22021555D01*
X10414499Y22021555D01*
G37*
G36*
X8664499Y22021555D02*
G01*
X8701995Y22010180D01*
X8736554Y21991708D01*
X8766847Y21966847D01*
X8791708Y21936554D01*
X8810180Y21901995D01*
X8821555Y21864499D01*
X8826000Y21819362D01*
X8826000Y21180638D01*
X8821555Y21135501D01*
X8810180Y21098005D01*
X8791708Y21063446D01*
X8766847Y21033153D01*
X8736554Y21008292D01*
X8701995Y20989820D01*
X8664499Y20978445D01*
X8619362Y20974000D01*
X7880638Y20974000D01*
X7835501Y20978445D01*
X7798005Y20989820D01*
X7763446Y21008292D01*
X7733153Y21033153D01*
X7708292Y21063446D01*
X7689820Y21098005D01*
X7678445Y21135501D01*
X7674000Y21180638D01*
X7674000Y21819362D01*
X7678445Y21864499D01*
X7689820Y21901995D01*
X7708292Y21936554D01*
X7733153Y21966847D01*
X7763446Y21991708D01*
X7798005Y22010180D01*
X7835501Y22021555D01*
X7880638Y22026000D01*
X8619362Y22026000D01*
X8664499Y22021555D01*
X8664499Y22021555D01*
G37*
G36*
X-9135501Y22696555D02*
G01*
X-9098005Y22685180D01*
X-9063446Y22666708D01*
X-9033153Y22641847D01*
X-9008292Y22611554D01*
X-8989820Y22576995D01*
X-8978445Y22539499D01*
X-8974000Y22494362D01*
X-8974000Y21755638D01*
X-8978445Y21710501D01*
X-8989820Y21673005D01*
X-9008292Y21638446D01*
X-9033153Y21608153D01*
X-9063446Y21583292D01*
X-9098005Y21564820D01*
X-9135501Y21553445D01*
X-9180638Y21549000D01*
X-9819362Y21549000D01*
X-9864499Y21553445D01*
X-9901995Y21564820D01*
X-9936554Y21583292D01*
X-9966847Y21608153D01*
X-9991708Y21638446D01*
X-10010180Y21673005D01*
X-10021555Y21710501D01*
X-10026000Y21755638D01*
X-10026000Y22494362D01*
X-10021555Y22539499D01*
X-10010180Y22576995D01*
X-9991708Y22611554D01*
X-9966847Y22641847D01*
X-9936554Y22666708D01*
X-9901995Y22685180D01*
X-9864499Y22696555D01*
X-9819362Y22701000D01*
X-9180638Y22701000D01*
X-9135501Y22696555D01*
X-9135501Y22696555D01*
G37*
G36*
X-7635501Y22696555D02*
G01*
X-7598005Y22685180D01*
X-7563446Y22666708D01*
X-7533153Y22641847D01*
X-7508292Y22611554D01*
X-7489820Y22576995D01*
X-7478445Y22539499D01*
X-7474000Y22494362D01*
X-7474000Y21755638D01*
X-7478445Y21710501D01*
X-7489820Y21673005D01*
X-7508292Y21638446D01*
X-7533153Y21608153D01*
X-7563446Y21583292D01*
X-7598005Y21564820D01*
X-7635501Y21553445D01*
X-7680638Y21549000D01*
X-8319362Y21549000D01*
X-8364499Y21553445D01*
X-8401995Y21564820D01*
X-8436554Y21583292D01*
X-8466847Y21608153D01*
X-8491708Y21638446D01*
X-8510180Y21673005D01*
X-8521555Y21710501D01*
X-8526000Y21755638D01*
X-8526000Y22494362D01*
X-8521555Y22539499D01*
X-8510180Y22576995D01*
X-8491708Y22611554D01*
X-8466847Y22641847D01*
X-8436554Y22666708D01*
X-8401995Y22685180D01*
X-8364499Y22696555D01*
X-8319362Y22701000D01*
X-7680638Y22701000D01*
X-7635501Y22696555D01*
X-7635501Y22696555D01*
G37*
G36*
X10414499Y23521555D02*
G01*
X10451995Y23510180D01*
X10486554Y23491708D01*
X10516847Y23466847D01*
X10541708Y23436554D01*
X10560180Y23401995D01*
X10571555Y23364499D01*
X10576000Y23319362D01*
X10576000Y22680638D01*
X10571555Y22635501D01*
X10560180Y22598005D01*
X10541708Y22563446D01*
X10516847Y22533153D01*
X10486554Y22508292D01*
X10451995Y22489820D01*
X10414499Y22478445D01*
X10369362Y22474000D01*
X9630638Y22474000D01*
X9585501Y22478445D01*
X9548005Y22489820D01*
X9513446Y22508292D01*
X9483153Y22533153D01*
X9458292Y22563446D01*
X9439820Y22598005D01*
X9428445Y22635501D01*
X9424000Y22680638D01*
X9424000Y23319362D01*
X9428445Y23364499D01*
X9439820Y23401995D01*
X9458292Y23436554D01*
X9483153Y23466847D01*
X9513446Y23491708D01*
X9548005Y23510180D01*
X9585501Y23521555D01*
X9630638Y23526000D01*
X10369362Y23526000D01*
X10414499Y23521555D01*
X10414499Y23521555D01*
G37*
G36*
X8664499Y23521555D02*
G01*
X8701995Y23510180D01*
X8736554Y23491708D01*
X8766847Y23466847D01*
X8791708Y23436554D01*
X8810180Y23401995D01*
X8821555Y23364499D01*
X8826000Y23319362D01*
X8826000Y22680638D01*
X8821555Y22635501D01*
X8810180Y22598005D01*
X8791708Y22563446D01*
X8766847Y22533153D01*
X8736554Y22508292D01*
X8701995Y22489820D01*
X8664499Y22478445D01*
X8619362Y22474000D01*
X7880638Y22474000D01*
X7835501Y22478445D01*
X7798005Y22489820D01*
X7763446Y22508292D01*
X7733153Y22533153D01*
X7708292Y22563446D01*
X7689820Y22598005D01*
X7678445Y22635501D01*
X7674000Y22680638D01*
X7674000Y23319362D01*
X7678445Y23364499D01*
X7689820Y23401995D01*
X7708292Y23436554D01*
X7733153Y23466847D01*
X7763446Y23491708D01*
X7798005Y23510180D01*
X7835501Y23521555D01*
X7880638Y23526000D01*
X8619362Y23526000D01*
X8664499Y23521555D01*
X8664499Y23521555D01*
G37*
G36*
X-11174000Y23019000D02*
G01*
X-13826000Y23019000D01*
X-13826000Y24181000D01*
X-11174000Y24181000D01*
X-11174000Y23019000D01*
X-11174000Y23019000D01*
G37*
G36*
X-7635501Y24446555D02*
G01*
X-7598005Y24435180D01*
X-7563446Y24416708D01*
X-7533153Y24391847D01*
X-7508292Y24361554D01*
X-7489820Y24326995D01*
X-7478445Y24289499D01*
X-7474000Y24244362D01*
X-7474000Y23505638D01*
X-7478445Y23460501D01*
X-7489820Y23423005D01*
X-7508292Y23388446D01*
X-7533153Y23358153D01*
X-7563446Y23333292D01*
X-7598005Y23314820D01*
X-7635501Y23303445D01*
X-7680638Y23299000D01*
X-8319362Y23299000D01*
X-8364499Y23303445D01*
X-8401995Y23314820D01*
X-8436554Y23333292D01*
X-8466847Y23358153D01*
X-8491708Y23388446D01*
X-8510180Y23423005D01*
X-8521555Y23460501D01*
X-8526000Y23505638D01*
X-8526000Y24244362D01*
X-8521555Y24289499D01*
X-8510180Y24326995D01*
X-8491708Y24361554D01*
X-8466847Y24391847D01*
X-8436554Y24416708D01*
X-8401995Y24435180D01*
X-8364499Y24446555D01*
X-8319362Y24451000D01*
X-7680638Y24451000D01*
X-7635501Y24446555D01*
X-7635501Y24446555D01*
G37*
G36*
X-9135501Y24446555D02*
G01*
X-9098005Y24435180D01*
X-9063446Y24416708D01*
X-9033153Y24391847D01*
X-9008292Y24361554D01*
X-8989820Y24326995D01*
X-8978445Y24289499D01*
X-8974000Y24244362D01*
X-8974000Y23505638D01*
X-8978445Y23460501D01*
X-8989820Y23423005D01*
X-9008292Y23388446D01*
X-9033153Y23358153D01*
X-9063446Y23333292D01*
X-9098005Y23314820D01*
X-9135501Y23303445D01*
X-9180638Y23299000D01*
X-9819362Y23299000D01*
X-9864499Y23303445D01*
X-9901995Y23314820D01*
X-9936554Y23333292D01*
X-9966847Y23358153D01*
X-9991708Y23388446D01*
X-10010180Y23423005D01*
X-10021555Y23460501D01*
X-10026000Y23505638D01*
X-10026000Y24244362D01*
X-10021555Y24289499D01*
X-10010180Y24326995D01*
X-9991708Y24361554D01*
X-9966847Y24391847D01*
X-9936554Y24416708D01*
X-9901995Y24435180D01*
X-9864499Y24446555D01*
X-9819362Y24451000D01*
X-9180638Y24451000D01*
X-9135501Y24446555D01*
X-9135501Y24446555D01*
G37*
G36*
X4361000Y29549000D02*
G01*
X3259000Y29549000D01*
X3259000Y31251000D01*
X4361000Y31251000D01*
X4361000Y29549000D01*
X4361000Y29549000D01*
G37*
G36*
X1821000Y29549000D02*
G01*
X719000Y29549000D01*
X719000Y31251000D01*
X1821000Y31251000D01*
X1821000Y29549000D01*
X1821000Y29549000D01*
G37*
G36*
X-3259000Y29549000D02*
G01*
X-4361000Y29549000D01*
X-4361000Y31251000D01*
X-3259000Y31251000D01*
X-3259000Y29549000D01*
X-3259000Y29549000D01*
G37*
M02*
