M48
; DRILL file {KiCad (5.1.2)-1} date 2019/12/12 0:14:29
; FORMAT={-:-/ absolute / metric / decimal}
; #@! TF.CreationDate,2019-12-12T00:14:29+09:00
; #@! TF.GenerationSoftware,Kicad,Pcbnew,(5.1.2)-1
FMAT,2
METRIC
T1C0.400
T2C1.000
T3C1.900
%
G90
G05
T1
X-14.25Y20.0
X-14.25Y19.0
X-14.25Y18.0
X-13.8Y1.5
X-13.8Y0.3
X-13.75Y-1.0
X-13.7Y-10.0
X-13.6Y-27.0
X-13.5Y22.53
X-13.5Y-19.0
X-13.1Y25.9
X-13.0Y20.0
X-13.0Y18.0
X-12.35Y1.0
X-12.0Y12.5
X-12.0Y9.6
X-11.7Y14.7
X-11.6Y2.953
X-10.854Y3.75
X-10.6Y22.65
X-10.1Y-1.0
X-10.0Y-17.0
X-9.95Y14.55
X-9.5Y-22.5
X-9.3Y-31.2
X-8.8Y30.8
X-8.75Y-1.0
X-8.725Y6.231
X-8.5Y19.0
X-8.5Y18.0
X-8.5Y-15.0
X-8.25Y15.0
X-8.25Y11.0
X-8.25Y8.5
X-7.8Y-1.0
X-7.75Y-2.75
X-7.75Y-4.25
X-7.75Y-5.75
X-7.6Y1.0
X-7.6Y0.0
X-7.5Y19.0
X-7.5Y18.0
X-7.5Y-20.0
X-6.75Y-1.0
X-6.6Y1.0
X-6.6Y0.0
X-6.5Y20.5
X-6.5Y19.0
X-6.5Y18.0
X-6.5Y-10.0
X-5.9Y23.9
X-5.6Y-3.9
X-5.5Y20.5
X-5.5Y9.5
X-5.5Y6.0
X-5.5Y-18.0
X-5.5Y-26.5
X-5.04Y2.574
X-4.555Y1.699
X-4.5Y0.7
X-4.0Y-11.5
X-4.0Y-15.0
X-3.9Y-5.9
X-2.825Y-3.5
X-2.7Y-7.3
X-2.0Y-19.5
X-1.8Y19.8
X-1.5Y-10.75
X-1.5Y-30.5
X-1.475Y-0.905
X-1.4Y13.1
X-1.1Y4.2
X-1.0Y-22.5
X-0.8Y30.6
X-0.8Y22.4
X-0.5Y-19.5
X2.7Y-6.6
X4.2Y-8.8
X5.4Y4.1
X5.5Y-5.25
X6.5Y-5.25
X8.0Y-1.5
X8.5Y-6.5
X8.5Y-13.0
X8.5Y-31.0
X9.0Y-18.0
X9.0Y-22.5
X9.1Y2.4
X10.7Y-10.0
X12.8Y-18.8
X13.5Y-13.0
X13.5Y-26.0
X13.8Y-1.5
X14.0Y4.5
X14.1Y-6.5
T2
X12.54Y18.16
X12.54Y7.16
X-13.5Y16.08
X-13.5Y13.54
X-13.5Y11.0
X-13.5Y8.46
X-13.5Y5.92
X-13.5Y3.38
T3
X2.54Y15.16
X2.54Y10.16
T0
M30
