G04 #@! TF.GenerationSoftware,KiCad,Pcbnew,(5.1.2)-1*
G04 #@! TF.CreationDate,2019-12-12T00:14:11+09:00*
G04 #@! TF.ProjectId,CAN_IMU,43414e5f-494d-4552-9e6b-696361645f70,rev?*
G04 #@! TF.SameCoordinates,PXcd0a3c0PY7e5ca20*
G04 #@! TF.FileFunction,Copper,L2,Bot*
G04 #@! TF.FilePolarity,Positive*
%FSLAX46Y46*%
G04 Gerber Fmt 4.6, Leading zero omitted, Abs format (unit mm)*
G04 Created by KiCad (PCBNEW (5.1.2)-1) date 2019-12-12 00:14:11*
%MOMM*%
%LPD*%
G04 APERTURE LIST*
%ADD10O,1.700000X1.700000*%
%ADD11R,1.700000X1.700000*%
%ADD12C,3.500000*%
%ADD13R,3.500000X3.500000*%
%ADD14C,1.400000*%
%ADD15C,0.800000*%
%ADD16C,0.750000*%
%ADD17C,0.250000*%
%ADD18C,0.500000*%
%ADD19C,0.254000*%
G04 APERTURE END LIST*
D10*
X-13500000Y3380000D03*
X-13500000Y5920000D03*
X-13500000Y8460000D03*
X-13500000Y11000000D03*
X-13500000Y13540000D03*
D11*
X-13500000Y16080000D03*
D12*
X2540000Y15160000D03*
D13*
X2540000Y10160000D03*
D14*
X12540000Y18160000D03*
X12540000Y7160000D03*
D15*
X8000000Y-1500000D03*
X-14250000Y19000000D03*
X-14250000Y20000000D03*
X-14250000Y18000000D03*
X-13000000Y20000000D03*
X-13000000Y18000000D03*
X-13750000Y-1000000D03*
X-13800000Y1500000D03*
X-13800000Y300000D03*
X-13700000Y-10000000D03*
X-13600000Y-27000000D03*
X-9300000Y-31200000D03*
X-13500000Y-19000000D03*
X-9500000Y-22500000D03*
X-5500000Y-26500000D03*
X-1500000Y-30500000D03*
X8500000Y-31000000D03*
X13500000Y-26000000D03*
X9000000Y-22500000D03*
X-1000000Y-22500000D03*
X8500000Y-6500000D03*
X8500000Y-13000000D03*
X13500000Y-13000000D03*
X9000000Y-18000000D03*
X-500000Y-19500000D03*
X-2000000Y-19500000D03*
X-5500000Y-18000000D03*
X-7500000Y-20000000D03*
X-10000000Y-17000000D03*
X-8500000Y-15000000D03*
X-6500000Y-10000000D03*
X-4000000Y-11500000D03*
X-4000000Y-15000000D03*
X-6600000Y0D03*
X-6600000Y1000000D03*
X-7600000Y1000000D03*
X-7600000Y0D03*
X-10100000Y-1000000D03*
X-5600000Y-3900000D03*
X-2700000Y-7300000D03*
X4200000Y-8800000D03*
X2700000Y-6600000D03*
X-1100000Y4200000D03*
X14000000Y4500000D03*
X13800000Y-1500000D03*
X9100000Y2400000D03*
X5400000Y4100000D03*
X10700000Y-10000000D03*
X12800000Y-18800000D03*
X-800000Y30600000D03*
X-8800000Y30800000D03*
X-800000Y22400000D03*
X-5900000Y23900000D03*
X-13100000Y25900000D03*
X-1800000Y19800000D03*
X-1400000Y13100000D03*
X-9950000Y14550000D03*
X-11700000Y14700000D03*
X-8250000Y15000000D03*
X-12000000Y12500000D03*
X-12000000Y9600000D03*
X-1475000Y-905000D03*
X14100000Y-6500000D03*
X-8500000Y19000000D03*
X-8500000Y18000000D03*
X-7500000Y18000000D03*
X-7500000Y19000000D03*
X-6500000Y19000000D03*
X-6500000Y18000000D03*
X-8750000Y-1000000D03*
X-6750000Y-1000000D03*
X-7800000Y-1000000D03*
X-10600000Y22650000D03*
X-13500000Y22530002D03*
X-6500000Y20500000D03*
X-5500000Y20500000D03*
X5500000Y-5250000D03*
X6500000Y-5250000D03*
X-2824979Y-3500000D03*
X-5039584Y2573637D03*
X-1500000Y-10750000D03*
X-4554798Y1698990D03*
X-4500000Y700000D03*
X-3900000Y-5899992D03*
X-5500000Y6000000D03*
X-5500000Y9500000D03*
X-8725010Y6230632D03*
X-8250000Y8500000D03*
X-8250000Y11000000D03*
X-7750001Y-2750000D03*
X-10854083Y3750008D03*
X-7750000Y-4250000D03*
X-11599989Y2952702D03*
X-7750000Y-5750000D03*
X-12350021Y1000000D03*
D16*
X-6600000Y0D02*
X-6600000Y1000000D01*
X-6600000Y1000000D02*
X-7600000Y1000000D01*
X-10420000Y16080000D02*
X-8500000Y18000000D01*
X-13500000Y16080000D02*
X-10420000Y16080000D01*
X-8750000Y-1000000D02*
X-7800000Y-1000000D01*
X-7800000Y-1000000D02*
X-6750000Y-1000000D01*
X-8750000Y-434315D02*
X-8750000Y-1000000D01*
X-8800000Y-384315D02*
X-8750000Y-434315D01*
X-8800000Y4400000D02*
X-8800000Y-384315D01*
X-6500000Y6700000D02*
X-8800000Y4400000D01*
X-6500000Y18000000D02*
X-6500000Y6700000D01*
D17*
X-10600000Y22650000D02*
X-13380002Y22650000D01*
X-13380002Y22650000D02*
X-13500000Y22530002D01*
D18*
X-6500000Y20500000D02*
X-5500000Y20500000D01*
X-5500000Y19934315D02*
X-4500000Y18934315D01*
X-5500000Y20500000D02*
X-5500000Y19934315D01*
X-4500000Y18934315D02*
X-4500000Y4750000D01*
X-4500000Y4750000D02*
X5500000Y-5250000D01*
X5500000Y-5250000D02*
X6500000Y-5250000D01*
D17*
X-4388370Y2573637D02*
X-4473899Y2573637D01*
X-2824979Y-3500000D02*
X-2824979Y1010246D01*
X-2824979Y1010246D02*
X-4388370Y2573637D01*
X-4473899Y2573637D02*
X-5039584Y2573637D01*
X-4425986Y1698990D02*
X-4554798Y1698990D01*
X-3774998Y1048002D02*
X-4425986Y1698990D01*
X-3774998Y-4725002D02*
X-3774998Y1048002D01*
X-1500000Y-10750000D02*
X-1500000Y-7000000D01*
X-1500000Y-7000000D02*
X-3774998Y-4725002D01*
X-4500000Y700000D02*
X-4500000Y-5299992D01*
X-4500000Y-5299992D02*
X-4299999Y-5499993D01*
X-4299999Y-5499993D02*
X-3900000Y-5899992D01*
X-5500000Y6000000D02*
X-5500000Y9500000D01*
X-9035642Y5920000D02*
X-8725010Y6230632D01*
X-13500000Y5920000D02*
X-9035642Y5920000D01*
X-13500000Y8460000D02*
X-8290000Y8460000D01*
X-8290000Y8460000D02*
X-8250000Y8500000D01*
X-13500000Y13540000D02*
X-10790000Y13540000D01*
X-10790000Y13540000D02*
X-8250000Y11000000D01*
X-9750000Y-2750000D02*
X-7750001Y-2750000D01*
X-10854093Y-1645907D02*
X-9750000Y-2750000D01*
X-10854093Y3184313D02*
X-10854093Y-1645907D01*
X-10854083Y3750008D02*
X-10854083Y3184323D01*
X-10854083Y3184323D02*
X-10854093Y3184313D01*
X-9350000Y-4250000D02*
X-7750000Y-4250000D01*
X-11599989Y2952702D02*
X-11599989Y-2000011D01*
X-11599989Y-2000011D02*
X-9350000Y-4250000D01*
X-9250000Y-5750000D02*
X-7750000Y-5750000D01*
X-12350021Y1000000D02*
X-12350021Y-2649979D01*
X-12350021Y-2649979D02*
X-9250000Y-5750000D01*
D19*
G36*
X-7000000Y19365000D02*
G01*
X-6177649Y19365000D01*
X-6156532Y19339269D01*
X-6156529Y19339266D01*
X-6128816Y19305498D01*
X-6127000Y19304008D01*
X-6127000Y17627000D01*
X-8873000Y17627000D01*
X-8873000Y19373000D01*
X-7081227Y19373000D01*
X-7000000Y19365000D01*
X-7000000Y19365000D01*
G37*
X-7000000Y19365000D02*
X-6177649Y19365000D01*
X-6156532Y19339269D01*
X-6156529Y19339266D01*
X-6128816Y19305498D01*
X-6127000Y19304008D01*
X-6127000Y17627000D01*
X-8873000Y17627000D01*
X-8873000Y19373000D01*
X-7081227Y19373000D01*
X-7000000Y19365000D01*
G36*
X-5127000Y20127000D02*
G01*
X-6873000Y20127000D01*
X-6873000Y20873000D01*
X-5127000Y20873000D01*
X-5127000Y20127000D01*
X-5127000Y20127000D01*
G37*
X-5127000Y20127000D02*
X-6873000Y20127000D01*
X-6873000Y20873000D01*
X-5127000Y20873000D01*
X-5127000Y20127000D01*
G36*
X-127000Y5000000D02*
G01*
X-124560Y4975224D01*
X-117333Y4951399D01*
X-105597Y4929443D01*
X-89803Y4910197D01*
X-70557Y4894403D01*
X-48601Y4882667D01*
X-24776Y4875440D01*
X0Y4873000D01*
X14340001Y4873000D01*
X14340000Y-27470608D01*
X14268827Y-28268083D01*
X14065344Y-29011890D01*
X13733363Y-29707904D01*
X13283374Y-30334130D01*
X12729597Y-30870777D01*
X12089549Y-31300871D01*
X11383447Y-31610829D01*
X10628543Y-31792065D01*
X9975793Y-31840000D01*
X-9970608Y-31840000D01*
X-10768083Y-31768827D01*
X-11511890Y-31565344D01*
X-12207904Y-31233363D01*
X-12834130Y-30783374D01*
X-13370777Y-30229597D01*
X-13800871Y-29589549D01*
X-14110829Y-28883447D01*
X-14292065Y-28128543D01*
X-14335884Y-27531834D01*
X-12279778Y-27531834D01*
X-12230177Y-27974039D01*
X-12095629Y-28398188D01*
X-11881259Y-28788125D01*
X-11595232Y-29128998D01*
X-11248444Y-29407823D01*
X-10854103Y-29613979D01*
X-10427229Y-29739615D01*
X-9984083Y-29779944D01*
X-9541542Y-29733432D01*
X-9116464Y-29601848D01*
X-8725040Y-29390206D01*
X-8382179Y-29106566D01*
X-8100940Y-28761733D01*
X-7892035Y-28368840D01*
X-7763422Y-27942854D01*
X-7723122Y-27531834D01*
X7720222Y-27531834D01*
X7769823Y-27974039D01*
X7904371Y-28398188D01*
X8118741Y-28788125D01*
X8404768Y-29128998D01*
X8751556Y-29407823D01*
X9145897Y-29613979D01*
X9572771Y-29739615D01*
X10015917Y-29779944D01*
X10458458Y-29733432D01*
X10883536Y-29601848D01*
X11274960Y-29390206D01*
X11617821Y-29106566D01*
X11899060Y-28761733D01*
X12107965Y-28368840D01*
X12236578Y-27942854D01*
X12280000Y-27500000D01*
X12279111Y-27436339D01*
X12223341Y-26994869D01*
X12082884Y-26572640D01*
X11863090Y-26185734D01*
X11572333Y-25848888D01*
X11221685Y-25574932D01*
X10824504Y-25374302D01*
X10395918Y-25254638D01*
X9952251Y-25220500D01*
X9510403Y-25273187D01*
X9087204Y-25410693D01*
X8698773Y-25627780D01*
X8359905Y-25916179D01*
X8083508Y-26264905D01*
X7880110Y-26660676D01*
X7757457Y-27088416D01*
X7720222Y-27531834D01*
X-7723122Y-27531834D01*
X-7720000Y-27500000D01*
X-7720889Y-27436339D01*
X-7776659Y-26994869D01*
X-7917116Y-26572640D01*
X-8136910Y-26185734D01*
X-8427667Y-25848888D01*
X-8778315Y-25574932D01*
X-9175496Y-25374302D01*
X-9604082Y-25254638D01*
X-10047749Y-25220500D01*
X-10489597Y-25273187D01*
X-10912796Y-25410693D01*
X-11301227Y-25627780D01*
X-11640095Y-25916179D01*
X-11916492Y-26264905D01*
X-12119890Y-26660676D01*
X-12242543Y-27088416D01*
X-12279778Y-27531834D01*
X-14335884Y-27531834D01*
X-14340000Y-27475793D01*
X-14340000Y2148310D01*
X-14329014Y2139294D01*
X-14071034Y2001401D01*
X-13791111Y1916487D01*
X-13572950Y1895000D01*
X-13427050Y1895000D01*
X-13208889Y1916487D01*
X-12928966Y2001401D01*
X-12670986Y2139294D01*
X-12444866Y2324866D01*
X-12434062Y2338030D01*
X-12403926Y2292928D01*
X-12359989Y2248991D01*
X-12359989Y2035000D01*
X-12451960Y2035000D01*
X-12651919Y1995226D01*
X-12840277Y1917205D01*
X-13009795Y1803937D01*
X-13153958Y1659774D01*
X-13267226Y1490256D01*
X-13345247Y1301898D01*
X-13385021Y1101939D01*
X-13385021Y898061D01*
X-13345247Y698102D01*
X-13267226Y509744D01*
X-13153958Y340226D01*
X-13110021Y296289D01*
X-13110020Y-2612647D01*
X-13113697Y-2649979D01*
X-13110020Y-2687312D01*
X-13102497Y-2763688D01*
X-13099023Y-2798964D01*
X-13055567Y-2942225D01*
X-12984995Y-3074255D01*
X-12913820Y-3160981D01*
X-12890021Y-3189980D01*
X-12861023Y-3213778D01*
X-9813799Y-6261003D01*
X-9790001Y-6290001D01*
X-9674276Y-6384974D01*
X-9542247Y-6455546D01*
X-9398986Y-6499003D01*
X-9287333Y-6510000D01*
X-9287325Y-6510000D01*
X-9250000Y-6513676D01*
X-9212675Y-6510000D01*
X-8453711Y-6510000D01*
X-8409774Y-6553937D01*
X-8240256Y-6667205D01*
X-8051898Y-6745226D01*
X-7851939Y-6785000D01*
X-7648061Y-6785000D01*
X-7448102Y-6745226D01*
X-7259744Y-6667205D01*
X-7090226Y-6553937D01*
X-6946063Y-6409774D01*
X-6832795Y-6240256D01*
X-6754774Y-6051898D01*
X-6715000Y-5851939D01*
X-6715000Y-5648061D01*
X-6754774Y-5448102D01*
X-6832795Y-5259744D01*
X-6946063Y-5090226D01*
X-7036289Y-5000000D01*
X-6946063Y-4909774D01*
X-6832795Y-4740256D01*
X-6754774Y-4551898D01*
X-6715000Y-4351939D01*
X-6715000Y-4148061D01*
X-6754774Y-3948102D01*
X-6832795Y-3759744D01*
X-6946063Y-3590226D01*
X-7036289Y-3500000D01*
X-6946064Y-3409774D01*
X-6832796Y-3240256D01*
X-6754775Y-3051898D01*
X-6715001Y-2851939D01*
X-6715001Y-2648061D01*
X-6754775Y-2448102D01*
X-6832796Y-2259744D01*
X-6946064Y-2090226D01*
X-7026290Y-2010000D01*
X-6977623Y-2010000D01*
X-6851939Y-2035000D01*
X-6648061Y-2035000D01*
X-6448102Y-1995226D01*
X-6259744Y-1917205D01*
X-6090226Y-1803937D01*
X-5946063Y-1659774D01*
X-5832795Y-1490256D01*
X-5754774Y-1301898D01*
X-5715000Y-1101939D01*
X-5715000Y-898061D01*
X-5754774Y-698102D01*
X-5832795Y-509744D01*
X-5946063Y-340226D01*
X-6090226Y-196063D01*
X-6259744Y-82795D01*
X-6448102Y-4774D01*
X-6648061Y35000D01*
X-6851939Y35000D01*
X-6977623Y10000D01*
X-7572377Y10000D01*
X-7698061Y35000D01*
X-7790000Y35000D01*
X-7790000Y3981645D01*
X-6354999Y5416646D01*
X-6303937Y5340226D01*
X-6159774Y5196063D01*
X-5990256Y5082795D01*
X-5801898Y5004774D01*
X-5601939Y4965000D01*
X-5398061Y4965000D01*
X-5384999Y4967598D01*
X-5384999Y4793479D01*
X-5389281Y4750000D01*
X-5372195Y4576510D01*
X-5321588Y4409687D01*
X-5239410Y4255941D01*
X-5156532Y4154954D01*
X-5156529Y4154951D01*
X-5128816Y4121183D01*
X-5095048Y4093470D01*
X-4333486Y3331908D01*
X-4334216Y3331980D01*
X-4379810Y3377574D01*
X-4549328Y3490842D01*
X-4737686Y3568863D01*
X-4937645Y3608637D01*
X-5141523Y3608637D01*
X-5341482Y3568863D01*
X-5529840Y3490842D01*
X-5699358Y3377574D01*
X-5843521Y3233411D01*
X-5956789Y3063893D01*
X-6034810Y2875535D01*
X-6074584Y2675576D01*
X-6074584Y2471698D01*
X-6034810Y2271739D01*
X-5956789Y2083381D01*
X-5843521Y1913863D01*
X-5699358Y1769700D01*
X-5589798Y1696495D01*
X-5589798Y1597051D01*
X-5550024Y1397092D01*
X-5472003Y1208734D01*
X-5433451Y1151036D01*
X-5495226Y1001898D01*
X-5535000Y801939D01*
X-5535000Y598061D01*
X-5495226Y398102D01*
X-5417205Y209744D01*
X-5303937Y40226D01*
X-5260000Y-3711D01*
X-5259999Y-5262660D01*
X-5263676Y-5299992D01*
X-5259999Y-5337325D01*
X-5258651Y-5351006D01*
X-5249002Y-5448977D01*
X-5205546Y-5592238D01*
X-5134974Y-5724268D01*
X-5063799Y-5810994D01*
X-5040000Y-5839993D01*
X-5011002Y-5863791D01*
X-4935000Y-5939793D01*
X-4935000Y-6001931D01*
X-4895226Y-6201890D01*
X-4817205Y-6390248D01*
X-4703937Y-6559766D01*
X-4559774Y-6703929D01*
X-4390256Y-6817197D01*
X-4201898Y-6895218D01*
X-4001939Y-6934992D01*
X-3798061Y-6934992D01*
X-3598102Y-6895218D01*
X-3409744Y-6817197D01*
X-3240226Y-6703929D01*
X-3096063Y-6559766D01*
X-3063608Y-6511194D01*
X-2259999Y-7314803D01*
X-2260000Y-10046289D01*
X-2303937Y-10090226D01*
X-2417205Y-10259744D01*
X-2495226Y-10448102D01*
X-2535000Y-10648061D01*
X-2535000Y-10851939D01*
X-2495226Y-11051898D01*
X-2417205Y-11240256D01*
X-2303937Y-11409774D01*
X-2159774Y-11553937D01*
X-1990256Y-11667205D01*
X-1801898Y-11745226D01*
X-1601939Y-11785000D01*
X-1398061Y-11785000D01*
X-1198102Y-11745226D01*
X-1009744Y-11667205D01*
X-840226Y-11553937D01*
X-696063Y-11409774D01*
X-582795Y-11240256D01*
X-504774Y-11051898D01*
X-465000Y-10851939D01*
X-465000Y-10648061D01*
X-504774Y-10448102D01*
X-582795Y-10259744D01*
X-696063Y-10090226D01*
X-740000Y-10046289D01*
X-740000Y-7037322D01*
X-736324Y-6999999D01*
X-740000Y-6962676D01*
X-740000Y-6962667D01*
X-750997Y-6851014D01*
X-794454Y-6707753D01*
X-825862Y-6648994D01*
X-865026Y-6575723D01*
X-936201Y-6488997D01*
X-959999Y-6459999D01*
X-988997Y-6436201D01*
X-2890199Y-4535000D01*
X-2723040Y-4535000D01*
X-2523081Y-4495226D01*
X-2334723Y-4417205D01*
X-2165205Y-4303937D01*
X-2021042Y-4159774D01*
X-1907774Y-3990256D01*
X-1829753Y-3801898D01*
X-1789979Y-3601939D01*
X-1789979Y-3398061D01*
X-1829753Y-3198102D01*
X-1907774Y-3009744D01*
X-2021042Y-2840226D01*
X-2064979Y-2796289D01*
X-2064979Y972921D01*
X-2061303Y1010246D01*
X-2064979Y1047571D01*
X-2064979Y1047579D01*
X-2066708Y1065129D01*
X4493465Y-5495044D01*
X4504774Y-5551898D01*
X4582795Y-5740256D01*
X4696063Y-5909774D01*
X4840226Y-6053937D01*
X5009744Y-6167205D01*
X5198102Y-6245226D01*
X5398061Y-6285000D01*
X5601939Y-6285000D01*
X5801898Y-6245226D01*
X5990256Y-6167205D01*
X6000000Y-6160694D01*
X6009744Y-6167205D01*
X6198102Y-6245226D01*
X6398061Y-6285000D01*
X6601939Y-6285000D01*
X6801898Y-6245226D01*
X6990256Y-6167205D01*
X7159774Y-6053937D01*
X7303937Y-5909774D01*
X7417205Y-5740256D01*
X7495226Y-5551898D01*
X7535000Y-5351939D01*
X7535000Y-5148061D01*
X7495226Y-4948102D01*
X7417205Y-4759744D01*
X7303937Y-4590226D01*
X7159774Y-4446063D01*
X6990256Y-4332795D01*
X6801898Y-4254774D01*
X6601939Y-4215000D01*
X6398061Y-4215000D01*
X6198102Y-4254774D01*
X6009744Y-4332795D01*
X6000000Y-4339306D01*
X5990256Y-4332795D01*
X5801898Y-4254774D01*
X5745044Y-4243465D01*
X-3615000Y5116578D01*
X-3615000Y18890846D01*
X-3610719Y18934315D01*
X-3615000Y18977784D01*
X-3615000Y18977792D01*
X-3627805Y19107805D01*
X-3629298Y19112726D01*
X-3678411Y19274629D01*
X-3760589Y19428374D01*
X-3843468Y19529362D01*
X-3843470Y19529364D01*
X-3871183Y19563132D01*
X-3904950Y19590844D01*
X-4365000Y20050894D01*
X-4365000Y21000000D01*
X-4377201Y21123882D01*
X-4413336Y21243004D01*
X-4472017Y21352787D01*
X-4550987Y21449013D01*
X-4647213Y21527983D01*
X-4756996Y21586664D01*
X-4876118Y21622799D01*
X-5000000Y21635000D01*
X-7000000Y21635000D01*
X-7123882Y21622799D01*
X-7243004Y21586664D01*
X-7352787Y21527983D01*
X-7449013Y21449013D01*
X-7527983Y21352787D01*
X-7586664Y21243004D01*
X-7622799Y21123882D01*
X-7635000Y21000000D01*
X-7635000Y20135000D01*
X-9000000Y20135000D01*
X-9123882Y20122799D01*
X-9243004Y20086664D01*
X-9352787Y20027983D01*
X-9449013Y19949013D01*
X-9527983Y19852787D01*
X-9586664Y19743004D01*
X-9622799Y19623882D01*
X-9635000Y19500000D01*
X-9635000Y18293355D01*
X-10838355Y17090000D01*
X-12034962Y17090000D01*
X-12060498Y17174180D01*
X-12119463Y17284494D01*
X-12198815Y17381185D01*
X-12295506Y17460537D01*
X-12405820Y17519502D01*
X-12525518Y17555812D01*
X-12650000Y17568072D01*
X-14340000Y17568072D01*
X-14340000Y21924200D01*
X-14303937Y21870228D01*
X-14159774Y21726065D01*
X-13990256Y21612797D01*
X-13801898Y21534776D01*
X-13601939Y21495002D01*
X-13398061Y21495002D01*
X-13198102Y21534776D01*
X-13009744Y21612797D01*
X-12840226Y21726065D01*
X-12696063Y21870228D01*
X-12682852Y21890000D01*
X-11303711Y21890000D01*
X-11259774Y21846063D01*
X-11090256Y21732795D01*
X-10901898Y21654774D01*
X-10701939Y21615000D01*
X-10498061Y21615000D01*
X-10298102Y21654774D01*
X-10109744Y21732795D01*
X-9940226Y21846063D01*
X-9796063Y21990226D01*
X-9682795Y22159744D01*
X-9604774Y22348102D01*
X-9565000Y22548061D01*
X-9565000Y22751939D01*
X-9604774Y22951898D01*
X-9682795Y23140256D01*
X-9796063Y23309774D01*
X-9940226Y23453937D01*
X-10109744Y23567205D01*
X-10298102Y23645226D01*
X-10498061Y23685000D01*
X-10701939Y23685000D01*
X-10901898Y23645226D01*
X-11090256Y23567205D01*
X-11259774Y23453937D01*
X-11303711Y23410000D01*
X-12954060Y23410000D01*
X-13009744Y23447207D01*
X-13198102Y23525228D01*
X-13398061Y23565002D01*
X-13601939Y23565002D01*
X-13801898Y23525228D01*
X-13990256Y23447207D01*
X-14159774Y23333939D01*
X-14303937Y23189776D01*
X-14340000Y23135804D01*
X-14340000Y27468166D01*
X-12279778Y27468166D01*
X-12230177Y27025961D01*
X-12095629Y26601812D01*
X-11881259Y26211875D01*
X-11595232Y25871002D01*
X-11248444Y25592177D01*
X-10854103Y25386021D01*
X-10427229Y25260385D01*
X-9984083Y25220056D01*
X-9541542Y25266568D01*
X-9116464Y25398152D01*
X-8725040Y25609794D01*
X-8382179Y25893434D01*
X-8100940Y26238267D01*
X-7892035Y26631160D01*
X-7763422Y27057146D01*
X-7720000Y27500000D01*
X-7720889Y27563661D01*
X-7776659Y28005131D01*
X-7917116Y28427360D01*
X-8136910Y28814266D01*
X-8427667Y29151112D01*
X-8778315Y29425068D01*
X-9175496Y29625698D01*
X-9604082Y29745362D01*
X-10047749Y29779500D01*
X-10489597Y29726813D01*
X-10912796Y29589307D01*
X-11301227Y29372220D01*
X-11640095Y29083821D01*
X-11916492Y28735095D01*
X-12119890Y28339324D01*
X-12242543Y27911584D01*
X-12279778Y27468166D01*
X-14340000Y27468166D01*
X-14340000Y27470608D01*
X-14268827Y28268083D01*
X-14065344Y29011891D01*
X-13733362Y29707905D01*
X-13283374Y30334130D01*
X-12729597Y30870777D01*
X-12089549Y31300871D01*
X-11383447Y31610829D01*
X-10628543Y31792065D01*
X-9975793Y31840000D01*
X-127000Y31840000D01*
X-127000Y5000000D01*
X-127000Y5000000D01*
G37*
X-127000Y5000000D02*
X-124560Y4975224D01*
X-117333Y4951399D01*
X-105597Y4929443D01*
X-89803Y4910197D01*
X-70557Y4894403D01*
X-48601Y4882667D01*
X-24776Y4875440D01*
X0Y4873000D01*
X14340001Y4873000D01*
X14340000Y-27470608D01*
X14268827Y-28268083D01*
X14065344Y-29011890D01*
X13733363Y-29707904D01*
X13283374Y-30334130D01*
X12729597Y-30870777D01*
X12089549Y-31300871D01*
X11383447Y-31610829D01*
X10628543Y-31792065D01*
X9975793Y-31840000D01*
X-9970608Y-31840000D01*
X-10768083Y-31768827D01*
X-11511890Y-31565344D01*
X-12207904Y-31233363D01*
X-12834130Y-30783374D01*
X-13370777Y-30229597D01*
X-13800871Y-29589549D01*
X-14110829Y-28883447D01*
X-14292065Y-28128543D01*
X-14335884Y-27531834D01*
X-12279778Y-27531834D01*
X-12230177Y-27974039D01*
X-12095629Y-28398188D01*
X-11881259Y-28788125D01*
X-11595232Y-29128998D01*
X-11248444Y-29407823D01*
X-10854103Y-29613979D01*
X-10427229Y-29739615D01*
X-9984083Y-29779944D01*
X-9541542Y-29733432D01*
X-9116464Y-29601848D01*
X-8725040Y-29390206D01*
X-8382179Y-29106566D01*
X-8100940Y-28761733D01*
X-7892035Y-28368840D01*
X-7763422Y-27942854D01*
X-7723122Y-27531834D01*
X7720222Y-27531834D01*
X7769823Y-27974039D01*
X7904371Y-28398188D01*
X8118741Y-28788125D01*
X8404768Y-29128998D01*
X8751556Y-29407823D01*
X9145897Y-29613979D01*
X9572771Y-29739615D01*
X10015917Y-29779944D01*
X10458458Y-29733432D01*
X10883536Y-29601848D01*
X11274960Y-29390206D01*
X11617821Y-29106566D01*
X11899060Y-28761733D01*
X12107965Y-28368840D01*
X12236578Y-27942854D01*
X12280000Y-27500000D01*
X12279111Y-27436339D01*
X12223341Y-26994869D01*
X12082884Y-26572640D01*
X11863090Y-26185734D01*
X11572333Y-25848888D01*
X11221685Y-25574932D01*
X10824504Y-25374302D01*
X10395918Y-25254638D01*
X9952251Y-25220500D01*
X9510403Y-25273187D01*
X9087204Y-25410693D01*
X8698773Y-25627780D01*
X8359905Y-25916179D01*
X8083508Y-26264905D01*
X7880110Y-26660676D01*
X7757457Y-27088416D01*
X7720222Y-27531834D01*
X-7723122Y-27531834D01*
X-7720000Y-27500000D01*
X-7720889Y-27436339D01*
X-7776659Y-26994869D01*
X-7917116Y-26572640D01*
X-8136910Y-26185734D01*
X-8427667Y-25848888D01*
X-8778315Y-25574932D01*
X-9175496Y-25374302D01*
X-9604082Y-25254638D01*
X-10047749Y-25220500D01*
X-10489597Y-25273187D01*
X-10912796Y-25410693D01*
X-11301227Y-25627780D01*
X-11640095Y-25916179D01*
X-11916492Y-26264905D01*
X-12119890Y-26660676D01*
X-12242543Y-27088416D01*
X-12279778Y-27531834D01*
X-14335884Y-27531834D01*
X-14340000Y-27475793D01*
X-14340000Y2148310D01*
X-14329014Y2139294D01*
X-14071034Y2001401D01*
X-13791111Y1916487D01*
X-13572950Y1895000D01*
X-13427050Y1895000D01*
X-13208889Y1916487D01*
X-12928966Y2001401D01*
X-12670986Y2139294D01*
X-12444866Y2324866D01*
X-12434062Y2338030D01*
X-12403926Y2292928D01*
X-12359989Y2248991D01*
X-12359989Y2035000D01*
X-12451960Y2035000D01*
X-12651919Y1995226D01*
X-12840277Y1917205D01*
X-13009795Y1803937D01*
X-13153958Y1659774D01*
X-13267226Y1490256D01*
X-13345247Y1301898D01*
X-13385021Y1101939D01*
X-13385021Y898061D01*
X-13345247Y698102D01*
X-13267226Y509744D01*
X-13153958Y340226D01*
X-13110021Y296289D01*
X-13110020Y-2612647D01*
X-13113697Y-2649979D01*
X-13110020Y-2687312D01*
X-13102497Y-2763688D01*
X-13099023Y-2798964D01*
X-13055567Y-2942225D01*
X-12984995Y-3074255D01*
X-12913820Y-3160981D01*
X-12890021Y-3189980D01*
X-12861023Y-3213778D01*
X-9813799Y-6261003D01*
X-9790001Y-6290001D01*
X-9674276Y-6384974D01*
X-9542247Y-6455546D01*
X-9398986Y-6499003D01*
X-9287333Y-6510000D01*
X-9287325Y-6510000D01*
X-9250000Y-6513676D01*
X-9212675Y-6510000D01*
X-8453711Y-6510000D01*
X-8409774Y-6553937D01*
X-8240256Y-6667205D01*
X-8051898Y-6745226D01*
X-7851939Y-6785000D01*
X-7648061Y-6785000D01*
X-7448102Y-6745226D01*
X-7259744Y-6667205D01*
X-7090226Y-6553937D01*
X-6946063Y-6409774D01*
X-6832795Y-6240256D01*
X-6754774Y-6051898D01*
X-6715000Y-5851939D01*
X-6715000Y-5648061D01*
X-6754774Y-5448102D01*
X-6832795Y-5259744D01*
X-6946063Y-5090226D01*
X-7036289Y-5000000D01*
X-6946063Y-4909774D01*
X-6832795Y-4740256D01*
X-6754774Y-4551898D01*
X-6715000Y-4351939D01*
X-6715000Y-4148061D01*
X-6754774Y-3948102D01*
X-6832795Y-3759744D01*
X-6946063Y-3590226D01*
X-7036289Y-3500000D01*
X-6946064Y-3409774D01*
X-6832796Y-3240256D01*
X-6754775Y-3051898D01*
X-6715001Y-2851939D01*
X-6715001Y-2648061D01*
X-6754775Y-2448102D01*
X-6832796Y-2259744D01*
X-6946064Y-2090226D01*
X-7026290Y-2010000D01*
X-6977623Y-2010000D01*
X-6851939Y-2035000D01*
X-6648061Y-2035000D01*
X-6448102Y-1995226D01*
X-6259744Y-1917205D01*
X-6090226Y-1803937D01*
X-5946063Y-1659774D01*
X-5832795Y-1490256D01*
X-5754774Y-1301898D01*
X-5715000Y-1101939D01*
X-5715000Y-898061D01*
X-5754774Y-698102D01*
X-5832795Y-509744D01*
X-5946063Y-340226D01*
X-6090226Y-196063D01*
X-6259744Y-82795D01*
X-6448102Y-4774D01*
X-6648061Y35000D01*
X-6851939Y35000D01*
X-6977623Y10000D01*
X-7572377Y10000D01*
X-7698061Y35000D01*
X-7790000Y35000D01*
X-7790000Y3981645D01*
X-6354999Y5416646D01*
X-6303937Y5340226D01*
X-6159774Y5196063D01*
X-5990256Y5082795D01*
X-5801898Y5004774D01*
X-5601939Y4965000D01*
X-5398061Y4965000D01*
X-5384999Y4967598D01*
X-5384999Y4793479D01*
X-5389281Y4750000D01*
X-5372195Y4576510D01*
X-5321588Y4409687D01*
X-5239410Y4255941D01*
X-5156532Y4154954D01*
X-5156529Y4154951D01*
X-5128816Y4121183D01*
X-5095048Y4093470D01*
X-4333486Y3331908D01*
X-4334216Y3331980D01*
X-4379810Y3377574D01*
X-4549328Y3490842D01*
X-4737686Y3568863D01*
X-4937645Y3608637D01*
X-5141523Y3608637D01*
X-5341482Y3568863D01*
X-5529840Y3490842D01*
X-5699358Y3377574D01*
X-5843521Y3233411D01*
X-5956789Y3063893D01*
X-6034810Y2875535D01*
X-6074584Y2675576D01*
X-6074584Y2471698D01*
X-6034810Y2271739D01*
X-5956789Y2083381D01*
X-5843521Y1913863D01*
X-5699358Y1769700D01*
X-5589798Y1696495D01*
X-5589798Y1597051D01*
X-5550024Y1397092D01*
X-5472003Y1208734D01*
X-5433451Y1151036D01*
X-5495226Y1001898D01*
X-5535000Y801939D01*
X-5535000Y598061D01*
X-5495226Y398102D01*
X-5417205Y209744D01*
X-5303937Y40226D01*
X-5260000Y-3711D01*
X-5259999Y-5262660D01*
X-5263676Y-5299992D01*
X-5259999Y-5337325D01*
X-5258651Y-5351006D01*
X-5249002Y-5448977D01*
X-5205546Y-5592238D01*
X-5134974Y-5724268D01*
X-5063799Y-5810994D01*
X-5040000Y-5839993D01*
X-5011002Y-5863791D01*
X-4935000Y-5939793D01*
X-4935000Y-6001931D01*
X-4895226Y-6201890D01*
X-4817205Y-6390248D01*
X-4703937Y-6559766D01*
X-4559774Y-6703929D01*
X-4390256Y-6817197D01*
X-4201898Y-6895218D01*
X-4001939Y-6934992D01*
X-3798061Y-6934992D01*
X-3598102Y-6895218D01*
X-3409744Y-6817197D01*
X-3240226Y-6703929D01*
X-3096063Y-6559766D01*
X-3063608Y-6511194D01*
X-2259999Y-7314803D01*
X-2260000Y-10046289D01*
X-2303937Y-10090226D01*
X-2417205Y-10259744D01*
X-2495226Y-10448102D01*
X-2535000Y-10648061D01*
X-2535000Y-10851939D01*
X-2495226Y-11051898D01*
X-2417205Y-11240256D01*
X-2303937Y-11409774D01*
X-2159774Y-11553937D01*
X-1990256Y-11667205D01*
X-1801898Y-11745226D01*
X-1601939Y-11785000D01*
X-1398061Y-11785000D01*
X-1198102Y-11745226D01*
X-1009744Y-11667205D01*
X-840226Y-11553937D01*
X-696063Y-11409774D01*
X-582795Y-11240256D01*
X-504774Y-11051898D01*
X-465000Y-10851939D01*
X-465000Y-10648061D01*
X-504774Y-10448102D01*
X-582795Y-10259744D01*
X-696063Y-10090226D01*
X-740000Y-10046289D01*
X-740000Y-7037322D01*
X-736324Y-6999999D01*
X-740000Y-6962676D01*
X-740000Y-6962667D01*
X-750997Y-6851014D01*
X-794454Y-6707753D01*
X-825862Y-6648994D01*
X-865026Y-6575723D01*
X-936201Y-6488997D01*
X-959999Y-6459999D01*
X-988997Y-6436201D01*
X-2890199Y-4535000D01*
X-2723040Y-4535000D01*
X-2523081Y-4495226D01*
X-2334723Y-4417205D01*
X-2165205Y-4303937D01*
X-2021042Y-4159774D01*
X-1907774Y-3990256D01*
X-1829753Y-3801898D01*
X-1789979Y-3601939D01*
X-1789979Y-3398061D01*
X-1829753Y-3198102D01*
X-1907774Y-3009744D01*
X-2021042Y-2840226D01*
X-2064979Y-2796289D01*
X-2064979Y972921D01*
X-2061303Y1010246D01*
X-2064979Y1047571D01*
X-2064979Y1047579D01*
X-2066708Y1065129D01*
X4493465Y-5495044D01*
X4504774Y-5551898D01*
X4582795Y-5740256D01*
X4696063Y-5909774D01*
X4840226Y-6053937D01*
X5009744Y-6167205D01*
X5198102Y-6245226D01*
X5398061Y-6285000D01*
X5601939Y-6285000D01*
X5801898Y-6245226D01*
X5990256Y-6167205D01*
X6000000Y-6160694D01*
X6009744Y-6167205D01*
X6198102Y-6245226D01*
X6398061Y-6285000D01*
X6601939Y-6285000D01*
X6801898Y-6245226D01*
X6990256Y-6167205D01*
X7159774Y-6053937D01*
X7303937Y-5909774D01*
X7417205Y-5740256D01*
X7495226Y-5551898D01*
X7535000Y-5351939D01*
X7535000Y-5148061D01*
X7495226Y-4948102D01*
X7417205Y-4759744D01*
X7303937Y-4590226D01*
X7159774Y-4446063D01*
X6990256Y-4332795D01*
X6801898Y-4254774D01*
X6601939Y-4215000D01*
X6398061Y-4215000D01*
X6198102Y-4254774D01*
X6009744Y-4332795D01*
X6000000Y-4339306D01*
X5990256Y-4332795D01*
X5801898Y-4254774D01*
X5745044Y-4243465D01*
X-3615000Y5116578D01*
X-3615000Y18890846D01*
X-3610719Y18934315D01*
X-3615000Y18977784D01*
X-3615000Y18977792D01*
X-3627805Y19107805D01*
X-3629298Y19112726D01*
X-3678411Y19274629D01*
X-3760589Y19428374D01*
X-3843468Y19529362D01*
X-3843470Y19529364D01*
X-3871183Y19563132D01*
X-3904950Y19590844D01*
X-4365000Y20050894D01*
X-4365000Y21000000D01*
X-4377201Y21123882D01*
X-4413336Y21243004D01*
X-4472017Y21352787D01*
X-4550987Y21449013D01*
X-4647213Y21527983D01*
X-4756996Y21586664D01*
X-4876118Y21622799D01*
X-5000000Y21635000D01*
X-7000000Y21635000D01*
X-7123882Y21622799D01*
X-7243004Y21586664D01*
X-7352787Y21527983D01*
X-7449013Y21449013D01*
X-7527983Y21352787D01*
X-7586664Y21243004D01*
X-7622799Y21123882D01*
X-7635000Y21000000D01*
X-7635000Y20135000D01*
X-9000000Y20135000D01*
X-9123882Y20122799D01*
X-9243004Y20086664D01*
X-9352787Y20027983D01*
X-9449013Y19949013D01*
X-9527983Y19852787D01*
X-9586664Y19743004D01*
X-9622799Y19623882D01*
X-9635000Y19500000D01*
X-9635000Y18293355D01*
X-10838355Y17090000D01*
X-12034962Y17090000D01*
X-12060498Y17174180D01*
X-12119463Y17284494D01*
X-12198815Y17381185D01*
X-12295506Y17460537D01*
X-12405820Y17519502D01*
X-12525518Y17555812D01*
X-12650000Y17568072D01*
X-14340000Y17568072D01*
X-14340000Y21924200D01*
X-14303937Y21870228D01*
X-14159774Y21726065D01*
X-13990256Y21612797D01*
X-13801898Y21534776D01*
X-13601939Y21495002D01*
X-13398061Y21495002D01*
X-13198102Y21534776D01*
X-13009744Y21612797D01*
X-12840226Y21726065D01*
X-12696063Y21870228D01*
X-12682852Y21890000D01*
X-11303711Y21890000D01*
X-11259774Y21846063D01*
X-11090256Y21732795D01*
X-10901898Y21654774D01*
X-10701939Y21615000D01*
X-10498061Y21615000D01*
X-10298102Y21654774D01*
X-10109744Y21732795D01*
X-9940226Y21846063D01*
X-9796063Y21990226D01*
X-9682795Y22159744D01*
X-9604774Y22348102D01*
X-9565000Y22548061D01*
X-9565000Y22751939D01*
X-9604774Y22951898D01*
X-9682795Y23140256D01*
X-9796063Y23309774D01*
X-9940226Y23453937D01*
X-10109744Y23567205D01*
X-10298102Y23645226D01*
X-10498061Y23685000D01*
X-10701939Y23685000D01*
X-10901898Y23645226D01*
X-11090256Y23567205D01*
X-11259774Y23453937D01*
X-11303711Y23410000D01*
X-12954060Y23410000D01*
X-13009744Y23447207D01*
X-13198102Y23525228D01*
X-13398061Y23565002D01*
X-13601939Y23565002D01*
X-13801898Y23525228D01*
X-13990256Y23447207D01*
X-14159774Y23333939D01*
X-14303937Y23189776D01*
X-14340000Y23135804D01*
X-14340000Y27468166D01*
X-12279778Y27468166D01*
X-12230177Y27025961D01*
X-12095629Y26601812D01*
X-11881259Y26211875D01*
X-11595232Y25871002D01*
X-11248444Y25592177D01*
X-10854103Y25386021D01*
X-10427229Y25260385D01*
X-9984083Y25220056D01*
X-9541542Y25266568D01*
X-9116464Y25398152D01*
X-8725040Y25609794D01*
X-8382179Y25893434D01*
X-8100940Y26238267D01*
X-7892035Y26631160D01*
X-7763422Y27057146D01*
X-7720000Y27500000D01*
X-7720889Y27563661D01*
X-7776659Y28005131D01*
X-7917116Y28427360D01*
X-8136910Y28814266D01*
X-8427667Y29151112D01*
X-8778315Y29425068D01*
X-9175496Y29625698D01*
X-9604082Y29745362D01*
X-10047749Y29779500D01*
X-10489597Y29726813D01*
X-10912796Y29589307D01*
X-11301227Y29372220D01*
X-11640095Y29083821D01*
X-11916492Y28735095D01*
X-12119890Y28339324D01*
X-12242543Y27911584D01*
X-12279778Y27468166D01*
X-14340000Y27468166D01*
X-14340000Y27470608D01*
X-14268827Y28268083D01*
X-14065344Y29011891D01*
X-13733362Y29707905D01*
X-13283374Y30334130D01*
X-12729597Y30870777D01*
X-12089549Y31300871D01*
X-11383447Y31610829D01*
X-10628543Y31792065D01*
X-9975793Y31840000D01*
X-127000Y31840000D01*
X-127000Y5000000D01*
G36*
X-9479094Y5149261D02*
G01*
X-9517633Y5117633D01*
X-9643847Y4963840D01*
X-9737631Y4788380D01*
X-9737632Y4788379D01*
X-9795385Y4597994D01*
X-9814886Y4400000D01*
X-9810000Y4350392D01*
X-9809999Y-334697D01*
X-9814886Y-384315D01*
X-9795385Y-582309D01*
X-9760000Y-698957D01*
X-9760000Y-772377D01*
X-9785000Y-898061D01*
X-9785000Y-1101939D01*
X-9745226Y-1301898D01*
X-9667205Y-1490256D01*
X-9553937Y-1659774D01*
X-9409774Y-1803937D01*
X-9240256Y-1917205D01*
X-9064515Y-1990000D01*
X-9435198Y-1990000D01*
X-10094093Y-1331106D01*
X-10094093Y3046287D01*
X-10050146Y3090234D01*
X-9936878Y3259752D01*
X-9858857Y3448110D01*
X-9819083Y3648069D01*
X-9819083Y3851947D01*
X-9858857Y4051906D01*
X-9936878Y4240264D01*
X-10050146Y4409782D01*
X-10194309Y4553945D01*
X-10363827Y4667213D01*
X-10552185Y4745234D01*
X-10752144Y4785008D01*
X-10956022Y4785008D01*
X-11155981Y4745234D01*
X-11344339Y4667213D01*
X-11513857Y4553945D01*
X-11658020Y4409782D01*
X-11771288Y4240264D01*
X-11849309Y4051906D01*
X-11868677Y3954534D01*
X-11901887Y3947928D01*
X-12090245Y3869907D01*
X-12095688Y3866270D01*
X-12121401Y3951034D01*
X-12259294Y4209014D01*
X-12444866Y4435134D01*
X-12670986Y4620706D01*
X-12725791Y4650000D01*
X-12670986Y4679294D01*
X-12444866Y4864866D01*
X-12259294Y5090986D01*
X-12222405Y5160000D01*
X-9468355Y5160000D01*
X-9479094Y5149261D01*
X-9479094Y5149261D01*
G37*
X-9479094Y5149261D02*
X-9517633Y5117633D01*
X-9643847Y4963840D01*
X-9737631Y4788380D01*
X-9737632Y4788379D01*
X-9795385Y4597994D01*
X-9814886Y4400000D01*
X-9810000Y4350392D01*
X-9809999Y-334697D01*
X-9814886Y-384315D01*
X-9795385Y-582309D01*
X-9760000Y-698957D01*
X-9760000Y-772377D01*
X-9785000Y-898061D01*
X-9785000Y-1101939D01*
X-9745226Y-1301898D01*
X-9667205Y-1490256D01*
X-9553937Y-1659774D01*
X-9409774Y-1803937D01*
X-9240256Y-1917205D01*
X-9064515Y-1990000D01*
X-9435198Y-1990000D01*
X-10094093Y-1331106D01*
X-10094093Y3046287D01*
X-10050146Y3090234D01*
X-9936878Y3259752D01*
X-9858857Y3448110D01*
X-9819083Y3648069D01*
X-9819083Y3851947D01*
X-9858857Y4051906D01*
X-9936878Y4240264D01*
X-10050146Y4409782D01*
X-10194309Y4553945D01*
X-10363827Y4667213D01*
X-10552185Y4745234D01*
X-10752144Y4785008D01*
X-10956022Y4785008D01*
X-11155981Y4745234D01*
X-11344339Y4667213D01*
X-11513857Y4553945D01*
X-11658020Y4409782D01*
X-11771288Y4240264D01*
X-11849309Y4051906D01*
X-11868677Y3954534D01*
X-11901887Y3947928D01*
X-12090245Y3869907D01*
X-12095688Y3866270D01*
X-12121401Y3951034D01*
X-12259294Y4209014D01*
X-12444866Y4435134D01*
X-12670986Y4620706D01*
X-12725791Y4650000D01*
X-12670986Y4679294D01*
X-12444866Y4864866D01*
X-12259294Y5090986D01*
X-12222405Y5160000D01*
X-9468355Y5160000D01*
X-9479094Y5149261D01*
G36*
X-9285000Y10960197D02*
G01*
X-9285000Y10898061D01*
X-9245226Y10698102D01*
X-9167205Y10509744D01*
X-9053937Y10340226D01*
X-8909774Y10196063D01*
X-8740256Y10082795D01*
X-8551898Y10004774D01*
X-8351939Y9965000D01*
X-8148061Y9965000D01*
X-7948102Y10004774D01*
X-7759744Y10082795D01*
X-7590226Y10196063D01*
X-7509999Y10276290D01*
X-7509999Y9223710D01*
X-7590226Y9303937D01*
X-7759744Y9417205D01*
X-7948102Y9495226D01*
X-8148061Y9535000D01*
X-8351939Y9535000D01*
X-8551898Y9495226D01*
X-8740256Y9417205D01*
X-8909774Y9303937D01*
X-8993711Y9220000D01*
X-12222405Y9220000D01*
X-12259294Y9289014D01*
X-12444866Y9515134D01*
X-12670986Y9700706D01*
X-12735523Y9735201D01*
X-12618645Y9804822D01*
X-12402412Y9999731D01*
X-12228359Y10233080D01*
X-12103175Y10495901D01*
X-12058524Y10643110D01*
X-12179845Y10873000D01*
X-13373000Y10873000D01*
X-13373000Y10853000D01*
X-13627000Y10853000D01*
X-13627000Y10873000D01*
X-13647000Y10873000D01*
X-13647000Y11127000D01*
X-13627000Y11127000D01*
X-13627000Y11147000D01*
X-13373000Y11147000D01*
X-13373000Y11127000D01*
X-12179845Y11127000D01*
X-12058524Y11356890D01*
X-12103175Y11504099D01*
X-12228359Y11766920D01*
X-12402412Y12000269D01*
X-12618645Y12195178D01*
X-12735523Y12264799D01*
X-12670986Y12299294D01*
X-12444866Y12484866D01*
X-12259294Y12710986D01*
X-12222405Y12780000D01*
X-11104801Y12780000D01*
X-9285000Y10960197D01*
X-9285000Y10960197D01*
G37*
X-9285000Y10960197D02*
X-9285000Y10898061D01*
X-9245226Y10698102D01*
X-9167205Y10509744D01*
X-9053937Y10340226D01*
X-8909774Y10196063D01*
X-8740256Y10082795D01*
X-8551898Y10004774D01*
X-8351939Y9965000D01*
X-8148061Y9965000D01*
X-7948102Y10004774D01*
X-7759744Y10082795D01*
X-7590226Y10196063D01*
X-7509999Y10276290D01*
X-7509999Y9223710D01*
X-7590226Y9303937D01*
X-7759744Y9417205D01*
X-7948102Y9495226D01*
X-8148061Y9535000D01*
X-8351939Y9535000D01*
X-8551898Y9495226D01*
X-8740256Y9417205D01*
X-8909774Y9303937D01*
X-8993711Y9220000D01*
X-12222405Y9220000D01*
X-12259294Y9289014D01*
X-12444866Y9515134D01*
X-12670986Y9700706D01*
X-12735523Y9735201D01*
X-12618645Y9804822D01*
X-12402412Y9999731D01*
X-12228359Y10233080D01*
X-12103175Y10495901D01*
X-12058524Y10643110D01*
X-12179845Y10873000D01*
X-13373000Y10873000D01*
X-13373000Y10853000D01*
X-13627000Y10853000D01*
X-13627000Y10873000D01*
X-13647000Y10873000D01*
X-13647000Y11127000D01*
X-13627000Y11127000D01*
X-13627000Y11147000D01*
X-13373000Y11147000D01*
X-13373000Y11127000D01*
X-12179845Y11127000D01*
X-12058524Y11356890D01*
X-12103175Y11504099D01*
X-12228359Y11766920D01*
X-12402412Y12000269D01*
X-12618645Y12195178D01*
X-12735523Y12264799D01*
X-12670986Y12299294D01*
X-12444866Y12484866D01*
X-12259294Y12710986D01*
X-12222405Y12780000D01*
X-11104801Y12780000D01*
X-9285000Y10960197D01*
G36*
X-7509999Y11723710D02*
G01*
X-7590226Y11803937D01*
X-7759744Y11917205D01*
X-7948102Y11995226D01*
X-8148061Y12035000D01*
X-8210197Y12035000D01*
X-10226196Y14050997D01*
X-10249999Y14080001D01*
X-10365724Y14174974D01*
X-10497753Y14245546D01*
X-10641014Y14289003D01*
X-10752667Y14300000D01*
X-10752678Y14300000D01*
X-10790000Y14303676D01*
X-10827322Y14300000D01*
X-12222405Y14300000D01*
X-12259294Y14369014D01*
X-12444866Y14595134D01*
X-12474687Y14619607D01*
X-12405820Y14640498D01*
X-12295506Y14699463D01*
X-12198815Y14778815D01*
X-12119463Y14875506D01*
X-12060498Y14985820D01*
X-12034962Y15070000D01*
X-10469608Y15070000D01*
X-10420000Y15065114D01*
X-10222006Y15084615D01*
X-10153098Y15105518D01*
X-10031620Y15142368D01*
X-9856160Y15236153D01*
X-9702367Y15362367D01*
X-9670739Y15400906D01*
X-8206645Y16865000D01*
X-7510000Y16865000D01*
X-7509999Y11723710D01*
X-7509999Y11723710D01*
G37*
X-7509999Y11723710D02*
X-7590226Y11803937D01*
X-7759744Y11917205D01*
X-7948102Y11995226D01*
X-8148061Y12035000D01*
X-8210197Y12035000D01*
X-10226196Y14050997D01*
X-10249999Y14080001D01*
X-10365724Y14174974D01*
X-10497753Y14245546D01*
X-10641014Y14289003D01*
X-10752667Y14300000D01*
X-10752678Y14300000D01*
X-10790000Y14303676D01*
X-10827322Y14300000D01*
X-12222405Y14300000D01*
X-12259294Y14369014D01*
X-12444866Y14595134D01*
X-12474687Y14619607D01*
X-12405820Y14640498D01*
X-12295506Y14699463D01*
X-12198815Y14778815D01*
X-12119463Y14875506D01*
X-12060498Y14985820D01*
X-12034962Y15070000D01*
X-10469608Y15070000D01*
X-10420000Y15065114D01*
X-10222006Y15084615D01*
X-10153098Y15105518D01*
X-10031620Y15142368D01*
X-9856160Y15236153D01*
X-9702367Y15362367D01*
X-9670739Y15400906D01*
X-8206645Y16865000D01*
X-7510000Y16865000D01*
X-7509999Y11723710D01*
M02*
