G04 #@! TF.GenerationSoftware,KiCad,Pcbnew,(5.1.2)-1*
G04 #@! TF.CreationDate,2019-12-12T00:14:11+09:00*
G04 #@! TF.ProjectId,CAN_IMU,43414e5f-494d-4552-9e6b-696361645f70,rev?*
G04 #@! TF.SameCoordinates,PXcd0a3c0PY7e5ca20*
G04 #@! TF.FileFunction,Legend,Bot*
G04 #@! TF.FilePolarity,Positive*
%FSLAX46Y46*%
G04 Gerber Fmt 4.6, Leading zero omitted, Abs format (unit mm)*
G04 Created by KiCad (PCBNEW (5.1.2)-1) date 2019-12-12 00:14:11*
%MOMM*%
%LPD*%
G04 APERTURE LIST*
%ADD10C,0.300000*%
G04 APERTURE END LIST*
D10*
X-7676429Y16996429D02*
X-8605000Y16996429D01*
X-8105000Y16425000D01*
X-8319286Y16425000D01*
X-8462143Y16353572D01*
X-8533572Y16282143D01*
X-8605000Y16139286D01*
X-8605000Y15782143D01*
X-8533572Y15639286D01*
X-8462143Y15567858D01*
X-8319286Y15496429D01*
X-7890715Y15496429D01*
X-7747858Y15567858D01*
X-7676429Y15639286D01*
X-9033572Y16996429D02*
X-9533572Y15496429D01*
X-10033572Y16996429D01*
X-10390715Y16996429D02*
X-11319286Y16996429D01*
X-10819286Y16425000D01*
X-11033572Y16425000D01*
X-11176429Y16353572D01*
X-11247858Y16282143D01*
X-11319286Y16139286D01*
X-11319286Y15782143D01*
X-11247858Y15639286D01*
X-11176429Y15567858D01*
X-11033572Y15496429D01*
X-10605000Y15496429D01*
X-10462143Y15567858D01*
X-10390715Y15639286D01*
X-4533572Y13017858D02*
X-4747858Y12946429D01*
X-5105000Y12946429D01*
X-5247858Y13017858D01*
X-5319286Y13089286D01*
X-5390715Y13232143D01*
X-5390715Y13375000D01*
X-5319286Y13517858D01*
X-5247858Y13589286D01*
X-5105000Y13660715D01*
X-4819286Y13732143D01*
X-4676429Y13803572D01*
X-4605000Y13875000D01*
X-4533572Y14017858D01*
X-4533572Y14160715D01*
X-4605000Y14303572D01*
X-4676429Y14375000D01*
X-4819286Y14446429D01*
X-5176429Y14446429D01*
X-5390715Y14375000D01*
X-5890715Y14446429D02*
X-6247858Y12946429D01*
X-6533572Y14017858D01*
X-6819286Y12946429D01*
X-7176429Y14446429D01*
X-8605000Y13089286D02*
X-8533572Y13017858D01*
X-8319286Y12946429D01*
X-8176429Y12946429D01*
X-7962143Y13017858D01*
X-7819286Y13160715D01*
X-7747858Y13303572D01*
X-7676429Y13589286D01*
X-7676429Y13803572D01*
X-7747858Y14089286D01*
X-7819286Y14232143D01*
X-7962143Y14375000D01*
X-8176429Y14446429D01*
X-8319286Y14446429D01*
X-8533572Y14375000D01*
X-8605000Y14303572D01*
X-9962143Y12946429D02*
X-9247858Y12946429D01*
X-9247858Y14446429D01*
X-10462143Y12946429D02*
X-10462143Y14446429D01*
X-11319286Y12946429D02*
X-10676429Y13803572D01*
X-11319286Y14446429D02*
X-10462143Y13589286D01*
X-8176429Y11825000D02*
X-8033572Y11896429D01*
X-7819286Y11896429D01*
X-7605000Y11825000D01*
X-7462143Y11682143D01*
X-7390715Y11539286D01*
X-7319286Y11253572D01*
X-7319286Y11039286D01*
X-7390715Y10753572D01*
X-7462143Y10610715D01*
X-7605000Y10467858D01*
X-7819286Y10396429D01*
X-7962143Y10396429D01*
X-8176429Y10467858D01*
X-8247858Y10539286D01*
X-8247858Y11039286D01*
X-7962143Y11039286D01*
X-8890715Y10396429D02*
X-8890715Y11896429D01*
X-9747858Y10396429D01*
X-9747858Y11896429D01*
X-10462143Y10396429D02*
X-10462143Y11896429D01*
X-10819286Y11896429D01*
X-11033572Y11825000D01*
X-11176429Y11682143D01*
X-11247858Y11539286D01*
X-11319286Y11253572D01*
X-11319286Y11039286D01*
X-11247858Y10753572D01*
X-11176429Y10610715D01*
X-11033572Y10467858D01*
X-10819286Y10396429D01*
X-10462143Y10396429D01*
X-4962143Y7917858D02*
X-5176429Y7846429D01*
X-5533572Y7846429D01*
X-5676429Y7917858D01*
X-5747858Y7989286D01*
X-5819286Y8132143D01*
X-5819286Y8275000D01*
X-5747858Y8417858D01*
X-5676429Y8489286D01*
X-5533572Y8560715D01*
X-5247858Y8632143D01*
X-5105000Y8703572D01*
X-5033572Y8775000D01*
X-4962143Y8917858D01*
X-4962143Y9060715D01*
X-5033572Y9203572D01*
X-5105000Y9275000D01*
X-5247858Y9346429D01*
X-5605000Y9346429D01*
X-5819286Y9275000D01*
X-6319286Y9346429D02*
X-6676429Y7846429D01*
X-6962143Y8917858D01*
X-7247858Y7846429D01*
X-7605000Y9346429D01*
X-8176429Y7846429D02*
X-8176429Y9346429D01*
X-8533572Y9346429D01*
X-8747858Y9275000D01*
X-8890715Y9132143D01*
X-8962143Y8989286D01*
X-9033572Y8703572D01*
X-9033572Y8489286D01*
X-8962143Y8203572D01*
X-8890715Y8060715D01*
X-8747858Y7917858D01*
X-8533572Y7846429D01*
X-8176429Y7846429D01*
X-9676429Y7846429D02*
X-9676429Y9346429D01*
X-10676429Y9346429D02*
X-10962143Y9346429D01*
X-11105000Y9275000D01*
X-11247858Y9132143D01*
X-11319286Y8846429D01*
X-11319286Y8346429D01*
X-11247858Y8060715D01*
X-11105000Y7917858D01*
X-10962143Y7846429D01*
X-10676429Y7846429D01*
X-10533572Y7917858D01*
X-10390715Y8060715D01*
X-10319286Y8346429D01*
X-10319286Y8846429D01*
X-10390715Y9132143D01*
X-10533572Y9275000D01*
X-10676429Y9346429D01*
X-6033572Y5296429D02*
X-5533572Y6010715D01*
X-5176429Y5296429D02*
X-5176429Y6796429D01*
X-5747858Y6796429D01*
X-5890715Y6725000D01*
X-5962143Y6653572D01*
X-6033572Y6510715D01*
X-6033572Y6296429D01*
X-5962143Y6153572D01*
X-5890715Y6082143D01*
X-5747858Y6010715D01*
X-5176429Y6010715D01*
X-6676429Y6082143D02*
X-7176429Y6082143D01*
X-7390715Y5296429D02*
X-6676429Y5296429D01*
X-6676429Y6796429D01*
X-7390715Y6796429D01*
X-7962143Y5367858D02*
X-8176429Y5296429D01*
X-8533572Y5296429D01*
X-8676429Y5367858D01*
X-8747858Y5439286D01*
X-8819286Y5582143D01*
X-8819286Y5725000D01*
X-8747858Y5867858D01*
X-8676429Y5939286D01*
X-8533572Y6010715D01*
X-8247858Y6082143D01*
X-8105000Y6153572D01*
X-8033572Y6225000D01*
X-7962143Y6367858D01*
X-7962143Y6510715D01*
X-8033572Y6653572D01*
X-8105000Y6725000D01*
X-8247858Y6796429D01*
X-8605000Y6796429D01*
X-8819286Y6725000D01*
X-9462143Y6082143D02*
X-9962143Y6082143D01*
X-10176429Y5296429D02*
X-9462143Y5296429D01*
X-9462143Y6796429D01*
X-10176429Y6796429D01*
X-10605000Y6796429D02*
X-11462143Y6796429D01*
X-11033572Y5296429D02*
X-11033572Y6796429D01*
X-7533572Y4246429D02*
X-8533572Y2746429D01*
X-8533572Y4246429D02*
X-7533572Y2746429D01*
X-8962143Y4246429D02*
X-9962143Y2746429D01*
X-9962143Y4246429D02*
X-8962143Y2746429D01*
X-10390715Y4246429D02*
X-11390715Y2746429D01*
X-11390715Y4246429D02*
X-10390715Y2746429D01*
M02*
